<?xml version="1.0" standalone="no"?>
<!DOCTYPE svg PUBLIC "-//W3C//DTD SVG 20010904//EN"
 "http://www.w3.org/TR/2001/REC-SVG-20010904/DTD/svg10.dtd">
<svg version="1.0" xmlns="http://www.w3.org/2000/svg"
 width="499.000000pt" height="499.000000pt" viewBox="0 0 499.000000 499.000000"
 preserveAspectRatio="xMidYMid meet">

<g transform="translate(0.000000,499.000000) scale(0.100000,-0.100000)"
fill="#000000" stroke="none">
<path d="M1901 4473 c-12 -14 -19 -28 -17 -30 2 -3 24 6 48 18 38 19 41 23 23
30 -30 12 -32 11 -54 -18z"/>
<path d="M2865 4393 c-47 -14 -162 -89 -152 -99 2 -3 22 2 43 10 22 8 74 24
117 37 42 12 77 25 77 30 0 4 3 14 6 23 8 20 -23 20 -91 -1z"/>
<path d="M3725 4129 c-21 -10 -55 -62 -55 -83 0 -20 -46 -101 -90 -160 l-41
-54 41 -61 c43 -64 199 -370 221 -433 11 -31 18 -38 40 -38 18 0 35 -9 48 -26
28 -36 26 -44 -8 -44 -47 0 -82 -18 -141 -73 -92 -86 -116 -137 -129 -272 l-6
-70 -52 -5 c-29 -3 -58 -11 -65 -18 -16 -16 -38 -15 -38 1 0 20 -81 121 -128
160 -64 54 -157 95 -242 108 -204 32 -421 -87 -505 -276 l-23 -52 -148 -7
c-244 -11 -554 -35 -681 -52 -65 -8 -152 -19 -193 -24 -41 -5 -145 -20 -230
-33 -85 -14 -199 -30 -252 -37 -54 -7 -101 -13 -104 -14 -21 -4 -74 251 -74
358 0 91 -26 240 -59 341 -28 87 -30 90 -72 108 -24 10 -51 25 -60 33 -15 13
-20 11 -48 -21 -17 -20 -31 -42 -31 -51 0 -8 17 -33 38 -57 38 -41 72 -118 72
-163 0 -12 -7 -41 -16 -65 -8 -24 -23 -83 -33 -132 l-18 -87 23 -5 c13 -3 36
-7 50 -10 39 -9 23 -28 -31 -40 -58 -12 -59 -14 -70 -178 -12 -192 27 -474 97
-682 l33 -100 75 -11 75 -10 -58 -8 c-31 -5 -59 -12 -62 -16 -7 -11 18 -68 77
-173 272 -491 741 -829 1303 -939 89 -17 153 -22 335 -24 220 -2 226 -3 285
-30 81 -36 261 -100 309 -108 50 -9 95 9 101 40 3 13 7 35 10 48 4 21 -6 34
-67 85 -39 34 -73 59 -75 57 -2 -2 6 -24 17 -50 34 -79 32 -80 -90 -33 -108
41 -230 106 -297 156 -36 28 -66 42 -100 47 -150 22 -393 113 -544 205 -226
137 -435 341 -603 587 l-50 72 -57 0 c-75 0 -107 13 -114 45 -3 14 -7 36 -10
49 -3 14 -16 28 -33 35 -31 13 -128 160 -181 273 -37 82 -71 199 -71 250 0 20
10 59 23 87 26 60 51 71 157 71 65 0 99 -13 126 -49 10 -13 21 -13 78 -3 128
24 315 32 767 32 l457 0 7 -37 c16 -85 72 -183 148 -258 63 -61 86 -77 153
-103 43 -16 104 -33 134 -36 212 -24 434 124 505 337 29 89 36 209 16 276 -9
30 -8 38 10 57 43 46 119 39 119 -10 0 -22 16 -87 65 -260 23 -81 59 -149 89
-169 39 -26 132 -22 233 8 20 6 22 2 28 -49 8 -63 -6 -199 -31 -302 l-16 -70
26 -50 c37 -69 35 -129 -6 -206 l-31 -59 -13 29 c-11 27 -41 49 -51 38 -3 -3
1 -26 8 -53 18 -71 14 -128 -17 -228 -15 -49 -27 -101 -27 -115 0 -14 17 -72
37 -129 21 -58 41 -132 45 -165 6 -47 10 -56 16 -41 16 39 45 41 45 4 0 -11
-7 -22 -15 -25 -8 -4 -15 -12 -15 -18 0 -7 -11 -35 -25 -62 -14 -27 -30 -76
-36 -109 -6 -33 -15 -68 -21 -78 -16 -31 4 -40 49 -22 69 28 100 85 113 208
10 99 38 138 130 184 36 18 73 42 82 54 25 30 23 114 -3 186 -19 53 -53 104
-62 92 -2 -2 -34 -46 -72 -97 -38 -50 -73 -92 -77 -92 -4 0 -11 0 -14 0 -4 -1
-17 30 -30 67 -20 57 -22 70 -10 88 20 31 46 115 46 148 0 16 15 55 34 86 46
75 136 253 136 269 0 6 -11 12 -24 12 -14 0 -28 5 -31 10 -4 6 9 10 33 10 l39
0 36 113 c78 244 103 460 87 737 -14 238 -31 334 -80 435 -143 300 -185 380
-237 455 -64 93 -52 86 -198 106 l-60 8 78 10 79 11 -70 80 c-38 44 -84 90
-100 102 -30 22 -31 24 -17 58 15 34 20 159 9 189 -7 18 -20 19 -49 5z m188
-946 c3 -10 40 -101 82 -203 42 -102 85 -207 95 -235 10 -27 33 -83 50 -124
l30 -74 -21 -44 c-29 -59 -111 -138 -165 -159 -24 -9 -48 -14 -51 -10 -4 4
-15 26 -24 49 -9 23 -56 139 -104 257 -149 365 -147 358 -128 394 16 32 103
119 138 138 17 10 59 23 86 27 4 1 9 -7 12 -16z m-801 -283 c21 -52 45 -111
52 -130 7 -19 44 -109 81 -200 126 -310 115 -275 97 -302 -9 -12 -28 -33 -42
-46 -30 -28 -157 -92 -182 -92 -19 0 -36 29 -72 122 -27 72 -73 183 -87 213
-5 11 -15 38 -23 60 -8 22 -35 90 -61 150 -82 196 -88 214 -75 230 37 45 165
95 234 92 l39 -2 39 -95z"/>
</g>
</svg>
