<?xml version="1.0" standalone="no"?>
<!DOCTYPE svg PUBLIC "-//W3C//DTD SVG 1.1//EN" "http://www.w3.org/Graphics/SVG/1.1/DTD/svg11.dtd" >
<svg>
<metadata>
Created by FontForge 20090914 at Mon Feb 14 09:24:59 2022
 By www-data
Helsinki Type Studio
</metadata>
<defs>
<font id="Finlandica-Italic" horiz-adv-x="606" >
  <font-face 
    font-family="Finlandica"
    font-weight="400"
    font-style="italic"
    font-stretch="normal"
    units-per-em="1000"
    panose-1="0 0 5 0 0 0 0 0 0 0"
    ascent="750"
    descent="-250"
    x-height="499.999"
    cap-height="700"
    bbox="-301.001 -263 1081 950"
    underline-thickness="50"
    underline-position="-50"
    slope="-8"
    unicode-range="U+0020-U+FB02"
  />
<missing-glyph horiz-adv-x="500" 
d="M410 -250h-317v1000h317v-1000zM168 683v-33h65v-37h-66v-33h166v33h-66v37h66v33h-165zM167 554v-104h166v34h-66v70h-100zM233 484h-33v36h33v-36zM167 423v-33h66v-37h-66v-33h100v70h66v33h-166zM300 363v-66h-133v-34h166v100h-33zM233 241v-56h34v23h33v-47h-100
v80h-33v-113h166v113h-100zM167 68v-113h166v113h-166zM300 -12h-100v47h100v-47zM167 -68v-33h70l-70 -47v-33h166v33h-102l70 47h32v33h-166z" />
    <glyph glyph-name="fi" unicode="fi" horiz-adv-x="555" 
d="M439 600l8.00098 58c-16 8.66699 -31.333 14.667 -46 18s-31 5 -49 5c-32 0 -58.5 -10.167 -79.5 -30.5s-34.167 -49.5 -39.5 -87.5l-9 -63h281l-70 -500h-80l60 430h-201l-60 -430h-77l60 430h-102l10 70h102l12 84c7.33301 50 27.166 90.667 59.499 122
s77.833 47 136.5 47c56 0 106 -17.667 150 -53h28l-14 -100h-80z" />
    <glyph glyph-name="fl" unicode="fl" horiz-adv-x="573" 
d="M470 70h43l-10 -70h-39c-31.333 -0 -56.166 8.33301 -74.499 25s-27.5 39 -27.5 67c0 8 0.333008 14 1 18l78 551c-29.333 13.333 -59 20 -89 20c-32 0 -58.5 -10.167 -79.5 -30.5s-34.167 -49.5 -39.5 -87.5l-9 -63h131l-10 -70h-131l-60 -430h-77l60 430h-102l10 70
h102l12 84c7.33301 50 27.166 90.667 59.499 122s77.833 47 136.5 47c29.333 0 61.333 -6.66699 96 -20l2 17h80l-90 -644c-3.33301 -24 5.66699 -36 27 -36z" />
    <glyph glyph-name="f_f" unicode="ff" horiz-adv-x="627" 
d="M544.5 650.5c-21 -20.333 -34.1699 -49.5 -39.5029 -87.5l-9 -63h131l-10 -70h-131l-60 -430h-77l60 430h-195l-60 -430h-77l60 430h-102l10 70h102l12 84c6.66699 50 26.334 90.667 59.001 122s78.334 47 137.001 47c23.333 0 47.333 -3.83301 72 -11.5
s47.334 -18.167 68.001 -31.5c34 28.667 78 43 132 43c23.333 0 47.333 -3.83301 72 -11.5s47.667 -18.167 69 -31.5l-26 -64c-22 12.667 -42.167 21.667 -60.5 27s-37.5 8 -57.5 8c-32 0 -58.5 -10.167 -79.5 -30.5zM430.997 584c4.66699 28 12.001 51.667 22.001 71
c-32.667 17.333 -66.334 26 -101.001 26c-32 0 -58.667 -10.167 -80 -30.5s-34.333 -49.5 -39 -87.5l-9 -63h195z" />
    <glyph glyph-name="f_f_i" unicode="ffi" horiz-adv-x="827" 
d="M711 600l7.99707 58c-16 8.66699 -31.333 14.667 -46 18s-31 5 -49 5c-32 0 -58.5 -10.167 -79.5 -30.5s-34.167 -49.5 -39.5 -87.5l-9 -63h281l-70 -500h-80l60 430h-201l-60 -430h-77l60 430h-195l-60 -430h-77l60 430h-102l10 70h102l12 84
c6.66699 50 26.334 90.667 59.001 122s78.334 47 137.001 47c23.333 0 47.333 -3.83301 72 -11.5s47.334 -18.167 68.001 -31.5c34 28.667 78 43 132 43c56 0 106 -17.667 150 -53h28l-14 -100h-80zM430.997 584c4.66699 28 12.001 51.667 22.001 71
c-32.667 17.333 -66.334 26 -101.001 26c-32 0 -58.667 -10.167 -80 -30.5s-34.333 -49.5 -39 -87.5l-9 -63h195z" />
    <glyph glyph-name="f_f_l" unicode="ffl" horiz-adv-x="845" 
d="M742 70h42.9961l-10 -70h-39c-31.333 -0 -56.166 8.33301 -74.499 25s-27.5 39 -27.5 67c0 8 0.333008 14 1 18l78 551c-29.333 13.333 -59 20 -89 20c-32 0 -58.5 -10.167 -79.5 -30.5s-34.167 -49.5 -39.5 -87.5l-9 -63h131l-10 -70h-131l-60 -430h-77l60 430h-195
l-60 -430h-77l60 430h-102l10 70h102l12 84c6.66699 50 26.334 90.667 59.001 122s78.334 47 137.001 47c23.333 0 47.333 -3.83301 72 -11.5s47.334 -18.167 68.001 -31.5c34 28.667 78 43 132 43c29.333 0 61.333 -6.66699 96 -20l2 17h80l-90 -644
c-3.33301 -24 5.66699 -36 27 -36zM430.996 584c4.66699 28 12.001 51.667 22.001 71c-32.667 17.333 -66.334 26 -101.001 26c-32 0 -58.667 -10.167 -80 -30.5s-34.333 -49.5 -39 -87.5l-9 -63h195z" />
    <glyph glyph-name=".notdef" horiz-adv-x="500" 
d="M410 -250h-317v1000h317v-1000zM168 683v-33h65v-37h-66v-33h166v33h-66v37h66v33h-165zM167 554v-104h166v34h-66v70h-100zM233 484h-33v36h33v-36zM167 423v-33h66v-37h-66v-33h100v70h66v33h-166zM300 363v-66h-133v-34h166v100h-33zM233 241v-56h34v23h33v-47h-100
v80h-33v-113h166v113h-100zM167 68v-113h166v113h-166zM300 -12h-100v47h100v-47zM167 -68v-33h70l-70 -47v-33h166v33h-102l70 47h32v33h-166z" />
    <glyph glyph-name="space" unicode=" " horiz-adv-x="260" 
 />
    <glyph glyph-name="exclam" unicode="!" horiz-adv-x="255" 
d="M148 700h85l-82 -490h-59zM63 95h85l-13 -95h-85z" />
    <glyph glyph-name="quotedbl" unicode="&#x22;" horiz-adv-x="370" 
d="M140 750h70l-46 -329h-70zM300 750h70l-46 -329h-70z" />
    <glyph glyph-name="numbersign" unicode="#" horiz-adv-x="730" 
d="M295 460l151 240h85l-151 -240h110l151 240h85l-114 -180l-47 -41c-5.33301 -4 -8 -8 -8 -12c0 -4.66699 3.66699 -7 11 -7h142l-10 -70h-415zM147 180l47 40c4.66699 4 7 8 7 12c0 5.33301 -3.66699 8 -11 8h-141l9 70h415l-10 -70l-151 -240h-85l151 240h-110
l-151 -240h-85z" />
    <glyph glyph-name="dollar" unicode="$" horiz-adv-x="530" 
d="M249.5 617c-23.667 -12 -41.333 -27.6631 -53 -46.9961s-17.5 -39.333 -17.5 -60c0 -22.667 7 -42.167 21 -58.5s33.333 -28.833 58 -37.5l35 -12c50 -17.333 87.333 -41.333 112 -72s37 -70 37 -118s-16 -92 -48 -132s-73.667 -67 -125 -81l-21 -149h-70l20 140
c-37.333 0.666992 -73.833 7.66699 -109.5 21s-62.834 29 -81.501 47l30 70c20 -19.333 44.667 -34.333 74 -45s58.666 -16 87.999 -16c31.333 0 59.333 7.16699 84 21.5s43.834 33.166 57.501 56.499s20.5 47.666 20.5 72.999c0 24.667 -7.33301 46.167 -22 64.5
s-35.667 32.166 -63 41.499l-40 14c-41.333 14 -74.666 35.333 -99.999 64s-38 64.667 -38 108c0 30.667 7.5 60.167 22.5 88.5s37.5 52.333 67.5 72s66.667 32.167 110 37.5l20 142h70l-20 -142c48.667 -5.33301 94 -21.333 136 -48l-25 -70
c-22.667 15.333 -46.667 26.666 -72 33.999s-48.666 11 -69.999 11c-34.667 0 -63.834 -6 -87.501 -18z" />
    <glyph glyph-name="percent" unicode="%" horiz-adv-x="700" 
d="M118.5 392.5c-22.333 21 -33.5 54.833 -33.5 101.5c0 62 13.5 113.833 40.5 155.5s65.167 62.5 114.5 62.5c34 0 62.5 -11 85.5 -33s34.5 -56.333 34.5 -103c0 -62 -13.5 -113.333 -40.5 -154s-64.833 -61 -113.5 -61c-36 0 -65.167 10.5 -87.5 31.5zM401 456l161 244
h101l-334 -457l-160 -243h-101zM274 468.5c14 28.333 21 65.166 21 110.499c0 26 -4.83301 43.833 -14.5 53.5s-23.5 14.5 -41.5 14.5c-31.333 0 -54 -14.667 -68 -44s-21 -65.666 -21 -108.999c0 -26 4.83301 -43.833 14.5 -53.5s23.167 -14.5 40.5 -14.5
c32 0 55 14.167 69 42.5zM402.5 19.5c-22.333 21 -33.5 54.833 -33.5 101.5c0 62 13.5 113.833 40.5 155.5s65.167 62.5 114.5 62.5c34 0 62.5 -11 85.5 -33s34.5 -56.333 34.5 -103c0 -62 -13.5 -113.333 -40.5 -154s-64.833 -61 -113.5 -61c-36 0 -65.167 10.5 -87.5 31.5
zM558 95.5c14 28.333 21 65.166 21 110.499c0 26 -4.83301 43.833 -14.5 53.5s-23.5 14.5 -41.5 14.5c-31.333 0 -54 -14.667 -68 -44s-21 -65.666 -21 -108.999c0 -26 4.83301 -43.833 14.5 -53.5s23.167 -14.5 40.5 -14.5c32 0 55 14.167 69 42.5z" />
    <glyph glyph-name="ampersand" unicode="&#x26;" horiz-adv-x="740" 
d="M700 289l-164 -0.00292969l-30 -220c-27.333 -23.333 -61.5 -42.166 -102.5 -56.499s-85.833 -21.5 -134.5 -21.5c-34 0 -66.667 6.5 -98 19.5s-56.666 33.333 -75.999 61s-28.333 61.5 -27 101.5c0 40 10.333 73 31 99s48.334 44.667 83.001 56
c-38.667 6 -67.834 23.333 -87.501 52s-29.5 62.667 -29.5 102c0 40.667 10.333 78.334 31 113.001s51.5 62.5 92.5 83.5s90.833 31.5 149.5 31.5c35.333 0 68.166 -6 98.499 -18s55 -30.333 74 -55s28.5 -54.667 28.5 -90c0 -21.333 -3.66699 -45.666 -11 -72.999l-77 -11
c6.66699 24 10 46.333 10 67c0 34.667 -11.667 60.5 -35 77.5s-55 25.5 -95 25.5c-61.333 0 -107.5 -14.5 -138.5 -43.5s-46.5 -67.167 -46.5 -114.5c0 -42 12.833 -70.5 38.5 -85.5s59.5 -22.5 101.5 -22.5h425zM453 288.997h-173.001c-42 0 -74.5 -10.5 -97.5 -31.5
s-34.5 -49.167 -34.5 -84.5c0 -32 11.333 -57.5 34 -76.5s53.334 -28.5 92.001 -28.5c33.333 0 61.833 3 85.5 9s45.5 16.333 65.5 31z" />
    <glyph glyph-name="quotesingle" unicode="'" horiz-adv-x="210" 
d="M140 750h70l-46 -329h-70z" />
    <glyph glyph-name="parenleft" unicode="(" horiz-adv-x="421" 
d="M121 -58.5c-25.333 40.333 -38.001 93.499 -38.001 159.499c0 134 23.333 305.667 70 515c16 62 42 111.5 78 148.5s86.333 64.167 151 81.5l25 -74c-55.333 -17.333 -96.333 -39.5 -123 -66.5s-44.667 -63.167 -54 -108.5c-23.333 -114 -40.5 -207.667 -51.5 -281
s-16.5 -145.333 -16.5 -216c0 -47.333 8.83301 -85.166 26.5 -113.499s49.5 -48.5 95.5 -60.5l-36 -70c-59.333 16.667 -101.666 45.167 -126.999 85.5z" />
    <glyph glyph-name="parenright" unicode=")" horiz-adv-x="421" 
d="M43 -72c46 12.667 84.5 33.5 115.5 62.5s51.167 66.5 60.5 112.5c22 108 39.333 204 52 288s19 156 19 216c0 46 -9.16699 82.333 -27.5 109s-50.833 46 -97.5 58l36 70c60 -17.333 103 -45 129 -83s39 -89.667 39 -155c0 -74.667 -6.5 -155 -19.5 -241
s-30.833 -179.667 -53.5 -281c-16 -62 -42 -111.5 -78 -148.5s-86.333 -64.167 -151 -81.5z" />
    <glyph glyph-name="asterisk" unicode="*" horiz-adv-x="510" 
d="M141 397l116 137h-167l7 47h168l-78 137l48 30l53 -98l8 -40c1.33301 -5.33301 3.66602 -8 6.99902 -8c4.66699 0 8 2.66699 10 8l20 41l80 97l42 -30l-116 -137h168l-7 -47h-169l78 -137l-47 -29l-52 96l-10 39c-0.666992 5.33301 -3 8 -7 8
c-3.33301 0 -6.66602 -2.66699 -9.99902 -8l-19 -39l-80 -96z" />
    <glyph glyph-name="plus" unicode="+" horiz-adv-x="580" 
d="M264 315h-205l10 70h205l29 205h70l-29 -205h205l-10 -70h-205l-29 -205h-70z" />
    <glyph glyph-name="comma" unicode="," horiz-adv-x="275" 
d="M-49 -147c40 6.66699 73.333 23.167 100 49.5s43.667 59.5 51 99.5l-57 -2l14 100h105l-12 -88c-8 -56 -30.833 -102 -68.5 -138s-85.5 -57.667 -143.5 -65z" />
    <glyph glyph-name="hyphen" unicode="-" horiz-adv-x="330" 
d="M56 291h230l-10 -70h-230z" />
    <glyph glyph-name="period" unicode="." horiz-adv-x="265" 
d="M69 100h85l-14 -100h-85z" />
    <glyph glyph-name="slash" unicode="/" horiz-adv-x="485" 
d="M431 700h88l-438 -700h-90z" />
    <glyph glyph-name="zero" unicode="0" 
d="M474 681c32.667 -20.667 56.999 -48.167 72.999 -82.5s24 -71.833 24 -112.5c0 -46.667 -4.66699 -99.667 -14 -159s-22 -113 -38 -161c-16 -55.333 -44.167 -98.833 -84.5 -130.5s-92.5 -47.5 -156.5 -47.5c-46 0 -85.167 10.333 -117.5 31s-56.5 48.167 -72.5 82.5
s-24 71.833 -24 112.5c0 48 4.66699 101.667 14 161s22 112.333 38 159c16.667 55.333 44.834 98.833 84.501 130.5s91.5 47.5 155.5 47.5c46 0 85.333 -10.333 118 -31zM454.499 596.5c-25 26.333 -60.5 39.5 -106.5 39.5c-80 0 -132.667 -41 -158 -123
c-14 -41.333 -25.333 -90 -34 -146s-13 -106.667 -13 -152c0 -48 12.5 -85.167 37.5 -111.5s60.167 -39.5 105.5 -39.5c81.333 0 134.333 41 159 123c13.333 42 24.5 91.167 33.5 147.5s13.5 106.5 13.5 150.5c0 48 -12.5 85.167 -37.5 111.5zM291.999 430h70l-22 -160h-70z
" />
    <glyph glyph-name="one" unicode="1" horiz-adv-x="353" 
d="M288 712l-100 -712h-83l87 622h-109l8 49z" />
    <glyph glyph-name="two" unicode="2" horiz-adv-x="550" 
d="M159.5 148.5c-19 -23.667 -29.168 -47.166 -30.501 -70.499h347l-11 -78h-427l9 65c6.66699 46 20.834 84.5 42.501 115.5s54.5 60.5 98.5 88.5l120 78c43.333 28 74.5 54.833 93.5 80.5s28.5 55.834 28.5 90.501c0 38.667 -13.167 67.834 -39.5 87.501
s-60.5 29.5 -102.5 29.5c-31.333 0 -63.166 -7.33301 -95.499 -22s-61.166 -32.667 -86.499 -54l-24 75c31.333 25.333 63.666 44.666 96.999 57.999s70.333 20 111 20c40 0 76.667 -7.33301 110 -22s60 -36.834 80 -66.501s30 -65.834 30 -108.501
c0 -48 -12.833 -90 -38.5 -126s-67.834 -72 -126.501 -108l-115 -71c-28 -17.333 -51.5 -37.833 -70.5 -61.5z" />
    <glyph glyph-name="three" unicode="3" horiz-adv-x="534" 
d="M21 69l36.0029 65.0029c17.333 -20.667 41.5 -36.834 72.5 -48.501s61.833 -17.5 92.5 -17.5c60 0 104 13.5 132 40.5s42 61.167 42 102.5c0 39.333 -11.333 69.666 -34 90.999s-52.334 32 -89.001 32h-98l11 78h93c48 0 84.333 9.5 109 28.5s37 50.167 37 93.5
c0 28 -11.167 51.5 -33.5 70.5s-51.833 28.5 -88.5 28.5c-27.333 0 -54.5 -4.33301 -81.5 -13s-52.167 -21.667 -75.5 -39l-21 72c33.333 21.333 63.666 36.166 90.999 44.499s58 12.5 92 12.5c32.667 0 64 -6.33301 94 -19s54.667 -31.667 74 -57s29 -56 29 -92
c0 -42.667 -11.667 -78.667 -35 -108s-54.333 -49.666 -93 -60.999c66.667 -28.667 100 -81.667 100 -159c0 -42 -10.5 -79.833 -31.5 -113.5s-50.833 -60.334 -89.5 -80.001s-83.334 -29.5 -134.001 -29.5c-82.667 0 -149.667 26 -201 78z" />
    <glyph glyph-name="four" unicode="4" horiz-adv-x="529" 
d="M482 199h-60l-28 -199h-82l28 199h-307l5 42l274 459h92l-258 -427h204l32 227h82l-32 -227h60z" />
    <glyph glyph-name="five" unicode="5" horiz-adv-x="515" 
d="M94.5 12c-32.333 14 -61.832 32.667 -88.499 56l37 65c16 -18.667 39.667 -34.5 71 -47.5s63 -19.5 95 -19.5c34 0 64.833 7.5 92.5 22.5s49.667 36 66 63s24.5 57.167 24.5 90.5c0 43.333 -12.667 76.833 -38 100.5s-58.333 35.5 -99 35.5
c-22.667 0 -44.167 -2.5 -64.5 -7.5s-41.5 -13.833 -63.5 -26.5l-48 41l59 315h360l-10 -70h-282l-35 -188v-4c0 -9.33301 5 -12 15 -8l35 16c10.667 3.33301 27.334 5 50.001 5c39.333 0 74.166 -8.33301 104.499 -25s54.166 -40 71.499 -70s26 -64.667 26 -104
c0 -46 -11.5 -89 -34.5 -129s-54.833 -72 -95.5 -96s-86 -36 -136 -36c-42.667 0 -80.167 7 -112.5 21z" />
    <glyph glyph-name="six" unicode="6" horiz-adv-x="547" 
d="M139 13.5c-32 17 -57.334 39.9971 -76.001 68.9971s-28 61.167 -28 96.5c0 38.667 8.83301 80.834 26.5 126.501s44.834 91.167 81.501 136.5l206 258h102l-212 -248c-2.66699 -4 -4 -7 -4 -9c0 -3.33301 1.5 -5.66602 4.5 -6.99902s6.5 -0.666016 10.5 2.00098l44 23
c12.667 2.66699 25 4 37 4c35.333 0 67.333 -8.16699 96 -24.5s51.167 -38.666 67.5 -66.999s24.5 -59.833 24.5 -94.5c0 -53.333 -12.333 -102.333 -37 -147s-58 -79.834 -100 -105.501s-87.667 -38.5 -137 -38.5c-38.667 0 -74 8.5 -106 25.5zM342.499 92.4971
c29 18.333 51.833 43.166 68.5 74.499s25 66 25 104c0 35.333 -12.5 65.166 -37.5 89.499s-55.5 36.5 -91.5 36.5c-34.667 0 -66.5 -9.16699 -95.5 -27.5s-51.833 -43.166 -68.5 -74.499s-25 -66 -25 -104c0 -35.333 12.5 -65.166 37.5 -89.499s55.5 -36.5 91.5 -36.5
c34.667 0 66.5 9.16699 95.5 27.5z" />
    <glyph glyph-name="seven" unicode="7" horiz-adv-x="490" 
d="M380 622l-324 0.000976562l11 78h431l-6 -48l-131 -209l-35 -36c-2.66699 -2.66699 -4 -5.66699 -4 -9c0 -2.66699 1 -4.83398 3 -6.50098s4.33301 -2.5 7 -2.5h132l-11 -74h-173l-197 -315h-88z" />
    <glyph glyph-name="eight" unicode="8" horiz-adv-x="570" 
d="M157 13c-36 16.667 -64.5 39.1689 -85.5 67.502s-31.5 59.833 -31.5 94.5c0 30 5.66699 57.667 17 83s26 45.333 44 60l92 33c4.66699 2 7 4.66699 7 8s-2.33301 6.33301 -7 9c-25.333 15.333 -45.833 36.666 -61.5 63.999s-23.5 56 -23.5 86
c0 36 9.83301 68.833 29.5 98.5s46.5 53 80.5 70s71.667 25.5 113 25.5c38 0 72.833 -8.33301 104.5 -25s56.667 -39.167 75 -67.5s27.5 -59.5 27.5 -93.5c0 -28.667 -8 -55.834 -24 -81.501s-35.333 -45.5 -58 -59.5l-53 -14c-5.33301 -2 -8 -4.33301 -8 -7
c0 -3.33301 2.33301 -6 7 -8c73.333 -28 110 -78.667 110 -152c0 -40 -10.5 -76.5 -31.5 -109.5s-49.5 -59 -85.5 -78s-75.667 -28.5 -119 -28.5s-83 8.33301 -119 25zM424 441.502c24.667 25.667 37 54.499 37 86.499s-13 59 -39 81s-58 33 -96 33
c-26 0 -49.833 -5.5 -71.5 -16.5s-38.667 -26.167 -51 -45.5s-18.5 -40.666 -18.5 -63.999c0 -36 12.667 -65.167 38 -87.5s56.333 -36.5 93 -42.5c47.333 11.333 83.333 29.833 108 55.5zM354 76.001c24.667 12 44.167 28.499 58.5 49.499s21.5 44.167 21.5 69.5
c0 40 -14.167 69.167 -42.5 87.5s-68.5 32.166 -120.5 41.499c-25.333 -1.33301 -49.833 -8 -73.5 -20s-42.834 -28.333 -57.501 -49s-22 -44 -22 -70c0 -23.333 6.83301 -44.666 20.5 -63.999s32.334 -34.666 56.001 -45.999s49.5 -17 77.5 -17c30 0 57.333 6 82 18z" />
    <glyph glyph-name="nine" unicode="9" horiz-adv-x="547" 
d="M443 686.5c32 -17 57.334 -39.9971 76.001 -68.9971s28 -61.167 28 -96.5c0 -38.667 -8.83301 -80.834 -26.5 -126.501s-44.834 -91.167 -81.501 -136.5l-206 -258h-102l212 248c2.66699 4 4 7 4 9c0 3.33301 -1.5 5.66602 -4.5 6.99902s-6.5 0.666016 -10.5 -2.00098
l-44 -23c-12.667 -2.66699 -25 -4 -37 -4c-35.333 0 -67.333 8.16699 -96 24.5s-51.167 38.666 -67.5 66.999s-24.5 59.833 -24.5 94.5c0 53.333 12.333 102.333 37 147s58 79.834 100 105.501s87.667 38.5 137 38.5c38.667 0 74 -8.5 106 -25.5zM239.501 607.503
c-29 -18.333 -51.833 -43.166 -68.5 -74.499s-25 -66 -25 -104c0 -35.333 12.5 -65.166 37.5 -89.499s55.5 -36.5 91.5 -36.5c34.667 0 66.5 9.16699 95.5 27.5s51.833 43.166 68.5 74.499s25 66 25 104c0 35.333 -12.5 65.166 -37.5 89.499s-55.5 36.5 -91.5 36.5
c-34.667 0 -66.5 -9.16699 -95.5 -27.5z" />
    <glyph glyph-name="colon" unicode=":" horiz-adv-x="265" 
d="M79 100h85l-14 -100h-85zM135 500h85l-14 -100h-85z" />
    <glyph glyph-name="semicolon" unicode=";" horiz-adv-x="275" 
d="M-49 -147c40 6.66699 73.333 23.167 100 49.5s43.667 59.5 51 99.5l-57 -2l14 100h105l-12 -88c-8 -56 -30.833 -102 -68.5 -138s-85.5 -57.667 -143.5 -65zM116 500h85l-14 -100h-85z" />
    <glyph glyph-name="less" unicode="&#x3c;" horiz-adv-x="540" 
d="M60 317l11 83l467 192l-11 -80l-372 -145c-4.66699 -2 -7 -5 -7 -9c0 -4.66699 2.33301 -8 7 -10l329 -137l-11 -83z" />
    <glyph glyph-name="equal" unicode="=" horiz-adv-x="540" 
d="M85 500h440l-10 -70h-440zM53 270h440l-10 -70h-440z" />
    <glyph glyph-name="greater" unicode="&#x3e;" horiz-adv-x="540" 
d="M44 211l371 141c6 2 9 5.33301 9 10c0 4 -2.33301 7 -7 9l-330 141l11 80l413 -192l-11 -83l-467 -189z" />
    <glyph glyph-name="question" unicode="?" horiz-adv-x="494" 
d="M127 237c0.666992 12.667 2 24.9971 4 36.9971c4.66699 28.667 14.834 50.667 30.501 66s42.5 31 80.5 47l48 20c34 14.667 59.333 31.5 76 50.5s25 46.5 25 82.5c0 33.333 -12.333 57.333 -37 72s-55.667 22 -93 22c-34 0 -61.833 -3.5 -83.5 -10.5
s-46.5 -18.833 -74.5 -35.5l-19 72c57.333 33.333 117.666 50 180.999 50c58.667 0 107.5 -14.667 146.5 -44s58.5 -72.333 58.5 -129c0 -47.333 -10 -85.166 -30 -113.499s-38.667 -47.166 -56 -56.499s-44.333 -21.666 -81 -36.999l-40 -17
c-18.667 -8 -32.667 -17 -42 -27s-17.333 -25.333 -24 -46l-9 -28h-62c0 4 0.333008 12.333 1 25zM104 89.9971h85l-13 -90h-85z" />
    <glyph glyph-name="at" unicode="@" horiz-adv-x="680" 
d="M54 149c0 87.333 12.665 166.498 37.998 237.498s63.333 127.333 114 169s112.334 62.5 185.001 62.5c74.667 0 130.167 -18.167 166.5 -54.5s54.5 -85.5 54.5 -147.5c0 -11.333 -1.33301 -28.333 -4 -51l-23 -161l57 -29l-33 -70l-91 45
c-20.667 -15.333 -44 -27.166 -70 -35.499s-49.333 -12.5 -70 -12.5c-44 0 -78.5 11 -103.5 33s-37.5 51.667 -37.5 89c0 5.33301 0.666992 13.333 2 24c6 42.667 24.667 75.834 56 99.501s71.333 35.5 120 35.5l119 2c0.666992 4.66699 1 12 1 22
c0 88.667 -48.667 133 -146 133c-56 0 -103.167 -18 -141.5 -54s-66.833 -83.333 -85.5 -142s-28 -122 -28 -190c0.666992 -68 16.5 -117 47.5 -147s74.833 -45 131.5 -45c32.667 0 63.334 4.5 92.001 13.5s57.667 22.5 87 40.5l30 -64c-68.667 -45.333 -139 -68 -211 -68
c-168 0 -253.667 88.333 -257 265zM463.498 189.498c22.333 12.333 38.834 24.501 49.501 36.501l11 87v3c0 4.66699 -1 7.5 -3 8.5s-5.66699 0.833008 -11 -0.5l-59 -11h-36c-29.333 0 -53 -7.33301 -71 -22s-27 -35.334 -27 -62.001c0 -17.333 6 -31.333 18 -42
s28 -16 48 -16c31.333 0 58.166 6.16699 80.499 18.5z" />
    <glyph glyph-name="A" unicode="A" horiz-adv-x="566" 
d="M400 187h-250l-79 -187h-86l265 627h-93l10 73h234l110 -700h-84zM389 261l-40.001 273l-2 89c0 2 -0.666992 3.66699 -2 5s-2.66602 2 -3.99902 2c-4 0 -6.33301 -1.66699 -7 -5l-153 -364h208z" />
    <glyph glyph-name="B" unicode="B" horiz-adv-x="563" 
d="M153 700h193c58.667 0 104.5 -15.5 137.5 -46.5s49.5 -73.167 49.5 -126.5c0 -44.667 -10.167 -82.5 -30.5 -113.5s-48.5 -53.5 -84.5 -67.5c23.333 -9.33301 43.5 -27 60.5 -53s25.5 -55.333 25.5 -88c0 -64.667 -18.667 -115 -56 -151s-90 -54 -158 -54h-235zM343 386
c36 0 63.667 12.5 83 37.5s29 57.167 29 96.5c0 34 -9.16699 60.833 -27.5 80.5s-44.833 29.5 -79.5 29.5h-127l-34 -244h156zM281 70c96 0 143.999 44.667 143.999 134c0 38 -10.667 66.167 -32 84.5s-50.666 27.5 -87.999 27.5h-128l-34 -246h138z" />
    <glyph glyph-name="C" unicode="C" horiz-adv-x="503" 
d="M278 -12c-46 0 -85.167 10.333 -117.5 31s-56.5 48.167 -72.5 82.5s-24 71.833 -24 112.5c0 48 4.66699 101.667 14 161s22 112.333 38 159c16.667 55.333 44.834 98.833 84.501 130.5s91.5 47.5 155.5 47.5c67.333 0 121 -22.667 161 -68l-34 -69
c-14 19.333 -32.333 34.333 -55 45s-49.334 16 -80.001 16c-80 0 -132.667 -41 -158 -123c-14 -41.333 -25.333 -90 -34 -146s-13 -106.667 -13 -152c0 -48 12.5 -85.167 37.5 -111.5s60.167 -39.5 105.5 -39.5c24 0 47.833 5 71.5 15s44.167 22.667 61.5 38l20 -78
c-41.333 -34 -95 -51 -161 -51z" />
    <glyph glyph-name="D" unicode="D" horiz-adv-x="593" 
d="M153 700l186 -0.000976562c74.667 0 130.167 -19.833 166.5 -59.5s54.5 -91.5 54.5 -155.5c0 -10.667 -0.333008 -18.667 -1 -24c-4 -64 -15.333 -142.667 -34 -236c-14 -71.333 -44.5 -126.666 -91.5 -165.999s-109.833 -59 -188.5 -59h-190zM251 71.999
c55.333 0 99.501 15.333 132.501 46s55.833 72.667 68.5 126c7.33301 31.333 14.166 71 20.499 119s9.5 86.333 9.5 115c0 46 -11.833 82.333 -35.5 109s-61.5 40 -113.5 40h-110l-78 -555h106z" />
    <glyph glyph-name="E" unicode="E" horiz-adv-x="553" 
d="M153 700h403l-11 -78h-325l-32 -233h308l-11 -78h-308l-33 -233h325l-11 -78h-403z" />
    <glyph glyph-name="F" unicode="F" horiz-adv-x="522" 
d="M153 700h392l-11 -78h-309l-32 -233h283l-11 -78h-283l-44 -311h-83z" />
    <glyph glyph-name="G" unicode="G" horiz-adv-x="600" 
d="M163 14.5c-33.333 17.667 -59 42.001 -77 73.001s-27 66.5 -27 106.5c0 38 4.5 86.667 13.5 146s19.167 112.666 30.5 159.999c20 80.667 52.333 136.167 97 166.5s103.667 45.5 177 45.5c35.333 0 67.5 -5.5 96.5 -16.5s53.5 -26.5 73.5 -46.5l-33 -68
c-20 19.333 -40.667 33 -62 41s-47 12 -77 12c-53.333 0 -96.666 -11.333 -129.999 -34s-56.333 -65.667 -69 -129c-11.333 -56.667 -20.333 -106.667 -27 -150s-10 -81 -10 -113c0 -44 12 -78.667 36 -104s60 -38 108 -38c20 0 39.667 1.66699 59 5s34 8 44 14l33 226h-81
l11 78h238l-11 -78h-74l-36 -270c-28.667 -18 -57.334 -31.333 -86.001 -40s-62 -13 -100 -13c-44.667 0 -83.667 8.83301 -117 26.5z" />
    <glyph glyph-name="H" unicode="H" horiz-adv-x="620" 
d="M153 700h83l-43 -311h274l43 311h83l-98 -700h-83l44 311h-274l-44 -311h-83z" />
    <glyph glyph-name="I" unicode="I" horiz-adv-x="423" 
d="M26 76h120l77 548h-120l10 76h323l-10 -76h-120l-77 -548h120l-11 -76h-323z" />
    <glyph glyph-name="J" unicode="J" horiz-adv-x="447" 
d="M52.5 5c-29.667 11.333 -53.1631 27 -70.4961 47l25 69c15.333 -19.333 35.166 -33.333 59.499 -42s48.5 -13 72.5 -13c73.333 0 115.666 40 126.999 120l61 436h-160l11 78h242l-74 -528c-8.66699 -60.667 -31.334 -106.5 -68.001 -137.5s-83.334 -46.5 -140.001 -46.5
c-27.333 0 -55.833 5.66699 -85.5 17z" />
    <glyph glyph-name="K" unicode="K" horiz-adv-x="538" 
d="M153 700h82l-44 -312h72l214 312h93l-237 -345l139 -355h-88l-121 313h-82l-44 -313h-82z" />
    <glyph glyph-name="L" unicode="L" horiz-adv-x="452" 
d="M153 700h83l-87 -622h249l-11 -78h-332z" />
    <glyph glyph-name="M" unicode="M" horiz-adv-x="674" 
d="M153 700h69.001l120 -312c2 -6 5.66699 -9 11 -9c4.66699 0 9 3 13 9l210 312h71l-98 -700h-80l59 425l25 91c0.666992 1.33301 1 3 1 5c0 4 -1.66699 6 -5 6c-4.66699 0 -8.33398 -2.33301 -11.001 -7l-173 -255h-50l-103 259c-2 4.66699 -4.33301 7 -7 7
c-4 0 -6.66699 -4.66699 -8 -14l-3 -86l-59 -431h-80z" />
    <glyph glyph-name="N" unicode="N" horiz-adv-x="623" 
d="M153 700l70 0.000976562l213 -549c2.66699 -4.66699 5.33398 -7 8.00098 -7c2 0 3.83301 1.33301 5.5 4s2.5 6.66699 2.5 12l2 95l62 445h80l-98 -700h-82l-203 519c-2 5.33301 -4.66699 8 -8 8c-2.66699 0 -4.83398 -1.33301 -6.50098 -4s-2.5 -6.33398 -2.5 -11.001
l-3 -98l-58 -414h-80z" />
    <glyph glyph-name="O" unicode="O" 
d="M474 681c32.667 -20.667 56.999 -48.167 72.999 -82.5s24 -71.833 24 -112.5c0 -46.667 -4.66699 -99.667 -14 -159s-22 -113 -38 -161c-16 -55.333 -44.167 -98.833 -84.5 -130.5s-92.5 -47.5 -156.5 -47.5c-46 0 -85.167 10.333 -117.5 31s-56.5 48.167 -72.5 82.5
s-24 71.833 -24 112.5c0 48 4.66699 101.667 14 161s22 112.333 38 159c16.667 55.333 44.834 98.833 84.501 130.5s91.5 47.5 155.5 47.5c46 0 85.333 -10.333 118 -31zM454.499 596.5c-25 26.333 -60.5 39.5 -106.5 39.5c-80 0 -132.667 -41 -158 -123
c-14 -41.333 -25.333 -90 -34 -146s-13 -106.667 -13 -152c0 -48 12.5 -85.167 37.5 -111.5s60.167 -39.5 105.5 -39.5c81.333 0 134.333 41 159 123c13.333 42 24.5 91.167 33.5 147.5s13.5 106.5 13.5 150.5c0 48 -12.5 85.167 -37.5 111.5z" />
    <glyph glyph-name="P" unicode="P" horiz-adv-x="553" 
d="M153 700l238 -0.000976562c35.333 0 66 -7.5 92 -22.5s45.667 -35.167 59 -60.5s20 -52.666 20 -81.999c0 -44 -9 -82.833 -27 -116.5s-43.667 -60 -77 -79s-72.333 -28.5 -117 -28.5h-163l-43 -311h-80zM337 383.999c48.667 0 85.5 11.667 110.5 35s37.5 62 37.5 116
c0 30 -10.167 53.333 -30.5 70s-46.833 25 -79.5 25h-152l-34 -246h148z" />
    <glyph glyph-name="Q" unicode="Q" 
d="M340 -7c-22 -3.33301 -44.333 -4.99805 -67 -4.99805c-44.667 0 -82.834 11 -114.501 33s-55.5 51.167 -71.5 87.5s-24 76.5 -24 120.5c0 39.333 5.16699 87.166 15.5 143.499s22.833 110.166 37.5 161.499c16.667 55.333 45 98.833 85 130.5s92.667 47.5 158 47.5
c44.667 0 83 -10.333 115 -31s56.167 -48 72.5 -82s24.5 -70.333 24.5 -109c0 -48.667 -4.66699 -102.834 -14 -162.501s-21.666 -113.5 -36.999 -161.5c-22 -69.333 -56.667 -117.666 -104 -144.999l39 -107l-74 -32zM312.5 69.002
c7.66699 3.33301 11.5 7.99609 11.5 13.9961c0 4.66699 -4 10.334 -12 17.001c-0.666992 0.666992 -3.5 3.33398 -8.5 8.00098s-8.83301 10.667 -11.5 18l-36 97l74 33l59 -162c26 21.333 45.667 52.333 59 93c13.333 41.333 24 89.833 32 145.5s12 106.5 12 152.5
c0 48 -12.5 85.167 -37.5 111.5s-59.5 39.5 -103.5 39.5c-38 0 -70.5 -9.16699 -97.5 -27.5s-48.167 -50.166 -63.5 -95.499c-14 -42.667 -25.333 -91.667 -34 -147s-13 -103.666 -13 -144.999c0 -50 12.5 -88.667 37.5 -116s59.167 -41 102.5 -41
c12 0 21.833 1.66699 29.5 5z" />
    <glyph glyph-name="R" unicode="R" horiz-adv-x="563" 
d="M153 700h238.001c53.333 0 95.166 -16.667 125.499 -50s45.5 -75.333 45.5 -126c0 -49.333 -13.667 -92.333 -41 -129s-65.333 -62 -114 -76c-12.667 -3.33301 -17 -10 -13 -20l31 -72l49 -227h-88l-69 311h-139l-43 -311h-80zM337.001 384c48 0 84.667 11.167 110 33.5
s38 57.833 38 106.5c0 35.333 -10 61.833 -30 79.5s-46.667 26.5 -80 26.5h-152l-34 -246h148z" />
    <glyph glyph-name="S" unicode="S" horiz-adv-x="483" 
d="M80.5 10c-36.333 13.333 -64.168 29.3369 -83.501 48.0039l30 70c20 -19.333 44.667 -34.333 74 -45s58.666 -16 87.999 -16c31.333 0 59.333 7.16699 84 21.5s43.834 33.166 57.501 56.499s20.5 47.666 20.5 72.999c0 24.667 -7.33301 46.167 -22 64.5
s-35.667 32.166 -63 41.499l-40 14c-41.333 14 -74.666 35.333 -99.999 64s-38 64.667 -38 108c0 33.333 9 65.333 27 96s45 55.667 81 75s80 29 132 29c26 0 53.667 -4.33301 83 -13s57 -21 83 -37l-25 -70c-22.667 15.333 -46.667 26.666 -72 33.999
s-48.666 11 -69.999 11c-34.667 0 -63.834 -6 -87.501 -18s-41.334 -27.667 -53.001 -47s-17.5 -39.333 -17.5 -60c0 -22.667 7 -42.167 21 -58.5s33.333 -28.833 58 -37.5l35 -12c50 -17.333 87.333 -41.333 112 -72s37 -70 37 -118c0 -38 -10.333 -74 -31 -108
s-49.5 -61.5 -86.5 -82.5s-78.167 -31.5 -123.5 -31.5c-37.333 0 -74.166 6.66699 -110.499 20z" />
    <glyph glyph-name="T" unicode="T" horiz-adv-x="488" 
d="M254 622h-172l11 78h428l-11 -78h-173l-87 -622h-83z" />
    <glyph glyph-name="U" unicode="U" horiz-adv-x="609" 
d="M131.5 41c-35.667 34 -53.502 81.668 -53.502 143.001c0 10 1.33301 26.333 4 49l66 467h84l-67 -471c-2 -14 -3 -27.333 -3 -40c0 -40.667 10.333 -71.334 31 -92.001s49.334 -31 86.001 -31c40 0 74.333 12.833 103 38.5s45.667 58.5 51 98.5l70 497h84l-71 -501
c-5.33301 -41.333 -19 -77.833 -41 -109.5s-50.167 -56.167 -84.5 -73.5s-72.166 -26 -113.499 -26c-61.333 0 -109.833 17 -145.5 51z" />
    <glyph glyph-name="V" unicode="V" horiz-adv-x="536" 
d="M83 700h84l59 -527l4 -96c0 -6 2 -9 6 -9c3.33301 0 6 2.33301 8 7l249 625h86l-284 -700h-127z" />
    <glyph glyph-name="W" unicode="W" horiz-adv-x="615" 
d="M88 700l73 0.000976562l9 -466l-5 -86v-1c0 -5.33301 2.33301 -8 7 -8c4 0 6.33301 2 7 6l135 355h57l35 -358c0 -2 0.666992 -3.66699 2 -5s2.66602 -2 3.99902 -2c3.33301 0 6 3.33301 8 10l14 75l147 480h72l-207 -700h-85l-33 306
c-1.33301 7.33301 -4.66602 11 -9.99902 11c-2 0 -4 -0.833008 -6 -2.5s-3.33301 -3.83398 -4 -6.50098l-123 -308h-85z" />
    <glyph glyph-name="X" unicode="X" horiz-adv-x="522" 
d="M219 347l-134 353h87l72 -207l17 -71c1.33301 -4 3.33301 -6 6 -6c3.33301 0 6 2 8 6l179 278h96l-225 -334l142 -366h-83l-86 227l-14 68c-0.666992 4 -2.66699 6 -6 6c-2 0 -4.66699 -2 -8 -6l-189 -295h-96z" />
    <glyph glyph-name="Y" unicode="Y" horiz-adv-x="482" 
d="M213 330l-149 370h92l77 -216l15 -77c1.33301 -4 3.33301 -6 6 -6c3.33301 0 6 2 8 6l188 293h96l-253 -370l-47 -330h-80z" />
    <glyph glyph-name="Z" unicode="Z" horiz-adv-x="507" 
d="M17 48l343.999 510l51 60c1.33301 1.33301 2 3.33301 2 6c0 4 -2 6 -6 6h-226l-11 -83h-73l21 153h405l-6 -48l-331 -492l-56 -69c-2.66699 -2.66699 -3.66699 -5.5 -3 -8.5s2.33398 -4.5 5.00098 -4.5h305l-11 -78h-416z" />
    <glyph glyph-name="bracketleft" unicode="[" horiz-adv-x="364" 
d="M172 833h184l-10 -70h-107l-117 -833h107l-10 -70h-184z" />
    <glyph glyph-name="backslash" unicode="\" horiz-adv-x="485" 
d="M94 700h76l244 -700h-78z" />
    <glyph glyph-name="bracketright" unicode="]" horiz-adv-x="364" 
d="M45 -70h107l117 833h-107l10 70h184l-137 -973h-184z" />
    <glyph glyph-name="asciicircum" unicode="^" horiz-adv-x="470" 
d="M257 750h93l103 -400h-81l-58 262l-6 67c-0.666992 6 -3 9 -7 9s-7 -2.66699 -9 -8l-163 -330h-86z" />
    <glyph glyph-name="underscore" unicode="_" horiz-adv-x="548" 
d="M27 -180h374l-10 -70h-374z" />
    <glyph glyph-name="grave" unicode="`" horiz-adv-x="285" 
d="M121 750h83l79 -150h-83z" />
    <glyph glyph-name="a" unicode="a" horiz-adv-x="542" 
d="M412 88l58.001 -27.999l-33 -70l-106 53c-2.66699 1.33301 -4.66699 2 -6 2c-2.66699 0 -5.33398 -1.33301 -8.00098 -4l-14 -15c-26 -15.333 -45.667 -25.166 -59 -29.499s-27.666 -6.5 -42.999 -6.5c-40.667 0 -76.334 12.5 -107.001 37.5s-46 68.5 -46 130.5
c0 81.333 15.667 153.666 47 216.999c20.667 41.333 49.5 74.166 86.5 98.499s78.5 36.5 124.5 36.5c17.333 0 35 -1 53 -3l38 -9l7 -1l9 1l57 6zM255.001 73.001c14.667 6.66699 42.001 22.334 82.001 47.001l43 310c-26.667 6.66699 -49.334 10 -68.001 10
c-36.667 0 -68.334 -9.33301 -95.001 -28s-46.667 -43.334 -60 -74.001c-11.333 -26 -19.666 -53.667 -24.999 -83s-8 -63.333 -8 -102c0 -32 8.33301 -55 25 -69s37.667 -21 63 -21c14 0 28.333 3.33301 43 10z" />
    <glyph glyph-name="b" unicode="b" horiz-adv-x="519" 
d="M161 -7l-38.001 8.99902c-1.33301 0.666992 -3.66602 1 -6.99902 1s-6.33301 -0.333008 -9 -1l-57 -6l105 754h75l-36 -272v-4c0 -6.66699 2.66699 -10 8 -10c2.66699 0 5.66699 1 9 3l68 37c14 4 28.667 6 44 6c45.333 0 81.5 -13.667 108.5 -41s40.5 -68 40.5 -122
c0 -84.667 -15.667 -158.667 -47 -222c-20.667 -41.333 -49.5 -74.166 -86.5 -98.499s-78.5 -36.5 -124.5 -36.5c-20 0 -37.667 1 -53 3zM300.999 86.499c26.667 17.667 47.333 42.832 62 75.499c22 52.667 33 111.334 33 176.001c0 36 -8.5 61.5 -25.5 76.5
s-36.167 22.5 -57.5 22.5c-18 0 -37 -4.16699 -57 -12.5s-44.667 -22.5 -74 -42.5l-43 -312c24 -6.66699 47 -10 69 -10c35.333 0 66.333 8.83301 93 26.5z" />
    <glyph glyph-name="c" unicode="c" horiz-adv-x="450" 
d="M130.5 13.5c-26.333 15.667 -46.501 36.665 -60.501 62.998s-21 54.833 -21 85.5c0 56.667 7.33301 111 22 163c15.333 54 42.5 98.333 81.5 133s84.5 52 136.5 52c26.667 0 51.334 -3.83301 74.001 -11.5s45.667 -19.167 69 -34.5l-29 -63
c-20.667 12.667 -39.834 22 -57.501 28s-37.167 9 -58.5 9c-36 0 -66.333 -12.167 -91 -36.5s-42.667 -57.166 -54 -98.499s-17 -80.333 -17 -117c0 -36 8.5 -66 25.5 -90s42.833 -36 77.5 -36c18 0 34.833 3.83301 50.5 11.5s37.5 23.834 65.5 48.501l60 -29
c-33.333 -38.667 -64.5 -65.167 -93.5 -79.5s-58.167 -21.5 -87.5 -21.5c-35.333 0 -66.166 7.83301 -92.499 23.5z" />
    <glyph glyph-name="d" unicode="d" horiz-adv-x="542" 
d="M470 504l-57.999 -415.999l58 -28l-33 -70l-106 53c-2.66699 1.33301 -4.66699 2 -6 2c-2.66699 0 -5.33398 -1.33301 -8.00098 -4l-14 -15c-26 -15.333 -45.667 -25.166 -59 -29.499s-27.666 -6.5 -42.999 -6.5c-40.667 0 -76.334 12.5 -107.001 37.5
s-46 68.5 -46 130.5c0 81.333 15.667 153.666 47 216.999c20.667 41.333 49.5 74.166 86.5 98.499s78.5 36.5 124.5 36.5c17.333 0 35 -1 53 -3l29 -7l37 250h80zM255.001 73.001c14.667 6.66699 42.001 22.334 82.001 47.001l43 310c-26.667 6.66699 -49.334 10 -68.001 10
c-36.667 0 -68.334 -9.33301 -95.001 -28s-46.667 -43.334 -60 -74.001c-11.333 -26 -19.666 -53.667 -24.999 -83s-8 -63.333 -8 -102c0 -32 8.33301 -55 25 -69s37.667 -21 63 -21c14 0 28.333 3.33301 43 10z" />
    <glyph glyph-name="e" unicode="e" horiz-adv-x="482" 
d="M412 464.5c25.333 -30.333 38.001 -70.167 38.001 -119.5c0 -22.667 -2.66699 -46.667 -8 -72l-28 -40h-287c-1.33301 -14.667 -2 -28.667 -2 -42c-1.33301 -42 7.16699 -74.333 25.5 -97s45.166 -34 80.499 -34c21.333 0 39.5 4.16699 54.5 12.5
s34.833 24.166 59.5 47.499l60 -29c-31.333 -36.667 -61.333 -62.667 -90 -78s-58 -23 -88 -23c-38 0 -70.333 8 -97 24s-46.667 37.5 -60 64.5s-20 56.5 -20 88.5c0 52.667 5.66699 101 17 145c15.333 60.667 43.833 108.834 85.5 144.501s88.167 53.5 139.5 53.5
c54.667 0 94.667 -15.167 120 -45.5zM375.001 350.999c0 29.333 -7.33105 51.5 -21.998 66.5s-35.334 22.5 -62.001 22.5c-32 0 -61.833 -11.667 -89.5 -35s-47.834 -57.333 -60.501 -102h228c4 18 6 34 6 48z" />
    <glyph glyph-name="f" unicode="f" horiz-adv-x="345" 
d="M127 430h-102.002l10 70h102l12 84c6.66699 50 26.334 90.667 59.001 122s78.334 47 137.001 47c18 0 34.833 -1.66699 50.5 -5s32.5 -9.33301 50.5 -18l-26 -64c-26.667 10 -52.667 15 -78 15c-32 0 -58.667 -10.167 -80 -30.5s-34.333 -49.5 -39 -87.5l-9 -63h131
l-10 -70h-131l-60 -430h-77z" />
    <glyph glyph-name="g" unicode="g" horiz-adv-x="514" 
d="M64.5 -187.5c-28.333 11 -50.1689 24.1699 -65.502 39.5029l26 70c16 -17.333 36 -31 60 -41s51 -15 81 -15c39.333 0 73 11 101 33s45.667 52 53 90l6 33v4c0 6.66699 -2.66699 10 -8 10c-2.66699 0 -5.66699 -1 -9 -3l-68 -37c-14 -4 -28.667 -6 -44 -6
c-40.667 0 -75.667 12.167 -105 36.5s-44 68.166 -44 131.499c0 81.333 15.667 153.666 47 216.999c20.667 41.333 49.5 74.166 86.5 98.499s78.5 36.5 124.5 36.5c20.667 0 38.334 -1 53.001 -3l38 -9l7 -1l9 1l57 6l-74 -487c-12 -76 -39.667 -131.833 -83 -167.5
s-97.333 -53.5 -162 -53.5c-29.333 0 -58.166 5.5 -86.499 16.5zM250.997 76.0029c20.667 8.66699 50.334 24.001 89.001 46.001l41 308c-24 6.66699 -47 10 -69 10c-35.333 0 -66.333 -8.83301 -93 -26.5s-47.334 -42.834 -62.001 -75.501
c-11.333 -26 -19.666 -53.667 -24.999 -83s-8 -63.333 -8 -102c0 -34 7.66699 -57.5 23 -70.5s33.666 -19.5 54.999 -19.5c12 0 28.333 4.33301 49 13z" />
    <glyph glyph-name="h" unicode="h" horiz-adv-x="537" 
d="M431.5 472.5c25.667 -25 38.499 -57.833 38.499 -98.5c0 -4.66699 -0.666992 -13 -2 -25l-46 -349h-80l47 355c0.666992 4 1 9.33301 1 16c0 22 -6 38.5 -18 49.5s-28.667 16.5 -50 16.5c-20 0 -39.5 -3.16699 -58.5 -9.5s-45.5 -19.833 -79.5 -40.5l-54 -387h-80
l105 750h80l-40 -286c28.667 18 52.334 30.167 71.001 36.5s41 9.5 67 9.5c40 0 72.833 -12.5 98.5 -37.5z" />
    <glyph glyph-name="i" unicode="i" horiz-adv-x="255" 
d="M153 700h80l-14 -100h-80zM115 430h-70l10 70h150l-70 -500h-80z" />
    <glyph glyph-name="j" unicode="j" horiz-adv-x="286" 
d="M183 700h80l-14 -100h-80zM-47 -153c34.667 9.33301 64 27.333 88 54s39 62 45 106l59 423h-70l10 70h151l-71 -497c-9.33301 -61.333 -29.833 -110 -61.5 -146s-74.167 -62.667 -127.5 -80z" />
    <glyph glyph-name="k" unicode="k" horiz-adv-x="487" 
d="M155 750h82l-62 -441h54l134 191h96l-149 -215l101 -285h-88l-82 239h-76l-33 -239h-82z" />
    <glyph glyph-name="l" unicode="l" horiz-adv-x="275" 
d="M91.5 25c-18.333 16.667 -27.501 39.001 -27.501 67.001c0 8 0.333008 14 1 18l90 640h80l-90 -644c-0.666992 -2 -1 -5 -1 -9c0 -8.66699 2.5 -15.334 7.5 -20.001s11.833 -7 20.5 -7h43l-10 -70h-39c-31.333 -0 -56.166 8.33301 -74.499 25z" />
    <glyph glyph-name="m" unicode="m" horiz-adv-x="827" 
d="M725 471.5c24 -25.667 36 -58.5 36 -98.5c0 -5.33301 -0.666992 -14 -2 -26l-47 -347h-80l47 351c0.666992 4.66699 1 11.334 1 20.001c0 44 -22.667 66 -68 66c-20.667 0 -40.5 -3.33301 -59.5 -10s-45.167 -20 -78.5 -40l-52 -387h-80l47 354
c0.666992 4 1 9.66699 1 17c0 21.333 -5.83301 37.666 -17.5 48.999s-27.834 17 -48.501 17s-40.167 -3.16699 -58.5 -9.5s-45.166 -19.5 -80.499 -39.5l-55 -388h-80l57 412l-57 28l33 70l101 -49c2.66699 -1.33301 5 -2 7 -2c2.66699 0 5.33398 1.33301 8.00098 4l12 12
c21.333 12.667 41.166 21.667 59.499 27s37.833 8 58.5 8c26.667 0 50.5 -5.5 71.5 -16.5s37.5 -24.833 49.5 -41.5c2 -3.33301 5 -5 9 -5c3.33301 0 6.33301 1.33301 9 4l12 12c30 18 54.667 30.333 74 37s42.333 10 69 10c44 0 78 -12.833 102 -38.5z" />
    <glyph glyph-name="n" unicode="n" horiz-adv-x="547" 
d="M442.5 472.5c25 -25 37.499 -58.833 37.499 -101.5c0 -6 -0.666992 -16.333 -2 -31l-46 -340h-80l46 344c1.33301 12 2 20 2 24c0 46 -23 69 -69 69c-20.667 0 -40 -3.16699 -58 -9.5s-44 -19.833 -78 -40.5l-55 -387h-80l57 412l-57 28l33 70l101 -49
c2.66699 -1.33301 5 -2 7 -2c2.66699 0 5.33398 1.33301 8.00098 4l12 12c20.667 12.667 39.5 21.667 56.5 27s36.167 8 57.5 8c46.667 0 82.5 -12.5 107.5 -37.5z" />
    <glyph glyph-name="o" unicode="o" horiz-adv-x="510" 
d="M128 14.5c-26 17 -45.501 39.5 -58.501 67.5s-19.5 58.333 -19.5 91c0 30.667 3 64.667 9 102s14 68.666 24 93.999c17.333 45.333 43.833 80.333 79.5 105s76.834 37 123.501 37c38 0 70 -8.5 96 -25.5s45.5 -39.5 58.5 -67.5s19.5 -58.333 19.5 -91
c0 -30.667 -3 -64.667 -9 -102s-14 -68.666 -24 -93.999c-17.333 -45.333 -44 -80.333 -80 -105s-77.333 -37 -124 -37c-37.333 0 -69 8.5 -95 25.5zM306.499 84c20.333 16 36.832 39.666 49.499 70.999c8 18 14.667 44 20 78s8 64 8 90c0 33.333 -8.5 61.166 -25.5 83.499
s-42.833 33.5 -77.5 33.5c-31.333 0 -57.166 -8 -77.499 -24s-36.833 -39.667 -49.5 -71c-8 -20 -14.667 -46.167 -20 -78.5s-8 -62.166 -8 -89.499c0 -33.333 8.5 -61.166 25.5 -83.499s42.5 -33.5 76.5 -33.5c32 0 58.167 8 78.5 24z" />
    <glyph glyph-name="p" unicode="p" horiz-adv-x="530" 
d="M60 -4l58 415.999l-58 28l33 70l101 -49c2.66699 -1.33301 4.66699 -2 6 -2c3.33301 0 6.33301 1.33301 9 4l13 13c24 13.333 44 22.333 60 27s35 7 57 7c39.333 0 73 -12.333 101 -37s42 -69 42 -133c0 -80 -15.667 -151.667 -47 -215
c-20.667 -41.333 -49.5 -74.166 -86.5 -98.499s-78.5 -36.5 -124.5 -36.5c-17.333 0 -35 1 -53 3l-29 7l-30 -200h-80zM313 87.999c26.667 18.667 46.665 43.333 59.998 74c22 52.667 33 111 33 175c0 66.667 -27 100 -81 100c-18 0 -37 -4 -57 -12s-44.667 -21.333 -74 -40
l-44 -315c26.667 -6.66699 49.334 -10 68.001 -10c36.667 0 68.334 9.33301 95.001 28z" />
    <glyph glyph-name="q" unicode="q" horiz-adv-x="520" 
d="M326 22l-0.000976562 4.00293c0 6.66699 -2.66699 10 -8 10c-2.66699 0 -5.66699 -1 -9 -3l-68 -37c-14 -4 -28.667 -6 -44 -6c-44.667 0 -80.667 11.667 -108 35s-41 67.666 -41 132.999c0 81.333 15.667 153.666 47 216.999c20.667 41.333 49.5 74.166 86.5 98.499
s78.5 36.5 124.5 36.5c20.667 0 38.334 -1 53.001 -3l38 -9l7 -1l9 1l57 6l-98 -704h-75zM250.999 76.0029c20.667 8.66699 50.334 24.001 89.001 46.001l41 308c-24 6.66699 -47 10 -69 10c-35.333 0 -66.333 -8.83301 -93 -26.5s-47.334 -42.834 -62.001 -75.501
c-11.333 -26 -19.666 -53.667 -24.999 -83s-8 -63.333 -8 -102c0 -34 7.66699 -57.5 23 -70.5s33.666 -19.5 54.999 -19.5c12 0 28.333 4.33301 49 13z" />
    <glyph glyph-name="r" unicode="r" horiz-adv-x="407" 
d="M420 496l-30.001 -73.001c-14 5.33301 -28.667 8 -44 8c-24 0 -46.167 -3.16699 -66.5 -9.5s-48.833 -20.166 -85.5 -41.499l-54 -380h-80l57 412l-57 28l33 70l101 -49c2.66699 -1.33301 5 -2 7 -2c2.66699 0 5.33398 1.33301 8.00098 4l12 12
c26 12.667 48 21.667 66 27s38 8 60 8c26 0 50.333 -4.66699 73 -14z" />
    <glyph glyph-name="s" unicode="s" horiz-adv-x="452" 
d="M104.5 4c-33 10.667 -58.499 23.999 -76.499 39.999l26 70c18 -17.333 40.667 -30.666 68 -39.999s56.333 -14 87 -14c31.333 0 56.5 7.16699 75.5 21.5s28.5 33.5 28.5 57.5c0 20.667 -5 37.167 -15 49.5s-26.333 22.5 -49 30.5l-49 18
c-40.667 14.667 -71 32.167 -91 52.5s-30 46.166 -30 77.499c0 42.667 16.167 77.5 48.5 104.5s73.833 40.5 124.5 40.5c30 0 59 -3.83301 87 -11.5s53.333 -18.5 76 -32.5l-25 -64c-41.333 23.333 -87.666 35 -138.999 35c-28.667 0 -51.834 -6 -69.501 -18
s-26.5 -28.333 -26.5 -49c0 -16.667 4.66699 -29.667 14 -39s24.666 -18 45.999 -26l49 -18c41.333 -15.333 72.333 -34.166 93 -56.499s31 -50.833 31 -85.5c0 -30.667 -7.5 -58 -22.5 -82s-36 -42.833 -63 -56.5s-57.5 -20.5 -91.5 -20.5c-38 0 -73.5 5.33301 -106.5 16z
" />
    <glyph glyph-name="t" unicode="t" horiz-adv-x="330" 
d="M93.5 25c-18.333 16.667 -27.501 39.001 -27.501 67.001c0 8 0.333008 14 1 18l45 320h-87l10 70h74c6.66699 0 12 2.33301 16 7s9 14.5 15 29.5s15 41.167 27 78.5l5 15h48l-18 -130h123l-10 -70h-123l-45 -324c-0.666992 -2 -1 -5 -1 -9
c0 -8.66699 2.5 -15.334 7.5 -20.001s11.833 -7 20.5 -7h91l-10 -70h-87c-31.333 -0 -56.166 8.33301 -74.499 25z" />
    <glyph glyph-name="u" unicode="u" horiz-adv-x="520" 
d="M86 23.5c-24.667 23 -37 54.168 -37 93.501c0 5.33301 0.666992 14.666 2 27.999l47 355h80l-47 -361c-0.666992 -3.33301 -1 -8 -1 -14c0 -21.333 6.33301 -37 19 -47s30.334 -15 53.001 -15c12 0 27 3.83301 45 11.5s49.333 24.167 94 49.5l49 376h80l-71 -500h-75
l4 25v4c0 6 -2.66699 9 -8 9c-4 0 -7 -0.666992 -9 -2l-73 -40c-18.667 -4.66699 -35.334 -7 -50.001 -7c-43.333 0 -77.333 11.5 -102 34.5z" />
    <glyph glyph-name="v" unicode="v" horiz-adv-x="470" 
d="M64 500h81l50 -340l2 -87c0 -4 1.66699 -6 5 -6c2.66699 0 5 2 7 6l182 427h85l-221 -500h-113z" />
    <glyph glyph-name="w" unicode="w" horiz-adv-x="580" 
d="M75 500h72l5 -280l-4 -72v-2c0 -4.66699 1.66699 -7 5 -7s6.33301 3 9 9l134 352h57l33 -352c0 -6 2.33301 -9 7 -9c3.33301 0 6 3 8 9l16 72l87 280h71l-150 -497h-77l-36 328c-0.666992 8 -3 12 -7 12s-7.66699 -4 -11 -12l-131 -328h-79z" />
    <glyph glyph-name="x" unicode="x" horiz-adv-x="472" 
d="M188 250l-122 250h92l57 -131l16 -63c1.33301 -3.33301 3.33301 -5 6 -5c3.33301 0 6 1.66699 8 5l137 194h96l-192 -250l120 -250h-92l-52 124l-19 70c-0.666992 3.33301 -2.66699 5 -6 5s-6.33301 -1.66699 -9 -5l-138 -194h-96z" />
    <glyph glyph-name="y" unicode="y" horiz-adv-x="470" 
d="M15 -155c34.667 14 62.001 30.1689 82.001 48.502s38 44.166 54 77.499l20 41l-115 488h82l64 -269l8 -98c1.33301 -5.33301 3.33301 -8 6 -8c4 0 7 2.66699 9 8l165 367h85l-255 -550c-20 -44 -44.833 -79.833 -74.5 -107.5s-65.834 -48.834 -108.501 -63.501z" />
    <glyph glyph-name="z" unicode="z" horiz-adv-x="437" 
d="M2 48l257 332.999l40 38c2.66699 2.66699 3.66699 5.16699 3 7.5s-2.66699 3.5 -6 3.5h-240l10 70h345l-6 -48l-257 -333l-40 -38c-2 -2 -3 -3.66699 -3 -5s0.666992 -2.66602 2 -3.99902s3 -2 5 -2h239l-10 -70h-345z" />
    <glyph glyph-name="braceleft" unicode="{" horiz-adv-x="477" 
d="M193 -110c-22 19.333 -33.001 48.666 -33.001 87.999c0 11.333 1 23 3 35l30 215c1.33301 8 2 14 2 18c0 18.667 -5.66699 33.334 -17 44.001s-27.666 16.667 -48.999 18l-31 1l11 74l27 1c24 1.33301 44.333 9.5 61 24.5s26.667 34.833 30 59.5l30 215
c14 98.667 67 148 159 148h53l-10 -67h-48c-24 0 -42.333 -7.16699 -55 -21.5s-21 -35.5 -25 -63.5l-30 -215c-4 -26 -8.16699 -44.833 -12.5 -56.5s-10.833 -22.834 -19.5 -33.501l-55 -19c-4.66699 -2 -7 -5 -7 -9s2 -7 6 -9l44 -25
c8.66699 -15.333 13 -32.666 13 -51.999c0 -10.667 -1 -22.667 -3 -36l-30 -215c-1.33301 -13.333 -2 -22.333 -2 -27c0 -18 4.16699 -31.5 12.5 -40.5s22.5 -13.5 42.5 -13.5h52l-10 -67h-47c-39.333 0 -70 9.66699 -92 29z" />
    <glyph glyph-name="bar" unicode="|" horiz-adv-x="300" 
d="M194 850h80l-140 -1000h-80z" />
    <glyph glyph-name="braceright" unicode="}" horiz-adv-x="477" 
d="M45 -72l48 -0.000976562c24 0 42.333 7.16699 55 21.5s21 35.5 25 63.5l30 215c4 25.333 8.33301 44.5 13 57.5s10 23.167 16 30.5l58 23c4 2 6 5 6 9s-2 7 -6 9l-47 25l-5 15c-2.66699 8 -4 18.333 -4 31c0 10 1 23.333 3 40l30 215c1.33301 13.333 2 22.333 2 27
c0 18 -4.16699 31.5 -12.5 40.5s-22.5 13.5 -42.5 13.5h-52l10 67h47c39.333 0 70 -9.66699 92 -29s33 -48.666 33 -87.999c0 -11.333 -1 -23 -3 -35l-30 -215c-0.666992 -4 -1 -9.66699 -1 -17c0 -19.333 5.5 -34.333 16.5 -45s27.167 -16.667 48.5 -18l31 -1l-11 -74
l-27 -1c-24 -1.33301 -44.333 -9.5 -61 -24.5s-26.667 -34.833 -30 -59.5l-30 -215c-14 -98.667 -67 -148 -159 -148h-53z" />
    <glyph glyph-name="asciitilde" unicode="~" horiz-adv-x="600" 
d="M396 189c-24.667 0 -45.1641 2.66699 -61.4971 8s-33.833 13 -52.5 23c-16 8.66699 -29.5 15 -40.5 19s-23.833 6 -38.5 6c-19.333 0 -38.333 -3.66699 -57 -11s-35.334 -17.333 -50.001 -30v77c35.333 20.667 72.666 31 111.999 31c24.667 0 45 -2.66699 61 -8
s33.333 -13 52 -23c16 -8.66699 29.5 -15 40.5 -19s24.167 -6 39.5 -6c19.333 0 38.166 3.66699 56.499 11s34.833 17 49.5 29v-76c-34.667 -20.667 -71.667 -31 -111 -31z" />
    <glyph glyph-name="uni00A0" unicode="&#xa0;" horiz-adv-x="260" 
 />
    <glyph glyph-name="exclamdown" unicode="&#xa1;" horiz-adv-x="255" 
d="M192 405h-85l13 95h85zM107 -200h-85l82 490h59z" />
    <glyph glyph-name="cent" unicode="&#xa2;" horiz-adv-x="441" 
d="M278.5 71.5c15.667 7.66699 37.498 23.8311 65.498 48.498l60 -29c-30 -34.667 -58.167 -59.5 -84.5 -74.5s-52.5 -23.5 -78.5 -25.5l-14 -103h-80l16 111c-35.333 12 -63.166 33 -83.499 63s-30.5 63.667 -30.5 101c0 52 7.33301 106 22 162
c12.667 44 33.334 81.833 62.001 113.5s62.334 52.834 101.001 63.501l15 110h80l-15 -103c40.667 -4.66699 80 -19.667 118 -45l-29 -63c-20.667 12.667 -39.834 22 -57.501 28s-37.167 9 -58.5 9c-36 0 -66.333 -12.167 -91 -36.5s-42.667 -57.166 -54 -98.499
s-17 -80.333 -17 -117c0 -36 8.5 -66 25.5 -90s42.833 -36 77.5 -36c18 0 34.833 3.83301 50.5 11.5z" />
    <glyph glyph-name="sterling" unicode="&#xa3;" horiz-adv-x="557" 
d="M33 71c56.667 17.333 90.999 70.001 102.999 158.001l12 88h-79l10 70h79l22 156c7.33301 48.667 29.333 89 66 121s87.334 48 152.001 48c30.667 0 58.5 -5 83.5 -15s45.5 -23.333 61.5 -40l-39 -56c-25.333 28 -59.666 42 -102.999 42c-40 0 -72.833 -9 -98.5 -27
s-40.834 -42.667 -45.501 -74l-22 -155h267l-10 -70h-267l-13 -92c-8 -60.667 -25.667 -106.334 -53 -137.001c-3.33301 -3.33301 -5 -7 -5 -11c0 -4.66699 2.66699 -7 8 -7h296l-10 -70h-423z" />
    <glyph glyph-name="yen" unicode="&#xa5;" horiz-adv-x="602" 
d="M473 500h87l-10 -70h-125l-68 -100l-9 -60h180l-10 -70h-180l-28 -200h-80l28 200h-180l10 70h180l9 60l-40 100h-127l10 70h89l-81 200h92l77 -216l15 -77c1.33301 -4 3.33301 -6 6 -6c3.33301 0 6 2 8 6l188 293h96z" />
    <glyph glyph-name="section" unicode="&#xa7;" horiz-adv-x="497" 
d="M125 3.5c-32.667 10.333 -60.3359 24.167 -83.0029 41.5l26 70c14.667 -16.667 37.334 -30 68.001 -40s60.334 -15 89.001 -15c31.333 0 56.166 7.83301 74.499 23.5s27.5 36.167 27.5 61.5c0 33.333 -21.667 58.333 -65 75l-60 23c-35.333 14 -62.333 30.833 -81 50.5
s-28 44.5 -28 74.5c0 28 8 53.833 24 77.5s40 41.5 72 53.5c-16 8.66699 -29.5 21 -40.5 37s-16.5 36 -16.5 60c0 24.667 7 47.667 21 69s34.333 38.5 61 51.5s57.334 19.5 92.001 19.5c28.667 0 57.834 -4.16699 87.501 -12.5s54.5 -19.166 74.5 -32.499l-25 -63
c-15.333 9.33301 -36 17.5 -62 24.5s-51.333 10.5 -76 10.5c-64.667 0 -97 -24.333 -97 -73c0 -16 7.16699 -29.5 21.5 -40.5s33.5 -20.833 57.5 -29.5l57 -21c30 -10.667 53.667 -27 71 -49s26 -50 26 -84c0 -23.333 -5.83301 -46.333 -17.5 -69
s-30.834 -42.334 -57.501 -59.001c8.66699 -7.33301 16.834 -19 24.501 -35s11.5 -34 11.5 -54c0 -28 -7 -54.333 -21 -79s-34.333 -44.5 -61 -59.5s-58.667 -22.5 -96 -22.5c-33.333 0 -66.333 5.16699 -99 15.5zM346.498 315.501c13 16.333 19.5 35.167 19.5 56.5
c0 25.333 -12.833 44.833 -38.5 58.5s-51.834 20.5 -78.501 20.5c-26 0 -45.833 -7.83301 -59.5 -23.5s-20.5 -33.5 -20.5 -53.5c0 -18.667 7.66699 -34.167 23 -46.5s32.833 -21.5 52.5 -27.5s35.834 -9 48.501 -9c22.667 0 40.5 8.16699 53.5 24.5z" />
    <glyph glyph-name="dieresis" unicode="&#xa8;" horiz-adv-x="372" 
d="M113 700h81l-14 -100h-81zM284 700h81l-14 -100h-81z" />
    <glyph glyph-name="copyright" unicode="&#xa9;" horiz-adv-x="966" 
d="M259 -20c-54.667 30.667 -97.834 72.5 -129.501 125.5s-48.167 112.5 -49.5 178.5c0 87.333 21.167 167.333 63.5 240s99.5 130.167 171.5 172.5s150.333 63.5 235 63.5c69.333 0 131.833 -16 187.5 -48s99 -75.833 130 -131.5s46.167 -117.5 45.5 -185.5
c0 -82 -21.333 -158.333 -64 -229s-100.167 -127 -172.5 -169s-150.166 -63 -233.499 -63c-68 0 -129.333 15.333 -184 46zM643.5 60c61 34.667 108.999 82 143.999 142s52.167 126 51.5 198c0 53.333 -12.5 101.833 -37.5 145.5s-59.5 78 -103.5 103
s-93.667 37.5 -149 37.5c-70 0.666992 -135.333 -16.333 -196 -51s-109 -81.167 -145 -139.5s-54 -120.5 -54 -186.5l1 -21c0.666992 -52 13.667 -99.333 39 -142s59.833 -76.167 103.5 -100.5s92.834 -36.5 147.501 -36.5c71.333 -0.666992 137.5 16.333 198.5 51z
M369.499 109.5c-26.333 15.667 -46.501 36.665 -60.501 62.998s-21 54.833 -21 85.5c0 56.667 7.33301 111 22 163c15.333 54 42.5 98.333 81.5 133s84.5 52 136.5 52c26.667 0 51.334 -3.83301 74.001 -11.5s45.667 -19.167 69 -34.5l-29 -63
c-20.667 12.667 -39.834 22 -57.501 28s-37.167 9 -58.5 9c-36 0 -66.333 -12.167 -91 -36.5s-42.667 -57.166 -54 -98.499s-17 -80.333 -17 -117c0 -36 8.5 -66 25.5 -90s42.833 -36 77.5 -36c18 0 34.833 3.83301 50.5 11.5s37.5 23.834 65.5 48.501l60 -29
c-33.333 -38.667 -64.5 -65.167 -93.5 -79.5s-58.167 -21.5 -87.5 -21.5c-35.333 0 -66.166 7.83301 -92.499 23.5z" />
    <glyph glyph-name="ordfeminine" unicode="&#xaa;" horiz-adv-x="443" 
d="M369 445l49.002 -24l-28 -58l-94 44c-0.666992 0.666992 -2 1 -4 1c-3.33301 0 -6 -1 -8 -3l-16 -18c-18.667 -10.667 -33.667 -17.667 -45 -21s-24 -5 -38 -5c-34.667 0 -65.834 10.667 -93.501 32s-41.5 58 -41.5 110c0 64 14.667 124.333 44 181
c18 34 43 61.167 75 81.5s67.333 30.5 106 30.5c9.33301 0 24 -0.666992 44 -2l38 -8c3.33301 -0.666992 7.66602 -0.666992 12.999 0l48 5zM304.002 476l33 248c-21.333 5.33301 -40.333 8 -57 8c-31.333 0 -58 -7 -80 -21s-38.333 -33.333 -49 -58s-18.667 -48 -24 -70
s-8 -48 -8 -78c0 -26 7.66699 -45 23 -57s32.666 -18 51.999 -18c30.667 0 67.334 15.333 110.001 46z" />
    <glyph glyph-name="guillemotleft" unicode="&#xab;" horiz-adv-x="485" 
d="M223 196l7 60l136 145h91l-169 -179c-2.66699 -2.66699 -4 -6 -4 -10s1.33301 -7 4 -9l27 -19l90 -132h-86zM33 196l7 60l136 145h91l-169 -179c-2.66699 -2.66699 -4 -6 -4 -10s1.33301 -7 4 -9l27 -19l90 -132h-86z" />
    <glyph glyph-name="logicalnot" unicode="&#xac;" horiz-adv-x="580" 
d="M449 315h-370l10 70h440l-39 -275h-70z" />
    <glyph glyph-name="registered" unicode="&#xae;" horiz-adv-x="966" 
d="M259 -20c-54.667 30.667 -97.834 72.5 -129.501 125.5s-48.167 112.5 -49.5 178.5c0 87.333 21.167 167.333 63.5 240s99.5 130.167 171.5 172.5s150.333 63.5 235 63.5c69.333 0 131.833 -16 187.5 -48s99 -75.833 130 -131.5s46.167 -117.5 45.5 -185.5
c0 -82 -21.333 -158.333 -64 -229s-100.167 -127 -172.5 -169s-150.166 -63 -233.499 -63c-68 0 -129.333 15.333 -184 46zM643.5 60c61 34.667 108.999 82 143.999 142s52.167 126 51.5 198c0 53.333 -12.5 101.833 -37.5 145.5s-59.5 78 -103.5 103
s-93.667 37.5 -149 37.5c-70 0.666992 -135.333 -16.333 -196 -51s-109 -81.167 -145 -139.5s-54 -120.5 -54 -186.5l1 -21c0.666992 -52 13.667 -99.333 39 -142s59.833 -76.167 103.5 -100.5s92.834 -36.5 147.501 -36.5c71.333 -0.666992 137.5 16.333 198.5 51z
M380.999 597h168c44.667 0 80.167 -11.333 106.5 -34s39.5 -52.334 39.5 -89.001c0 -33.333 -10.667 -64.333 -32 -93s-48 -47.334 -80 -56.001c-4.66699 -1.33301 -8 -3.16602 -10 -5.49902s-2 -5.16602 0 -8.49902l16 -32l54 -182h-81l-59 213h-87l-30 -213h-76z
M507.999 381c28 0 51.498 6.83203 70.498 20.499s28.5 35.5 28.5 65.5c0.666992 20.667 -5.16602 35.334 -17.499 44.001s-31.166 13 -56.499 13h-86l-21 -143h82z" />
    <glyph glyph-name="macron" unicode="&#xaf;" horiz-adv-x="350" 
d="M109 670h250l-8 -60h-250z" />
    <glyph glyph-name="degree" unicode="&#xb0;" horiz-adv-x="482" 
d="M170 446c-26 20.667 -39 54 -39 100c0 62.667 15.167 114 45.5 154s74.5 60 132.5 60c38.667 0 71.167 -10.5 97.5 -31.5s39.5 -53.833 39.5 -98.5c0 -61.333 -15.333 -112.5 -46 -153.5s-74 -61.5 -130 -61.5c-40.667 0 -74 10.333 -100 31zM347.5 522
c16.333 28 24.499 63.001 24.499 105.001c0 25.333 -5.66699 43 -17 53s-27.333 15 -48 15c-36 0 -62 -13.833 -78 -41.5s-24 -62.834 -24 -105.501c0.666992 -26 6.33398 -43.833 17.001 -53.5s26 -14.5 46 -14.5c36.667 0 63.167 14 79.5 42z" />
    <glyph glyph-name="plusminus" unicode="&#xb1;" horiz-adv-x="620" 
d="M284 315h-205l10 70h205l25 175h70l-25 -175h205l-10 -70h-205l-24 -175h-70zM65 70h440l-10 -70h-440z" />
    <glyph glyph-name="uni00B2" unicode="&#xb2;" horiz-adv-x="409" 
d="M77 426c4.66699 28.667 17.332 52.332 37.999 70.999s53.334 38.667 98.001 60l41 20c31.333 15.333 54.333 31 69 47s22 34 22 54c0 21.333 -7.66699 37.666 -23 48.999s-36.333 17 -63 17c-44.667 0 -84 -10.333 -118 -31l-19 63c24.667 14 47.667 23.333 69 28
s45.333 7 72 7c43.333 0 80 -10.833 110 -32.5s45 -55.167 45 -100.5c0 -32.667 -9.83301 -61 -29.5 -85s-53.5 -48 -101.5 -72l-42 -21c-34.667 -17.333 -58.167 -30.666 -70.5 -39.999s-19.833 -19.666 -22.5 -30.999l-2 -9h232l-10 -70h-307z" />
    <glyph glyph-name="uni00B3" unicode="&#xb3;" horiz-adv-x="390" 
d="M127.5 355c-23.667 7.33301 -45.833 20.002 -66.5 38.002l31 60c27.333 -27.333 65 -41 113 -41c35.333 0 63.333 7 84 21s31 34.333 31 61c-0.666992 16 -7.83398 28.333 -21.501 37s-33.167 13 -58.5 13h-68l10 66h63c28 0 50.667 7 68 21s26 32 26 54
c0 38.667 -26 58 -78 58c-21.333 0 -42.666 -2.5 -63.999 -7.5s-40.333 -12.833 -57 -23.5l-18 63c22.667 13.333 45.334 22.5 68.001 27.5s47.334 7.5 74.001 7.5c41.333 0 76.666 -10 105.999 -30s44 -52.333 44 -97c0 -50 -28.667 -86 -86 -108
c20 -6.66699 36 -18.334 48 -35.001s17.667 -36.334 17 -59.001c0 -27.333 -8.5 -51.5 -25.5 -72.5s-39.333 -37 -67 -48s-56.834 -16.5 -87.501 -16.5c-33.333 0 -61.833 3.66699 -85.5 11z" />
    <glyph glyph-name="acute" unicode="&#xb4;" horiz-adv-x="285" 
d="M219 750h87l-121 -150h-87z" />
    <glyph glyph-name="paragraph" unicode="&#xb6;" horiz-adv-x="620" 
d="M222 255c-50.667 0 -92.332 13.168 -124.999 39.501s-49.334 69.5 -50.001 129.5c0 83.333 19.667 150.166 59 200.499s97.333 75.5 174 75.5h322l-10 -70h-80l-123 -880h-80l123 880h-80l-123 -880h-80z" />
    <glyph glyph-name="periodcentered" unicode="&#xb7;" horiz-adv-x="265" 
d="M98 305h85l-14 -100h-85z" />
    <glyph glyph-name="cedilla" unicode="&#xb8;" horiz-adv-x="310" 
d="M3 -188c40.667 0 73.333 5.33398 98 16.001s37 25 37 43c0 10 -7.66699 16.667 -23 20s-41.333 5 -78 5l46 126l58 -22l-23 -51c27.333 -3.33301 48.833 -11.833 64.5 -25.5s23.5 -30.834 23.5 -51.501c0 -38 -22 -67.833 -66 -89.5s-97 -32.5 -159 -32.5z" />
    <glyph glyph-name="uni00B9" unicode="&#xb9;" horiz-adv-x="361" 
d="M223 733h-70l7 51l152 28l-66 -462h-77z" />
    <glyph glyph-name="ordmasculine" unicode="&#xba;" horiz-adv-x="457" 
d="M135.5 396.5c-25.667 28.333 -38.5 65.5 -38.5 111.5c0 26.667 1.66699 51.334 5 74.001c2.66699 18 7.66699 43.667 15 77c11.333 43.333 33 78 65 104s72 39 120 39c49.333 0 86.833 -14 112.5 -42s38.5 -65 38.5 -111c0 -23.333 -2 -49 -6 -77
c-3.33301 -25.333 -8.33301 -50 -15 -74c-11.333 -42.667 -33 -77.334 -65 -104.001s-71.667 -40 -119 -40c-49.333 0 -86.833 14.167 -112.5 42.5zM322.5 446c19.667 17.333 31.834 39.334 36.501 66.001c6.66699 28.667 11.667 53 15 73s5.66602 42.667 6.99902 68
c1.33301 24 -4.66699 44 -18 60s-33.666 24 -60.999 24c-30 0 -55 -9 -75 -27s-33 -40.333 -39 -67c-10.667 -42.667 -17.334 -89.334 -20.001 -140.001c-0.666992 -24.667 5.83301 -44.667 19.5 -60s34.167 -23 61.5 -23c29.333 0 53.833 8.66699 73.5 26z" />
    <glyph glyph-name="guillemotright" unicode="&#xbb;" horiz-adv-x="485" 
d="M381 229c2.66699 2.66699 4 5.66699 4 9s-1.66699 6 -5 8l-26 18l-92 137h87l96 -145l-7 -60l-136 -144h-90zM191 229c2.66699 2.66699 4 5.66699 4 9s-1.66699 6 -5 8l-26 18l-92 137h87l96 -145l-7 -60l-136 -144h-90z" />
    <glyph glyph-name="questiondown" unicode="&#xbf;" horiz-adv-x="494" 
d="M370 410h-85l13 90h85zM347 263c-0.666992 -12.667 -2 -24.9971 -4 -36.9971c-4.66699 -28.667 -14.834 -50.667 -30.501 -66s-42.5 -31 -80.5 -47l-48 -20c-34 -14.667 -59.333 -31.5 -76 -50.5s-25 -46.5 -25 -82.5c0 -33.333 12.333 -57.333 37 -72s55.667 -22 93 -22
c34 0 61.833 3.5 83.5 10.5s46.5 18.833 74.5 35.5l19 -72c-57.333 -33.333 -117.666 -50 -180.999 -50c-58.667 0 -107.5 14.667 -146.5 44s-58.5 72.333 -58.5 129c0 47.333 10 85.166 30 113.499s38.667 47.166 56 56.499s44.333 21.666 81 36.999l40 17
c18.667 8 32.667 17 42 27s17.333 25.333 24 46l9 28h62c0 -4 -0.333008 -12.333 -1 -25z" />
    <glyph glyph-name="Agrave" unicode="&#xc0;" horiz-adv-x="566" 
d="M324 770l-79 150h83l79 -150h-83zM400 187h-250l-79 -187h-86l265 627h-93l10 73h234l110 -700h-84zM389 261l-40.001 273l-2 89c0 2 -0.666992 3.66699 -2 5s-2.66602 2 -3.99902 2c-4 0 -6.33301 -1.66699 -7 -5l-153 -364h208z" />
    <glyph glyph-name="Aacute" unicode="&#xc1;" horiz-adv-x="566" 
d="M389 770h-87l121 150h87zM400 187h-250l-79 -187h-86l265 627h-93l10 73h234l110 -700h-84zM389 261l-40.001 273l-2 89c0 2 -0.666992 3.66699 -2 5s-2.66602 2 -3.99902 2c-4 0 -6.33301 -1.66699 -7 -5l-153 -364h208z" />
    <glyph glyph-name="Acircumflex" unicode="&#xc2;" horiz-adv-x="566" 
d="M303 770h-80.999l112 150h81l72 -150h-77l-26 67l-2 31c-1.33301 5.33301 -3 8 -5 8c-2.66699 0 -5.33398 -2.33301 -8.00098 -7zM400.001 187h-250l-79 -187h-86l265 627h-93l10 73h234l110 -700h-84zM389.001 261l-40.001 273l-2 89c0 2 -0.666992 3.66699 -2 5
s-2.66602 2 -3.99902 2c-4 0 -6.33301 -1.66699 -7 -5l-153 -364h208z" />
    <glyph glyph-name="Atilde" unicode="&#xc3;" horiz-adv-x="566" 
d="M262 793.5c-11.333 -7 -23.999 -18.167 -37.999 -33.5l-13 58c25.333 31.333 55.333 47 90 47c16.667 0 30.667 -2 42 -6s23 -9.66699 35 -17c10.667 -6 19.167 -10.167 25.5 -12.5s13.5 -3.5 21.5 -3.5c13.333 0 25.666 3.5 36.999 10.5s24 18.167 38 33.5l13 -58
c-25.333 -31.333 -55.333 -47 -90 -47c-16.667 0 -30.667 2 -42 6s-23 9.66699 -35 17c-11.333 6 -19.833 10.167 -25.5 12.5s-12.834 3.5 -21.501 3.5c-13.333 0 -25.666 -3.5 -36.999 -10.5zM511.001 0h-84l-27 187h-250l-79 -187h-86l265 627h-93l10 73h234zM389.001 261
l-40.001 273l-2 89c0 2 -0.666992 3.66699 -2 5s-2.66602 2 -3.99902 2c-4 0 -6.33301 -1.66699 -7 -5l-153 -364h208z" />
    <glyph glyph-name="Adieresis" unicode="&#xc4;" horiz-adv-x="566" 
d="M311 770h-81l14 100h81zM482 770h-81l14 100h81zM400 187h-250l-79 -187h-86l265 627h-93l10 73h234l110 -700h-84zM389 261l-40.001 273l-2 89c0 2 -0.666992 3.66699 -2 5s-2.66602 2 -3.99902 2c-4 0 -6.33301 -1.66699 -7 -5l-153 -364h208z" />
    <glyph glyph-name="Aring" unicode="&#xc5;" horiz-adv-x="566" 
d="M266 762.5c-23.333 14.333 -35.001 37.167 -35.001 68.5c0 8 0.333008 14 1 18c5.33301 34.667 21.5 59.5 48.5 74.5s59.5 22.5 97.5 22.5c36 0 65.667 -7 89 -21s35 -37 35 -69c0 -7.33301 -0.333008 -13 -1 -17c-5.33301 -35.333 -21.333 -60.5 -48 -75.5
s-58.667 -22.5 -96 -22.5s-67.666 7.16699 -90.999 21.5zM286.999 830.001c0 -15.333 5.83398 -25.5 17.501 -30.5s28.167 -7.5 49.5 -7.5c26 0 47 4 63 12s25.333 23 28 45l1 9c0 14.667 -5.83301 24.5 -17.5 29.5s-28.834 7.5 -51.501 7.5c-26.667 0 -47.5 -4 -62.5 -12
s-23.833 -22.667 -26.5 -44zM400 187.001h-250l-79 -187h-86l265 627h-93l10 73h234l110 -700h-84zM389 261.001l-40.001 273l-2 89c0 2 -0.666992 3.66699 -2 5s-2.66602 2 -3.99902 2c-4 0 -6.33301 -1.66699 -7 -5l-153 -364h208z" />
    <glyph glyph-name="AE" unicode="&#xc6;" horiz-adv-x="840" 
d="M248 622h-92l11 78h676l-11 -78h-325l-32 -233h308l-11 -78h-308l-33 -233h325l-11 -78h-403l26 187h-219l-78 -187h-86zM379 261l50 361h-99l-150 -361h199z" />
    <glyph glyph-name="Ccedilla" unicode="&#xc7;" horiz-adv-x="503" 
d="M517 644l-34.002 -68.999c-14 19.333 -32.333 34.333 -55 45s-49.334 16 -80.001 16c-80 0 -132.667 -41 -158 -123c-14 -41.333 -25.333 -90 -34 -146s-13 -106.667 -13 -152c0 -48 12.5 -85.167 37.5 -111.5s60.167 -39.5 105.5 -39.5c24 0 47.833 5 71.5 15
s44.167 22.667 61.5 38l20 -78c-33.333 -26.667 -73.333 -43 -120 -49l-19 -41c27.333 -3.33301 48.833 -11.833 64.5 -25.5s23.5 -30.834 23.5 -51.501c0 -38 -22 -67.833 -66 -89.5s-97 -32.5 -159 -32.5l22 62c40.667 0 73.334 5.33301 98.001 16s37 25 37 43
c0 10 -7.66699 16.667 -23 20s-41.333 5 -78 5l34 93c-40.667 4 -75.167 16.667 -103.5 38s-49.666 48.333 -63.999 81s-21.5 68 -21.5 106c0 48 4.66699 101.667 14 161s22 112.333 38 159c16.667 55.333 44.834 98.833 84.501 130.5s91.5 47.5 155.5 47.5
c67.333 0 121 -22.667 161 -68z" />
    <glyph glyph-name="Egrave" unicode="&#xc8;" horiz-adv-x="553" 
d="M259 920h83l79 -150h-83zM153 700h403l-11 -78h-325l-32 -233h308l-11 -78h-308l-33 -233h325l-11 -78h-403z" />
    <glyph glyph-name="Eacute" unicode="&#xc9;" horiz-adv-x="553" 
d="M437 920h87l-121 -150h-87zM153 700h403l-11 -78h-325l-32 -233h308l-11 -78h-308l-33 -233h325l-11 -78h-403z" />
    <glyph glyph-name="Ecircumflex" unicode="&#xca;" horiz-adv-x="553" 
d="M348 920h81.001l72 -150h-77l-26 67l-2 31c-1.33301 5.33301 -3 8 -5 8c-2.66699 0 -5.33398 -2.33301 -8.00098 -7l-66 -99h-81zM153.001 700h403l-11 -78h-325l-32 -233h308l-11 -78h-308l-33 -233h325l-11 -78h-403z" />
    <glyph glyph-name="Edieresis" unicode="&#xcb;" horiz-adv-x="553" 
d="M258 870h81l-14 -100h-81zM429 870h81l-14 -100h-81zM153 700h403l-11 -78h-325l-32 -233h308l-11 -78h-308l-33 -233h325l-11 -78h-403z" />
    <glyph glyph-name="Igrave" unicode="&#xcc;" horiz-adv-x="423" 
d="M174 920h83l79 -150h-83zM26 76h120l77 548h-120l10 76h323l-10 -76h-120l-77 -548h120l-11 -76h-323z" />
    <glyph glyph-name="Iacute" unicode="&#xcd;" horiz-adv-x="423" 
d="M352 920h87l-121 -150h-87zM26 76h120l77 548h-120l10 76h323l-10 -76h-120l-77 -548h120l-11 -76h-323z" />
    <glyph glyph-name="Icircumflex" unicode="&#xce;" horiz-adv-x="423" 
d="M263 920h81.001l72 -150h-77l-26 67l-2 31c-1.33301 5.33301 -3 8 -5 8c-2.66699 0 -5.33398 -2.33301 -8.00098 -7l-66 -99h-81zM26.001 76h120l77 548h-120l10 76h323l-10 -76h-120l-77 -548h120l-11 -76h-323z" />
    <glyph glyph-name="Idieresis" unicode="&#xcf;" horiz-adv-x="423" 
d="M173 870h81l-14 -100h-81zM344 870h81l-14 -100h-81zM26 76h120l77 548h-120l10 76h323l-10 -76h-120l-77 -548h120l-11 -76h-323z" />
    <glyph glyph-name="Eth" unicode="&#xd0;" horiz-adv-x="613" 
d="M525.5 640.5c36.333 -39.667 54.5 -91.501 54.5 -155.501c0 -10.667 -0.333008 -18.667 -1 -24c-4 -64 -15.333 -142.667 -34 -236c-14 -71.333 -44.5 -126.666 -91.5 -165.999s-109.833 -59 -188.5 -59h-190l44 315h-124l10 69h124l44 316h186
c74.667 0 130.167 -19.833 166.5 -59.5zM466.5 586.999c-23.667 26.667 -61.499 40 -113.499 40h-110l-34 -243h87l-10 -69h-87l-34 -243h106c55.333 0 99.5 15.333 132.5 46s55.833 72.667 68.5 126c7.33301 31.333 14.166 71 20.499 119s9.5 86.333 9.5 115
c0 46 -11.833 82.333 -35.5 109z" />
    <glyph glyph-name="Ntilde" unicode="&#xd1;" horiz-adv-x="623" 
d="M244 848c25.333 31.333 55.333 47 90 47c16.667 0 30.667 -2 42 -6s23 -9.66699 35 -17c11.333 -6 20 -10.167 26 -12.5s13 -3.5 21 -3.5c13.333 0 25.666 3.5 36.999 10.5s24 18.167 38 33.5l13 -58c-25.333 -31.333 -55.333 -47 -90 -47c-16.667 0 -30.667 2 -42 6
s-23 9.66699 -35 17c-10.667 6 -19.167 10.167 -25.5 12.5s-13.5 3.5 -21.5 3.5c-13.333 0 -25.666 -3.5 -36.999 -10.5s-24 -18.167 -38 -33.5zM153 700l70 0.000976562l213 -549c2.66699 -4.66699 5.33398 -7 8.00098 -7c2 0 3.83301 1.33301 5.5 4s2.5 6.66699 2.5 12
l2 95l62 445h80l-98 -700h-82l-203 519c-2 5.33301 -4.66699 8 -8 8c-2.66699 0 -4.83398 -1.33301 -6.50098 -4s-2.5 -6.33398 -2.5 -11.001l-3 -98l-58 -414h-80z" />
    <glyph glyph-name="Ograve" unicode="&#xd2;" 
d="M265 920h83l79 -150h-83zM474 681c32.667 -20.667 56.999 -48.167 72.999 -82.5s24 -71.833 24 -112.5c0 -46.667 -4.66699 -99.667 -14 -159s-22 -113 -38 -161c-16 -55.333 -44.167 -98.833 -84.5 -130.5s-92.5 -47.5 -156.5 -47.5c-46 0 -85.167 10.333 -117.5 31
s-56.5 48.167 -72.5 82.5s-24 71.833 -24 112.5c0 48 4.66699 101.667 14 161s22 112.333 38 159c16.667 55.333 44.834 98.833 84.501 130.5s91.5 47.5 155.5 47.5c46 0 85.333 -10.333 118 -31zM454.499 596.5c-25 26.333 -60.5 39.5 -106.5 39.5
c-80 0 -132.667 -41 -158 -123c-14 -41.333 -25.333 -90 -34 -146s-13 -106.667 -13 -152c0 -48 12.5 -85.167 37.5 -111.5s60.167 -39.5 105.5 -39.5c81.333 0 134.333 41 159 123c13.333 42 24.5 91.167 33.5 147.5s13.5 106.5 13.5 150.5c0 48 -12.5 85.167 -37.5 111.5z
" />
    <glyph glyph-name="Oacute" unicode="&#xd3;" 
d="M443 920h87l-121 -150h-87zM474 681c32.667 -20.667 56.999 -48.167 72.999 -82.5s24 -71.833 24 -112.5c0 -46.667 -4.66699 -99.667 -14 -159s-22 -113 -38 -161c-16 -55.333 -44.167 -98.833 -84.5 -130.5s-92.5 -47.5 -156.5 -47.5c-46 0 -85.167 10.333 -117.5 31
s-56.5 48.167 -72.5 82.5s-24 71.833 -24 112.5c0 48 4.66699 101.667 14 161s22 112.333 38 159c16.667 55.333 44.834 98.833 84.501 130.5s91.5 47.5 155.5 47.5c46 0 85.333 -10.333 118 -31zM454.499 596.5c-25 26.333 -60.5 39.5 -106.5 39.5
c-80 0 -132.667 -41 -158 -123c-14 -41.333 -25.333 -90 -34 -146s-13 -106.667 -13 -152c0 -48 12.5 -85.167 37.5 -111.5s60.167 -39.5 105.5 -39.5c81.333 0 134.333 41 159 123c13.333 42 24.5 91.167 33.5 147.5s13.5 106.5 13.5 150.5c0 48 -12.5 85.167 -37.5 111.5z
" />
    <glyph glyph-name="Ocircumflex" unicode="&#xd4;" 
d="M354 920h81.001l72 -150h-77l-26 67l-2 31c-1.33301 5.33301 -3 8 -5 8c-2.66699 0 -5.33398 -2.33301 -8.00098 -7l-66 -99h-81zM474.001 681c32.667 -20.667 56.999 -48.167 72.999 -82.5s24 -71.833 24 -112.5c0 -46.667 -4.66699 -99.667 -14 -159s-22 -113 -38 -161
c-16 -55.333 -44.167 -98.833 -84.5 -130.5s-92.5 -47.5 -156.5 -47.5c-46 0 -85.167 10.333 -117.5 31s-56.5 48.167 -72.5 82.5s-24 71.833 -24 112.5c0 48 4.66699 101.667 14 161s22 112.333 38 159c16.667 55.333 44.834 98.833 84.501 130.5s91.5 47.5 155.5 47.5
c46 0 85.333 -10.333 118 -31zM454.5 596.5c-25 26.333 -60.5 39.5 -106.5 39.5c-80 0 -132.667 -41 -158 -123c-14 -41.333 -25.333 -90 -34 -146s-13 -106.667 -13 -152c0 -48 12.5 -85.167 37.5 -111.5s60.167 -39.5 105.5 -39.5c81.333 0 134.333 41 159 123
c13.333 42 24.5 91.167 33.5 147.5s13.5 106.5 13.5 150.5c0 48 -12.5 85.167 -37.5 111.5z" />
    <glyph glyph-name="Otilde" unicode="&#xd5;" 
d="M231 818c25.333 31.333 55.333 47 90 47c16.667 0 30.667 -2 42 -6s23 -9.66699 35 -17c11.333 -6 20 -10.167 26 -12.5s13 -3.5 21 -3.5c13.333 0 25.666 3.5 36.999 10.5s24 18.167 38 33.5l13 -58c-25.333 -31.333 -55.333 -47 -90 -47c-16.667 0 -30.667 2 -42 6
s-23 9.66699 -35 17c-10.667 6 -19 10.167 -25 12.5s-13.333 3.5 -22 3.5c-13.333 0 -25.666 -3.5 -36.999 -10.5s-24 -18.167 -38 -33.5zM474 681c32.667 -20.667 56.999 -48.167 72.999 -82.5s24 -71.833 24 -112.5c0 -46.667 -4.66699 -99.667 -14 -159
s-22 -113 -38 -161c-16 -55.333 -44.167 -98.833 -84.5 -130.5s-92.5 -47.5 -156.5 -47.5c-46 0 -85.167 10.333 -117.5 31s-56.5 48.167 -72.5 82.5s-24 71.833 -24 112.5c0 48 4.66699 101.667 14 161s22 112.333 38 159c16.667 55.333 44.834 98.833 84.501 130.5
s91.5 47.5 155.5 47.5c46 0 85.333 -10.333 118 -31zM454.499 596.5c-25 26.333 -60.5 39.5 -106.5 39.5c-80 0 -132.667 -41 -158 -123c-14 -41.333 -25.333 -90 -34 -146s-13 -106.667 -13 -152c0 -48 12.5 -85.167 37.5 -111.5s60.167 -39.5 105.5 -39.5
c81.333 0 134.333 41 159 123c13.333 42 24.5 91.167 33.5 147.5s13.5 106.5 13.5 150.5c0 48 -12.5 85.167 -37.5 111.5z" />
    <glyph glyph-name="Odieresis" unicode="&#xd6;" 
d="M264 870h81l-14 -100h-81zM435 870h81l-14 -100h-81zM474 681c32.667 -20.667 56.999 -48.167 72.999 -82.5s24 -71.833 24 -112.5c0 -46.667 -4.66699 -99.667 -14 -159s-22 -113 -38 -161c-16 -55.333 -44.167 -98.833 -84.5 -130.5s-92.5 -47.5 -156.5 -47.5
c-46 0 -85.167 10.333 -117.5 31s-56.5 48.167 -72.5 82.5s-24 71.833 -24 112.5c0 48 4.66699 101.667 14 161s22 112.333 38 159c16.667 55.333 44.834 98.833 84.501 130.5s91.5 47.5 155.5 47.5c46 0 85.333 -10.333 118 -31zM454.499 596.5
c-25 26.333 -60.5 39.5 -106.5 39.5c-80 0 -132.667 -41 -158 -123c-14 -41.333 -25.333 -90 -34 -146s-13 -106.667 -13 -152c0 -48 12.5 -85.167 37.5 -111.5s60.167 -39.5 105.5 -39.5c81.333 0 134.333 41 159 123c13.333 42 24.5 91.167 33.5 147.5
s13.5 106.5 13.5 150.5c0 48 -12.5 85.167 -37.5 111.5z" />
    <glyph glyph-name="multiply" unicode="&#xd7;" horiz-adv-x="528" 
d="M64 205l165 145l-125 145l55 49l124 -145l166 145l43 -49l-165 -145l125 -145l-55 -49l-124 145l-166 -145z" />
    <glyph glyph-name="Oslash" unicode="&#xd8;" horiz-adv-x="646" 
d="M578 569c8.66699 -25.333 13 -53 13 -83c0 -46.667 -4.66699 -99.667 -14 -159s-22 -113 -38 -161c-16 -55.333 -44.167 -98.833 -84.5 -130.5s-92.5 -47.5 -156.5 -47.5c-38.667 0 -72.667 7.66699 -102 23s-53.333 36.333 -72 63l-68 -74h-82l122 133
c-8 26 -12 53 -12 81c0 48 4.66699 101.667 14 161s22 112.333 38 159c16.667 55.333 44.834 98.833 84.501 130.5s91.5 47.5 155.5 47.5c39.333 0 73.666 -7.5 102.999 -22.5s53 -35.833 71 -62.5l67 73h82zM163 206l331.999 360.999
c-11.333 22.667 -27.666 39.834 -48.999 51.501s-47.333 17.5 -78 17.5c-80 0 -132.667 -41 -158 -123c-14 -41.333 -25.333 -90 -34 -146s-13 -106.667 -13 -152v-9zM511.999 495.999l-333 -362c11.333 -22.667 27.833 -40 49.5 -52s47.5 -18 77.5 -18
c81.333 0 134.333 41 159 123c13.333 42 24.5 91.167 33.5 147.5s13.5 106.5 13.5 150.5v11z" />
    <glyph glyph-name="Ugrave" unicode="&#xd9;" horiz-adv-x="609" 
d="M267 920h83l79 -150h-83zM131.5 41c-35.667 34 -53.502 81.668 -53.502 143.001c0 10 1.33301 26.333 4 49l66 467h84l-67 -471c-2 -14 -3 -27.333 -3 -40c0 -40.667 10.333 -71.334 31 -92.001s49.334 -31 86.001 -31c40 0 74.333 12.833 103 38.5s45.667 58.5 51 98.5
l70 497h84l-71 -501c-5.33301 -41.333 -19 -77.833 -41 -109.5s-50.167 -56.167 -84.5 -73.5s-72.166 -26 -113.499 -26c-61.333 0 -109.833 17 -145.5 51z" />
    <glyph glyph-name="Uacute" unicode="&#xda;" horiz-adv-x="609" 
d="M445 920h87l-121 -150h-87zM131.5 41c-35.667 34 -53.502 81.668 -53.502 143.001c0 10 1.33301 26.333 4 49l66 467h84l-67 -471c-2 -14 -3 -27.333 -3 -40c0 -40.667 10.333 -71.334 31 -92.001s49.334 -31 86.001 -31c40 0 74.333 12.833 103 38.5
s45.667 58.5 51 98.5l70 497h84l-71 -501c-5.33301 -41.333 -19 -77.833 -41 -109.5s-50.167 -56.167 -84.5 -73.5s-72.166 -26 -113.499 -26c-61.333 0 -109.833 17 -145.5 51z" />
    <glyph glyph-name="Ucircumflex" unicode="&#xdb;" horiz-adv-x="609" 
d="M356 920h81.001l72 -150h-77l-26 67l-2 31c-1.33301 5.33301 -3 8 -5 8c-2.66699 0 -5.33398 -2.33301 -8.00098 -7l-66 -99h-81zM131.501 41c-35.667 34 -53.502 81.668 -53.502 143.001c0 10 1.33301 26.333 4 49l66 467h84l-67 -471c-2 -14 -3 -27.333 -3 -40
c0 -40.667 10.333 -71.334 31 -92.001s49.334 -31 86.001 -31c40 0 74.333 12.833 103 38.5s45.667 58.5 51 98.5l70 497h84l-71 -501c-5.33301 -41.333 -19 -77.833 -41 -109.5s-50.167 -56.167 -84.5 -73.5s-72.166 -26 -113.499 -26c-61.333 0 -109.833 17 -145.5 51z
" />
    <glyph glyph-name="Udieresis" unicode="&#xdc;" horiz-adv-x="609" 
d="M266 870h81l-14 -100h-81zM437 870h81l-14 -100h-81zM131.5 41c-35.667 34 -53.502 81.668 -53.502 143.001c0 10 1.33301 26.333 4 49l66 467h84l-67 -471c-2 -14 -3 -27.333 -3 -40c0 -40.667 10.333 -71.334 31 -92.001s49.334 -31 86.001 -31
c40 0 74.333 12.833 103 38.5s45.667 58.5 51 98.5l70 497h84l-71 -501c-5.33301 -41.333 -19 -77.833 -41 -109.5s-50.167 -56.167 -84.5 -73.5s-72.166 -26 -113.499 -26c-61.333 0 -109.833 17 -145.5 51z" />
    <glyph glyph-name="Yacute" unicode="&#xdd;" horiz-adv-x="482" 
d="M381 920h87l-121 -150h-87zM213 330l-149 370h92l77 -216l15 -77c1.33301 -4 3.33301 -6 6 -6c3.33301 0 6 2 8 6l188 293h96l-253 -370l-47 -330h-80z" />
    <glyph glyph-name="Thorn" unicode="&#xde;" horiz-adv-x="553" 
d="M153 700h79l-20 -146h159c35.333 0 66 -7.5 92 -22.5s45.667 -35.167 59 -60.5s20 -53 20 -83c0 -43.333 -9 -81.833 -27 -115.5s-43.667 -60 -77 -79s-72.333 -28.5 -117 -28.5h-163l-23 -165h-80zM317 238c98.667 0 148 46.667 148 140c0 35.333 -10 61.833 -30 79.5
s-46.667 26.5 -80 26.5h-152l-34 -246h148z" />
    <glyph glyph-name="germandbls" unicode="&#xdf;" horiz-adv-x="652" 
d="M304.5 4c-33 10.667 -58.5 24 -76.5 40l26 70c18 -17.333 40.667 -30.666 68 -39.999s56.333 -14 87 -14c31.333 0 56.5 7.16699 75.5 21.5s28.5 33.5 28.5 57.5c0 20.667 -5 37.167 -15 49.5s-26.333 22.5 -49 30.5l-49 18c-40.667 14.667 -71 32.167 -91 52.5
s-30 46.166 -30 77.499c0 37.333 12.333 67 37 89s61.667 39.667 111 53l34 9c46.667 12 70 36.333 70 73c0 26 -12 48.5 -36 67.5s-57.667 28.5 -101 28.5c-52.667 0 -96.167 -13 -130.5 -39s-54.5 -61 -60.5 -105l-76 -543h-77l76 544c9.33301 61.333 37 111.5 83 150.5
s109.333 58.5 190 58.5c41.333 0 77.666 -7.16699 108.999 -21.5s55.5 -33.5 72.5 -57.5s25.5 -49.667 25.5 -77c0 -73.333 -45.333 -122.666 -136 -147.999l-42 -12c-24 -7.33301 -42.167 -15.833 -54.5 -25.5s-18.5 -22.834 -18.5 -39.501c0 -16 4.83301 -28.667 14.5 -38
s25.167 -18 46.5 -26l49 -18c40.667 -14.667 71.334 -33.5 92.001 -56.5s31 -51.833 31 -86.5c0 -30.667 -7.5 -58 -22.5 -82s-36 -42.833 -63 -56.5s-57.5 -20.5 -91.5 -20.5c-38 0 -73.5 5.33301 -106.5 16z" />
    <glyph glyph-name="agrave" unicode="&#xe0;" horiz-adv-x="542" 
d="M307 600l-79 150h83l79 -150h-83zM412 88l58.001 -27.999l-33 -70l-106 53c-2.66699 1.33301 -4.66699 2 -6 2c-2.66699 0 -5.33398 -1.33301 -8.00098 -4l-14 -15c-26 -15.333 -45.667 -25.166 -59 -29.499s-27.666 -6.5 -42.999 -6.5
c-40.667 0 -76.334 12.5 -107.001 37.5s-46 68.5 -46 130.5c0 81.333 15.667 153.666 47 216.999c20.667 41.333 49.5 74.166 86.5 98.499s78.5 36.5 124.5 36.5c17.333 0 35 -1 53 -3l38 -9l7 -1l9 1l57 6zM255.001 73.001c14.667 6.66699 42.001 22.334 82.001 47.001
l43 310c-26.667 6.66699 -49.334 10 -68.001 10c-36.667 0 -68.334 -9.33301 -95.001 -28s-46.667 -43.334 -60 -74.001c-11.333 -26 -19.666 -53.667 -24.999 -83s-8 -63.333 -8 -102c0 -32 8.33301 -55 25 -69s37.667 -21 63 -21c14 0 28.333 3.33301 43 10z" />
    <glyph glyph-name="aacute" unicode="&#xe1;" horiz-adv-x="542" 
d="M372 600h-87l121 150h87zM470 504l-57.999 -415.999l58 -28l-33 -70l-106 53c-2.66699 1.33301 -4.66699 2 -6 2c-2.66699 0 -5.33398 -1.33301 -8.00098 -4l-14 -15c-26 -15.333 -45.667 -25.166 -59 -29.499s-27.666 -6.5 -42.999 -6.5
c-40.667 0 -76.334 12.5 -107.001 37.5s-46 68.5 -46 130.5c0 81.333 15.667 153.666 47 216.999c20.667 41.333 49.5 74.166 86.5 98.499s78.5 36.5 124.5 36.5c17.333 0 35 -1 53 -3l38 -9l7 -1l9 1zM255.001 73.001c14.667 6.66699 42.001 22.334 82.001 47.001l43 310
c-26.667 6.66699 -49.334 10 -68.001 10c-36.667 0 -68.334 -9.33301 -95.001 -28s-46.667 -43.334 -60 -74.001c-11.333 -26 -19.666 -53.667 -24.999 -83s-8 -63.333 -8 -102c0 -32 8.33301 -55 25 -69s37.667 -21 63 -21c14 0 28.333 3.33301 43 10z" />
    <glyph glyph-name="acircumflex" unicode="&#xe2;" horiz-adv-x="542" 
d="M286 600h-80.999l112 150h81l72 -150h-77l-26 67l-2 31c-1.33301 5.33301 -3 8 -5 8c-2.66699 0 -5.33398 -2.33301 -8.00098 -7zM470.001 504l-57.999 -415.999l58 -28l-33 -70l-106 53c-2.66699 1.33301 -4.66699 2 -6 2c-2.66699 0 -5.33398 -1.33301 -8.00098 -4
l-14 -15c-26 -15.333 -45.667 -25.166 -59 -29.499s-27.666 -6.5 -42.999 -6.5c-40.667 0 -76.334 12.5 -107.001 37.5s-46 68.5 -46 130.5c0 81.333 15.667 153.666 47 216.999c20.667 41.333 49.5 74.166 86.5 98.499s78.5 36.5 124.5 36.5c17.333 0 35 -1 53 -3l38 -9
l7 -1l9 1zM255.002 73.001c14.667 6.66699 42.001 22.334 82.001 47.001l43 310c-26.667 6.66699 -49.334 10 -68.001 10c-36.667 0 -68.334 -9.33301 -95.001 -28s-46.667 -43.334 -60 -74.001c-11.333 -26 -19.666 -53.667 -24.999 -83s-8 -63.333 -8 -102
c0 -32 8.33301 -55 25 -69s37.667 -21 63 -21c14 0 28.333 3.33301 43 10z" />
    <glyph glyph-name="atilde" unicode="&#xe3;" horiz-adv-x="542" 
d="M496 642c-25.333 -31.333 -55.333 -47 -90 -47c-16.667 0 -30.667 2 -42 6s-23 9.66699 -35 17c-10.667 6 -19.167 10.167 -25.5 12.5s-13.5 3.5 -21.5 3.5c-13.333 0 -25.666 -3.5 -36.999 -10.5s-24 -18.167 -38 -33.5l-13 58c25.333 31.333 55.333 47 90 47
c16.667 0 30.667 -2 42 -6s23 -9.66699 35 -17c10.667 -6 19.167 -10.167 25.5 -12.5s13.5 -3.5 21.5 -3.5c13.333 0 25.666 3.5 36.999 10.5s24 18.167 38 33.5zM470 504l-57.999 -415.999l58 -28l-33 -70l-106 53c-2.66699 1.33301 -4.66699 2 -6 2
c-2.66699 0 -5.33398 -1.33301 -8.00098 -4l-14 -15c-26 -15.333 -45.667 -25.166 -59 -29.499s-27.666 -6.5 -42.999 -6.5c-40.667 0 -76.334 12.5 -107.001 37.5s-46 68.5 -46 130.5c0 81.333 15.667 153.666 47 216.999c20.667 41.333 49.5 74.166 86.5 98.499
s78.5 36.5 124.5 36.5c17.333 0 35 -1 53 -3l38 -9l7 -1l9 1zM255.001 73.001c14.667 6.66699 42.001 22.334 82.001 47.001l43 310c-26.667 6.66699 -49.334 10 -68.001 10c-36.667 0 -68.334 -9.33301 -95.001 -28s-46.667 -43.334 -60 -74.001
c-11.333 -26 -19.666 -53.667 -24.999 -83s-8 -63.333 -8 -102c0 -32 8.33301 -55 25 -69s37.667 -21 63 -21c14 0 28.333 3.33301 43 10z" />
    <glyph glyph-name="adieresis" unicode="&#xe4;" horiz-adv-x="542" 
d="M294 600h-81l14 100h81zM465 600h-81l14 100h81zM470 504l-57.999 -415.999l58 -28l-33 -70l-106 53c-2.66699 1.33301 -4.66699 2 -6 2c-2.66699 0 -5.33398 -1.33301 -8.00098 -4l-14 -15c-26 -15.333 -45.667 -25.166 -59 -29.499s-27.666 -6.5 -42.999 -6.5
c-40.667 0 -76.334 12.5 -107.001 37.5s-46 68.5 -46 130.5c0 81.333 15.667 153.666 47 216.999c20.667 41.333 49.5 74.166 86.5 98.499s78.5 36.5 124.5 36.5c17.333 0 35 -1 53 -3l38 -9l7 -1l9 1zM255.001 73.001c14.667 6.66699 42.001 22.334 82.001 47.001l43 310
c-26.667 6.66699 -49.334 10 -68.001 10c-36.667 0 -68.334 -9.33301 -95.001 -28s-46.667 -43.334 -60 -74.001c-11.333 -26 -19.666 -53.667 -24.999 -83s-8 -63.333 -8 -102c0 -32 8.33301 -55 25 -69s37.667 -21 63 -21c14 0 28.333 3.33301 43 10z" />
    <glyph glyph-name="aring" unicode="&#xe5;" horiz-adv-x="542" 
d="M450 755c23.333 -14 34.999 -36.999 34.999 -68.999c0 -7.33301 -0.333008 -13 -1 -17c-5.33301 -35.333 -21.333 -60.5 -48 -75.5s-58.667 -22.5 -96 -22.5s-67.666 7.16699 -90.999 21.5s-35 37.166 -35 68.499c0 8 0.333008 14 1 18
c5.33301 34.667 21.5 59.5 48.5 74.5s59.5 22.5 97.5 22.5c36 0 65.667 -7 89 -21zM428.999 688.001c0 14.667 -5.83203 24.5 -17.499 29.5s-28.834 7.5 -51.501 7.5c-26.667 0 -47.5 -4 -62.5 -12s-23.833 -22.667 -26.5 -44l-1 -9c0 -15.333 5.83301 -25.5 17.5 -30.5
s28.167 -7.5 49.5 -7.5c26 0 47 4 63 12s25.333 23 28 45zM470 504.001l-57.999 -415.999l58 -28l-33 -70l-106 53c-2.66699 1.33301 -4.66699 2 -6 2c-2.66699 0 -5.33398 -1.33301 -8.00098 -4l-14 -15c-26 -15.333 -45.667 -25.166 -59 -29.499
s-27.666 -6.5 -42.999 -6.5c-40.667 0 -76.334 12.5 -107.001 37.5s-46 68.5 -46 130.5c0 81.333 15.667 153.666 47 216.999c20.667 41.333 49.5 74.166 86.5 98.499s78.5 36.5 124.5 36.5c17.333 0 35 -1 53 -3l38 -9l7 -1l9 1zM255.001 73.002
c14.667 6.66699 42.001 22.334 82.001 47.001l43 310c-26.667 6.66699 -49.334 10 -68.001 10c-36.667 0 -68.334 -9.33301 -95.001 -28s-46.667 -43.334 -60 -74.001c-11.333 -26 -19.666 -53.667 -24.999 -83s-8 -63.333 -8 -102c0 -32 8.33301 -55 25 -69
s37.667 -21 63 -21c14 0 28.333 3.33301 43 10z" />
    <glyph glyph-name="ae" unicode="&#xe6;" horiz-adv-x="755" 
d="M686 466c25.333 -29.333 37.999 -68.334 37.999 -117.001c0 -21.333 -2.66699 -45.333 -8 -72l-28 -40l-280 -21c-1.33301 -12 -2 -20.333 -2 -25c0 -42.667 8.16699 -75.167 24.5 -97.5s41.166 -33.5 74.499 -33.5c21.333 0 39.5 4.16699 54.5 12.5
s34.833 24.166 59.5 47.499l60 -29c-31.333 -36.667 -61.333 -62.667 -90 -78s-58 -23 -88 -23c-28.667 0 -54 5 -76 15s-42 24.667 -60 44c-3.33301 3.33301 -6.33301 5 -9 5c-3.33301 0 -7.66602 -2 -12.999 -6l-24 -20c-38 -17.333 -64.667 -28.166 -80 -32.499
s-35.666 -6.5 -60.999 -6.5c-44 0 -78.5 11 -103.5 33s-37.5 51.667 -37.5 89c0 5.33301 0.666992 13.333 2 24c11.333 80 70 123.667 176 131l126 9l7 53c1.33301 13.333 2 22.333 2 27c0 28 -7.83301 49 -23.5 63s-40.5 21 -74.5 21
c-23.333 0 -45.666 -4.16699 -66.999 -12.5s-44.333 -21.166 -69 -38.499l-19 72c26.667 18.667 53 32 79 40s53.333 12 82 12c56.667 0 99.667 -13 129 -39l14 -27c3.33301 -5.33301 7 -8 11 -8c2.66699 0 6 2 10 6l25 27c42 26 81.333 39 118 39
c55.333 0 95.666 -14.667 120.999 -44zM648.999 345.999c0 30 -7.33203 53.167 -21.999 69.5s-35.334 24.5 -62.001 24.5c-33.333 0 -63.833 -13.667 -91.5 -41s-46.167 -66.333 -55.5 -117v-1l225 17c4 18 6 34 6 48zM331 210.999l-115.999 -9.00098
c-29.333 -2 -53 -10.167 -71 -24.5s-27 -34.166 -27 -59.499c0 -17.333 6.16699 -31.666 18.5 -42.999s28.166 -17 47.499 -17c17.333 0 32.5 2.16699 45.5 6.5s31.833 12.166 56.5 23.499c6 3.33301 16.333 8.33301 31 15l14 97z" />
    <glyph glyph-name="ccedilla" unicode="&#xe7;" horiz-adv-x="450" 
d="M278.5 71.5c15.667 7.66699 37.499 23.833 65.499 48.5l60 -29c-30.667 -35.333 -59.667 -60.5 -87 -75.5s-54.333 -23.5 -81 -25.5l-19 -41c27.333 -3.33301 48.833 -11.833 64.5 -25.5s23.5 -30.834 23.5 -51.501c0 -38 -22 -67.833 -66 -89.5s-97 -32.5 -159 -32.5
l22 62c40.667 0 73.334 5.33301 98.001 16s37 25 37 43c0 10 -7.66699 16.667 -23 20s-41.333 5 -78 5l37 100c-40 10.667 -71 32 -93 64s-32.333 68 -31 108c0 50.667 7.33301 103 22 157c15.333 54 42.5 98.333 81.5 133s84.5 52 136.5 52
c26.667 0 51.334 -3.83301 74.001 -11.5s45.667 -19.167 69 -34.5l-29 -63c-20.667 12.667 -39.834 22 -57.501 28s-37.167 9 -58.5 9c-36 0 -66.333 -12.167 -91 -36.5s-42.667 -57.166 -54 -98.499s-17 -80.333 -17 -117c0 -36 8.5 -66 25.5 -90s42.833 -36 77.5 -36
c18 0 34.833 3.83301 50.5 11.5z" />
    <glyph glyph-name="egrave" unicode="&#xe8;" horiz-adv-x="482" 
d="M266 600l-79 150h83l79 -150h-83zM412 464.5c25.333 -30.333 38.001 -70.167 38.001 -119.5c0 -22.667 -2.66699 -46.667 -8 -72l-28 -40h-287c-1.33301 -14.667 -2 -28.667 -2 -42c-1.33301 -42 7.16699 -74.333 25.5 -97s45.166 -34 80.499 -34
c21.333 0 39.5 4.16699 54.5 12.5s34.833 24.166 59.5 47.499l60 -29c-31.333 -36.667 -61.333 -62.667 -90 -78s-58 -23 -88 -23c-38 0 -70.333 8 -97 24s-46.667 37.5 -60 64.5s-20 56.5 -20 88.5c0 52.667 5.66699 101 17 145c15.333 60.667 43.833 108.834 85.5 144.501
s88.167 53.5 139.5 53.5c54.667 0 94.667 -15.167 120 -45.5zM375.001 350.999c0 29.333 -7.33105 51.5 -21.998 66.5s-35.334 22.5 -62.001 22.5c-32 0 -61.833 -11.667 -89.5 -35s-47.834 -57.333 -60.501 -102h228c4 18 6 34 6 48z" />
    <glyph glyph-name="eacute" unicode="&#xe9;" horiz-adv-x="482" 
d="M331 600h-87l121 150h87zM412 464.5c25.333 -30.333 38.001 -70.167 38.001 -119.5c0 -22.667 -2.66699 -46.667 -8 -72l-28 -40h-287c-1.33301 -14.667 -2 -28.667 -2 -42c-1.33301 -42 7.16699 -74.333 25.5 -97s45.166 -34 80.499 -34
c21.333 0 39.5 4.16699 54.5 12.5s34.833 24.166 59.5 47.499l60 -29c-31.333 -36.667 -61.333 -62.667 -90 -78s-58 -23 -88 -23c-38 0 -70.333 8 -97 24s-46.667 37.5 -60 64.5s-20 56.5 -20 88.5c0 52.667 5.66699 101 17 145c15.333 60.667 43.833 108.834 85.5 144.501
s88.167 53.5 139.5 53.5c54.667 0 94.667 -15.167 120 -45.5zM375.001 350.999c0 29.333 -7.33105 51.5 -21.998 66.5s-35.334 22.5 -62.001 22.5c-32 0 -61.833 -11.667 -89.5 -35s-47.834 -57.333 -60.501 -102h228c4 18 6 34 6 48z" />
    <glyph glyph-name="ecircumflex" unicode="&#xea;" horiz-adv-x="482" 
d="M245 600h-80.999l112 150h81l72 -150h-77l-26 67l-2 31c-1.33301 5.33301 -3 8 -5 8c-2.66699 0 -5.33398 -2.33301 -8.00098 -7zM412.001 464.5c25.333 -30.333 38.001 -70.167 38.001 -119.5c0 -22.667 -2.66699 -46.667 -8 -72l-28 -40h-287
c-1.33301 -14.667 -2 -28.667 -2 -42c-1.33301 -42 7.16699 -74.333 25.5 -97s45.166 -34 80.499 -34c21.333 0 39.5 4.16699 54.5 12.5s34.833 24.166 59.5 47.499l60 -29c-31.333 -36.667 -61.333 -62.667 -90 -78s-58 -23 -88 -23c-38 0 -70.333 8 -97 24
s-46.667 37.5 -60 64.5s-20 56.5 -20 88.5c0 52.667 5.66699 101 17 145c15.333 60.667 43.833 108.834 85.5 144.501s88.167 53.5 139.5 53.5c54.667 0 94.667 -15.167 120 -45.5zM375.002 350.999c0 29.333 -7.33105 51.5 -21.998 66.5s-35.334 22.5 -62.001 22.5
c-32 0 -61.833 -11.667 -89.5 -35s-47.834 -57.333 -60.501 -102h228c4 18 6 34 6 48z" />
    <glyph glyph-name="edieresis" unicode="&#xeb;" horiz-adv-x="482" 
d="M253 600h-81l14 100h81zM424 600h-81l14 100h81zM412 464.5c25.333 -30.333 38.001 -70.167 38.001 -119.5c0 -22.667 -2.66699 -46.667 -8 -72l-28 -40h-287c-1.33301 -14.667 -2 -28.667 -2 -42c-1.33301 -42 7.16699 -74.333 25.5 -97s45.166 -34 80.499 -34
c21.333 0 39.5 4.16699 54.5 12.5s34.833 24.166 59.5 47.499l60 -29c-31.333 -36.667 -61.333 -62.667 -90 -78s-58 -23 -88 -23c-38 0 -70.333 8 -97 24s-46.667 37.5 -60 64.5s-20 56.5 -20 88.5c0 52.667 5.66699 101 17 145c15.333 60.667 43.833 108.834 85.5 144.501
s88.167 53.5 139.5 53.5c54.667 0 94.667 -15.167 120 -45.5zM375.001 350.999c0 29.333 -7.33105 51.5 -21.998 66.5s-35.334 22.5 -62.001 22.5c-32 0 -61.833 -11.667 -89.5 -35s-47.834 -57.333 -60.501 -102h228c4 18 6 34 6 48z" />
    <glyph glyph-name="igrave" unicode="&#xec;" horiz-adv-x="290" 
d="M83 750h83l79 -150h-83zM145 430h-70l10 70h150l-70 -500h-80z" />
    <glyph glyph-name="iacute" unicode="&#xed;" horiz-adv-x="290" 
d="M261 750h87l-121 -150h-87zM145 430h-70l10 70h150l-70 -500h-80z" />
    <glyph glyph-name="icircumflex" unicode="&#xee;" horiz-adv-x="290" 
d="M172 750h81.001l72 -150h-77l-26 67l-2 31c-1.33301 5.33301 -3 8 -5 8c-2.66699 0 -5.33398 -2.33301 -8.00098 -7l-66 -99h-81zM145.001 430h-70l10 70h150l-70 -500h-80z" />
    <glyph glyph-name="idieresis" unicode="&#xef;" horiz-adv-x="290" 
d="M86 700h81l-14 -100h-81zM236 700h81l-14 -100h-81zM145 430h-70l10 70h150l-70 -500h-80z" />
    <glyph glyph-name="eth" unicode="&#xf0;" horiz-adv-x="539" 
d="M431 625c27.333 -56 40.998 -127.665 40.998 -214.998c0 -49.333 -4.16699 -100 -12.5 -152s-19.166 -94.333 -32.499 -127c-17.333 -45.333 -44 -80.333 -80 -105s-77.333 -37 -124 -37c-37.333 0 -69 8.5 -95 25.5s-45.5 39.5 -58.5 67.5s-19.5 58.333 -19.5 91
c0 30.667 3 64.667 9 102s14 68.666 24 93.999c17.333 45.333 43.833 80.333 79.5 105s76.834 37 123.501 37c24.667 0 44.667 -3.33301 60 -10l33 -48c2 -2.66699 4.66699 -4 8 -4c6 0 9 4.33301 9 13c0 45.333 -14.333 92 -43 140l-176 -51l-18 62l156 45
c-31.333 38 -66.333 68.667 -105 92h112c30 -20.667 55 -43.334 75 -68.001l126 36l18 -61zM377.998 233.002c5.33301 34 8 63.999 8 89.999c0 33.333 -8.83301 61.166 -26.5 83.499s-43.834 33.5 -78.501 33.5c-31.333 0 -57.166 -8 -77.499 -24s-36.833 -39.667 -49.5 -71
c-8 -20 -14.667 -46.167 -20 -78.5s-8 -62.166 -8 -89.499c0 -33.333 8.5 -61.166 25.5 -83.499s42.5 -33.5 76.5 -33.5c32 0 58.167 8 78.5 24s37.5 39.667 51.5 71c8 18 14.667 44 20 78z" />
    <glyph glyph-name="ntilde" unicode="&#xf1;" horiz-adv-x="547" 
d="M234 623.5c-11.333 -7 -24.001 -18.167 -38.001 -33.5l-13 58c25.333 31.333 55.333 47 90 47c16.667 0 30.667 -2 42 -6s23 -9.66699 35 -17c11.333 -6 19.833 -10.167 25.5 -12.5s12.834 -3.5 21.501 -3.5c13.333 0 25.666 3.5 36.999 10.5s24 18.167 38 33.5l13 -58
c-25.333 -31.333 -55.333 -47 -90 -47c-16.667 0 -30.667 2 -42 6s-23 9.66699 -35 17c-10.667 6 -19.167 10.167 -25.5 12.5s-13.5 3.5 -21.5 3.5c-13.333 0 -25.666 -3.5 -36.999 -10.5zM442.499 472.5c25 -25 37.499 -58.833 37.499 -101.5
c0 -6 -0.666992 -16.333 -2 -31l-46 -340h-80l46 344c1.33301 12 2 20 2 24c0 46 -23 69 -69 69c-20.667 0 -40 -3.16699 -58 -9.5s-44 -19.833 -78 -40.5l-55 -387h-80l57 412l-57 28l33 70l101 -49c2.66699 -1.33301 5 -2 7 -2c2.66699 0 5.33398 1.33301 8.00098 4l12 12
c20.667 12.667 39.5 21.667 56.5 27s36.167 8 57.5 8c46.667 0 82.5 -12.5 107.5 -37.5z" />
    <glyph glyph-name="ograve" unicode="&#xf2;" horiz-adv-x="510" 
d="M193 750h83l79 -150h-83zM128 14.5c-26 17 -45.501 39.5 -58.501 67.5s-19.5 58.333 -19.5 91c0 30.667 3 64.667 9 102s14 68.666 24 93.999c17.333 45.333 43.833 80.333 79.5 105s76.834 37 123.501 37c38 0 70 -8.5 96 -25.5s45.5 -39.5 58.5 -67.5
s19.5 -58.333 19.5 -91c0 -30.667 -3 -64.667 -9 -102s-14 -68.666 -24 -93.999c-17.333 -45.333 -44 -80.333 -80 -105s-77.333 -37 -124 -37c-37.333 0 -69 8.5 -95 25.5zM306.499 84c20.333 16 36.832 39.666 49.499 70.999c8 18 14.667 44 20 78s8 64 8 90
c0 33.333 -8.5 61.166 -25.5 83.499s-42.833 33.5 -77.5 33.5c-31.333 0 -57.166 -8 -77.499 -24s-36.833 -39.667 -49.5 -71c-8 -20 -14.667 -46.167 -20 -78.5s-8 -62.166 -8 -89.499c0 -33.333 8.5 -61.166 25.5 -83.499s42.5 -33.5 76.5 -33.5c32 0 58.167 8 78.5 24z
" />
    <glyph glyph-name="oacute" unicode="&#xf3;" horiz-adv-x="510" 
d="M371 750h87l-121 -150h-87zM128 14.5c-26 17 -45.501 39.5 -58.501 67.5s-19.5 58.333 -19.5 91c0 30.667 3 64.667 9 102s14 68.666 24 93.999c17.333 45.333 43.833 80.333 79.5 105s76.834 37 123.501 37c38 0 70 -8.5 96 -25.5s45.5 -39.5 58.5 -67.5
s19.5 -58.333 19.5 -91c0 -30.667 -3 -64.667 -9 -102s-14 -68.666 -24 -93.999c-17.333 -45.333 -44 -80.333 -80 -105s-77.333 -37 -124 -37c-37.333 0 -69 8.5 -95 25.5zM306.499 84c20.333 16 36.832 39.666 49.499 70.999c8 18 14.667 44 20 78s8 64 8 90
c0 33.333 -8.5 61.166 -25.5 83.499s-42.833 33.5 -77.5 33.5c-31.333 0 -57.166 -8 -77.499 -24s-36.833 -39.667 -49.5 -71c-8 -20 -14.667 -46.167 -20 -78.5s-8 -62.166 -8 -89.499c0 -33.333 8.5 -61.166 25.5 -83.499s42.5 -33.5 76.5 -33.5c32 0 58.167 8 78.5 24z
" />
    <glyph glyph-name="ocircumflex" unicode="&#xf4;" horiz-adv-x="510" 
d="M282 750h81.001l72 -150h-77l-26 67l-2 31c-1.33301 5.33301 -3 8 -5 8c-2.66699 0 -5.33398 -2.33301 -8.00098 -7l-66 -99h-81zM128.001 14.5c-26 17 -45.501 39.5 -58.501 67.5s-19.5 58.333 -19.5 91c0 30.667 3 64.667 9 102s14 68.666 24 93.999
c17.333 45.333 43.833 80.333 79.5 105s76.834 37 123.501 37c38 0 70 -8.5 96 -25.5s45.5 -39.5 58.5 -67.5s19.5 -58.333 19.5 -91c0 -30.667 -3 -64.667 -9 -102s-14 -68.666 -24 -93.999c-17.333 -45.333 -44 -80.333 -80 -105s-77.333 -37 -124 -37
c-37.333 0 -69 8.5 -95 25.5zM306.5 84c20.333 16 36.832 39.666 49.499 70.999c8 18 14.667 44 20 78s8 64 8 90c0 33.333 -8.5 61.166 -25.5 83.499s-42.833 33.5 -77.5 33.5c-31.333 0 -57.166 -8 -77.499 -24s-36.833 -39.667 -49.5 -71
c-8 -20 -14.667 -46.167 -20 -78.5s-8 -62.166 -8 -89.499c0 -33.333 8.5 -61.166 25.5 -83.499s42.5 -33.5 76.5 -33.5c32 0 58.167 8 78.5 24z" />
    <glyph glyph-name="otilde" unicode="&#xf5;" horiz-adv-x="510" 
d="M159 648c25.333 31.333 55.333 47 90 47c16.667 0 30.667 -2 42 -6s23 -9.66699 35 -17c10.667 -6 19.167 -10.167 25.5 -12.5s13.5 -3.5 21.5 -3.5c13.333 0 25.666 3.5 36.999 10.5s24 18.167 38 33.5l13 -58c-25.333 -31.333 -55.333 -47 -90 -47
c-16.667 0 -30.667 2 -42 6s-23 9.66699 -35 17c-10.667 6 -19.167 10.167 -25.5 12.5s-13.5 3.5 -21.5 3.5c-13.333 0 -25.666 -3.5 -36.999 -10.5s-24 -18.167 -38 -33.5zM128 14.5c-26 17 -45.501 39.5 -58.501 67.5s-19.5 58.333 -19.5 91c0 30.667 3 64.667 9 102
s14 68.666 24 93.999c17.333 45.333 43.833 80.333 79.5 105s76.834 37 123.501 37c38 0 70 -8.5 96 -25.5s45.5 -39.5 58.5 -67.5s19.5 -58.333 19.5 -91c0 -30.667 -3 -64.667 -9 -102s-14 -68.666 -24 -93.999c-17.333 -45.333 -44 -80.333 -80 -105
s-77.333 -37 -124 -37c-37.333 0 -69 8.5 -95 25.5zM306.499 84c20.333 16 36.832 39.666 49.499 70.999c8 18 14.667 44 20 78s8 64 8 90c0 33.333 -8.5 61.166 -25.5 83.499s-42.833 33.5 -77.5 33.5c-31.333 0 -57.166 -8 -77.499 -24s-36.833 -39.667 -49.5 -71
c-8 -20 -14.667 -46.167 -20 -78.5s-8 -62.166 -8 -89.499c0 -33.333 8.5 -61.166 25.5 -83.499s42.5 -33.5 76.5 -33.5c32 0 58.167 8 78.5 24z" />
    <glyph glyph-name="odieresis" unicode="&#xf6;" horiz-adv-x="510" 
d="M192 700h81l-14 -100h-81zM363 700h81l-14 -100h-81zM128 14.5c-26 17 -45.501 39.5 -58.501 67.5s-19.5 58.333 -19.5 91c0 30.667 3 64.667 9 102s14 68.666 24 93.999c17.333 45.333 43.833 80.333 79.5 105s76.834 37 123.501 37c38 0 70 -8.5 96 -25.5
s45.5 -39.5 58.5 -67.5s19.5 -58.333 19.5 -91c0 -30.667 -3 -64.667 -9 -102s-14 -68.666 -24 -93.999c-17.333 -45.333 -44 -80.333 -80 -105s-77.333 -37 -124 -37c-37.333 0 -69 8.5 -95 25.5zM306.499 84c20.333 16 36.832 39.666 49.499 70.999c8 18 14.667 44 20 78
s8 64 8 90c0 33.333 -8.5 61.166 -25.5 83.499s-42.833 33.5 -77.5 33.5c-31.333 0 -57.166 -8 -77.499 -24s-36.833 -39.667 -49.5 -71c-8 -20 -14.667 -46.167 -20 -78.5s-8 -62.166 -8 -89.499c0 -33.333 8.5 -61.166 25.5 -83.499s42.5 -33.5 76.5 -33.5
c32 0 58.167 8 78.5 24z" />
    <glyph glyph-name="divide" unicode="&#xf7;" horiz-adv-x="580" 
d="M297 600h85l-14 -100h-85zM69 385h480l-10 -70h-480zM241 200h85l-14 -100h-85z" />
    <glyph glyph-name="oslash" unicode="&#xf8;" horiz-adv-x="510" 
d="M444 411c10.667 -25.333 15.999 -53.333 15.999 -84s-3 -64.667 -9 -102s-14 -68.666 -24 -93.999c-17.333 -45.333 -44 -80.333 -80 -105s-77.333 -37 -124 -37c-51.333 0 -92.333 16 -123 48l-34 -37h-82l82 89c-10.667 25.333 -16 53.333 -16 84s3 64.667 9 102
s14 68.666 24 93.999c17.333 45.333 43.833 80.333 79.5 105s76.834 37 123.501 37c51.333 0 92.333 -16 123 -48l34 37h82zM126.999 156l231 250.999c-18.667 22 -44.334 33 -77.001 33c-31.333 0 -57.166 -8 -77.499 -24s-36.833 -39.667 -49.5 -71
c-8 -20 -14.667 -46.167 -20 -78.5s-8 -62.166 -8 -89.499c0 -9.33301 0.333008 -16.333 1 -21zM382.999 344.999l-230.999 -252c17.333 -22 42.666 -33 75.999 -33c32 0 58.167 8 78.5 24s36.833 39.667 49.5 71c8 18 14.667 44 20 78s8 64 8 90
c0 10 -0.333008 17.333 -1 22z" />
    <glyph glyph-name="ugrave" unicode="&#xf9;" horiz-adv-x="520" 
d="M209 750h83l79 -150h-83zM86 23.5c-24.667 23 -37 54.168 -37 93.501c0 5.33301 0.666992 14.666 2 27.999l47 355h80l-47 -361c-0.666992 -3.33301 -1 -8 -1 -14c0 -21.333 6.33301 -37 19 -47s30.334 -15 53.001 -15c12 0 27 3.83301 45 11.5s49.333 24.167 94 49.5
l49 376h80l-71 -500h-75l4 25v4c0 6 -2.66699 9 -8 9c-4 0 -7 -0.666992 -9 -2l-73 -40c-18.667 -4.66699 -35.334 -7 -50.001 -7c-43.333 0 -77.333 11.5 -102 34.5z" />
    <glyph glyph-name="uacute" unicode="&#xfa;" horiz-adv-x="520" 
d="M387 750h87l-121 -150h-87zM86 23.5c-24.667 23 -37 54.168 -37 93.501c0 5.33301 0.666992 14.666 2 27.999l47 355h80l-47 -361c-0.666992 -3.33301 -1 -8 -1 -14c0 -21.333 6.33301 -37 19 -47s30.334 -15 53.001 -15c12 0 27 3.83301 45 11.5s49.333 24.167 94 49.5
l49 376h80l-71 -500h-75l4 25v4c0 6 -2.66699 9 -8 9c-4 0 -7 -0.666992 -9 -2l-73 -40c-18.667 -4.66699 -35.334 -7 -50.001 -7c-43.333 0 -77.333 11.5 -102 34.5z" />
    <glyph glyph-name="ucircumflex" unicode="&#xfb;" horiz-adv-x="520" 
d="M298 750h81.001l72 -150h-77l-26 67l-2 31c-1.33301 5.33301 -3 8 -5 8c-2.66699 0 -5.33398 -2.33301 -8.00098 -7l-66 -99h-81zM86.001 23.5c-24.667 23 -37 54.168 -37 93.501c0 5.33301 0.666992 14.666 2 27.999l47 355h80l-47 -361
c-0.666992 -3.33301 -1 -8 -1 -14c0 -21.333 6.33301 -37 19 -47s30.334 -15 53.001 -15c12 0 27 3.83301 45 11.5s49.333 24.167 94 49.5l49 376h80l-71 -500h-75l4 25v4c0 6 -2.66699 9 -8 9c-4 0 -7 -0.666992 -9 -2l-73 -40c-18.667 -4.66699 -35.334 -7 -50.001 -7
c-43.333 0 -77.333 11.5 -102 34.5z" />
    <glyph glyph-name="udieresis" unicode="&#xfc;" horiz-adv-x="520" 
d="M208 700h81l-14 -100h-81zM379 700h81l-14 -100h-81zM86 23.5c-24.667 23 -37 54.168 -37 93.501c0 5.33301 0.666992 14.666 2 27.999l47 355h80l-47 -361c-0.666992 -3.33301 -1 -8 -1 -14c0 -21.333 6.33301 -37 19 -47s30.334 -15 53.001 -15
c12 0 27 3.83301 45 11.5s49.333 24.167 94 49.5l49 376h80l-71 -500h-75l4 25v4c0 6 -2.66699 9 -8 9c-4 0 -7 -0.666992 -9 -2l-73 -40c-18.667 -4.66699 -35.334 -7 -50.001 -7c-43.333 0 -77.333 11.5 -102 34.5z" />
    <glyph glyph-name="yacute" unicode="&#xfd;" horiz-adv-x="470" 
d="M351 750h87l-121 -150h-87zM15 -155c34.667 14 62.001 30.1689 82.001 48.502s38 44.166 54 77.499l20 41l-115 488h82l64 -269l8 -98c1.33301 -5.33301 3.33301 -8 6 -8c4 0 7 2.66699 9 8l165 367h85l-255 -550c-20 -44 -44.833 -79.833 -74.5 -107.5
s-65.834 -48.834 -108.501 -63.501z" />
    <glyph glyph-name="thorn" unicode="&#xfe;" horiz-adv-x="520" 
d="M50 -4l57.999 415.999l42 288h66l-32 -239c30 16.667 56.167 29 78.5 37s44.5 12 66.5 12c39.333 0 73 -12.333 101 -37s42 -69 42 -133c0 -80 -15.667 -151.667 -47 -215c-20.667 -41.333 -49.5 -74.166 -86.5 -98.499s-78.5 -36.5 -124.5 -36.5
c-19.333 0 -36.666 1.5 -51.999 4.5s-25.333 4.83301 -30 5.5l-30 -200h-80zM302.999 87.999c26.667 18.667 46.665 43.333 59.998 74c22 52.667 33 111 33 175c0 66.667 -27 100 -81 100c-18 0 -37 -4 -57 -12s-44.667 -21.333 -74 -40l-44 -315
c26.667 -6.66699 49.334 -10 68.001 -10c36.667 0 68.334 9.33301 95.001 28z" />
    <glyph glyph-name="ydieresis" unicode="&#xff;" horiz-adv-x="470" 
d="M172 700h81l-14 -100h-81zM343 700h81l-14 -100h-81zM15 -155c34.667 14 62.001 30.1689 82.001 48.502s38 44.166 54 77.499l20 41l-115 488h82l64 -269l8 -98c1.33301 -5.33301 3.33301 -8 6 -8c4 0 7 2.66699 9 8l165 367h85l-255 -550
c-20 -44 -44.833 -79.833 -74.5 -107.5s-65.834 -48.834 -108.501 -63.501z" />
    <glyph glyph-name="Ccaron" unicode="&#x10c;" horiz-adv-x="503" 
d="M245 920h73l31 -67l3 -31c1.33301 -4 3 -6 5 -6c2.66699 0 5 2 7 6l69 98h77l-116 -150h-75zM278 -12c-46 0 -85.167 10.333 -117.5 31s-56.5 48.167 -72.5 82.5s-24 71.833 -24 112.5c0 48 4.66699 101.667 14 161s22 112.333 38 159
c16.667 55.333 44.834 98.833 84.501 130.5s91.5 47.5 155.5 47.5c67.333 0 121 -22.667 161 -68l-34 -69c-14 19.333 -32.333 34.333 -55 45s-49.334 16 -80.001 16c-80 0 -132.667 -41 -158 -123c-14 -41.333 -25.333 -90 -34 -146s-13 -106.667 -13 -152
c0 -48 12.5 -85.167 37.5 -111.5s60.167 -39.5 105.5 -39.5c24 0 47.833 5 71.5 15s44.167 22.667 61.5 38l20 -78c-41.333 -34 -95 -51 -161 -51z" />
    <glyph glyph-name="ccaron" unicode="&#x10d;" horiz-adv-x="450" 
d="M192 750h73l31 -67l3 -31c1.33301 -4 3 -6 5 -6c2.66699 0 5 2 7 6l69 98h77l-116 -150h-75zM130.5 13.5c-26.333 15.667 -46.501 36.665 -60.501 62.998s-21 54.833 -21 85.5c0 56.667 7.33301 111 22 163c15.333 54 42.5 98.333 81.5 133s84.5 52 136.5 52
c26.667 0 51.334 -3.83301 74.001 -11.5s45.667 -19.167 69 -34.5l-29 -63c-20.667 12.667 -39.834 22 -57.501 28s-37.167 9 -58.5 9c-36 0 -66.333 -12.167 -91 -36.5s-42.667 -57.166 -54 -98.499s-17 -80.333 -17 -117c0 -36 8.5 -66 25.5 -90s42.833 -36 77.5 -36
c18 0 34.833 3.83301 50.5 11.5s37.5 23.834 65.5 48.501l60 -29c-33.333 -38.667 -64.5 -65.167 -93.5 -79.5s-58.167 -21.5 -87.5 -21.5c-35.333 0 -66.166 7.83301 -92.499 23.5z" />
    <glyph glyph-name="Dcroat" unicode="&#x110;" horiz-adv-x="613" 
d="M525.5 640.5c36.333 -39.667 54.5 -91.501 54.5 -155.501c0 -10.667 -0.333008 -18.667 -1 -24c-4 -64 -15.333 -142.667 -34 -236c-14 -71.333 -44.5 -126.666 -91.5 -165.999s-109.833 -59 -188.5 -59h-190l44 315h-124l10 69h124l44 316h186
c74.667 0 130.167 -19.833 166.5 -59.5zM466.5 586.999c-23.667 26.667 -61.499 40 -113.499 40h-110l-34 -243h87l-10 -69h-87l-34 -243h106c55.333 0 99.5 15.333 132.5 46s55.833 72.667 68.5 126c7.33301 31.333 14.166 71 20.499 119s9.5 86.333 9.5 115
c0 46 -11.833 82.333 -35.5 109z" />
    <glyph glyph-name="dcroat" unicode="&#x111;" horiz-adv-x="542" 
d="M595 576l-114.999 0.000976562l-10 -72l-58 -416l58 -28l-33 -70l-106 53c-2.66699 1.33301 -4.66699 2 -6 2c-2.66699 0 -5.33398 -1.33301 -8.00098 -4l-14 -15c-26 -15.333 -45.667 -25.166 -59 -29.499s-27.666 -6.5 -42.999 -6.5
c-40.667 0 -76.334 12.5 -107.001 37.5s-46 68.5 -46 130.5c0 81.333 15.667 153.666 47 216.999c20.667 41.333 49.5 74.166 86.5 98.499s78.5 36.5 124.5 36.5c17.333 0 35 -1 53 -3l29 -7l12 76h-96l10 69h96l15 105h80l-15 -105h115zM255.001 73.001
c14.667 6.66699 42.001 22.334 82.001 47.001l43 310c-26.667 6.66699 -49.334 10 -68.001 10c-36.667 0 -68.334 -9.33301 -95.001 -28s-46.667 -43.334 -60 -74.001c-11.333 -26 -19.666 -53.667 -24.999 -83s-8 -63.333 -8 -102c0 -32 8.33301 -55 25 -69
s37.667 -21 63 -21c14 0 28.333 3.33301 43 10z" />
    <glyph glyph-name="Gbreve" unicode="&#x11e;" horiz-adv-x="600" 
d="M303.5 807c-26.333 20 -41.168 48.667 -44.501 86l61 13c4.66699 -23.333 13.334 -40.833 26.001 -52.5s30.667 -17.5 54 -17.5c48 0 84 24.667 108 74l58 -21c-14 -37.333 -36 -65.333 -66 -84s-63 -28 -99 -28c-38.667 0 -71.167 10 -97.5 30zM162.998 14.5
c-33.333 17.667 -59 42.001 -77 73.001s-27 66.5 -27 106.5c0 38 4.5 86.667 13.5 146s19.167 112.666 30.5 159.999c20 80.667 52.333 136.167 97 166.5s103.667 45.5 177 45.5c35.333 0 67.5 -5.5 96.5 -16.5s53.5 -26.5 73.5 -46.5l-33 -68c-20 19.333 -40.667 33 -62 41
s-47 12 -77 12c-53.333 0 -96.666 -11.333 -129.999 -34s-56.333 -65.667 -69 -129c-11.333 -56.667 -20.333 -106.667 -27 -150s-10 -81 -10 -113c0 -44 12 -78.667 36 -104s60 -38 108 -38c20 0 39.667 1.66699 59 5s34 8 44 14l33 226h-81l11 78h238l-11 -78h-74
l-36 -270c-28.667 -18 -57.334 -31.333 -86.001 -40s-62 -13 -100 -13c-44.667 0 -83.667 8.83301 -117 26.5z" />
    <glyph glyph-name="gbreve" unicode="&#x11f;" horiz-adv-x="514" 
d="M217.5 637c-26.333 20 -41.168 48.667 -44.501 86l61 13c4.66699 -23.333 13.334 -40.833 26.001 -52.5s30.667 -17.5 54 -17.5c48 0 84 24.667 108 74l58 -21c-14 -37.333 -36 -65.333 -66 -84s-63 -28 -99 -28c-38.667 0 -71.167 10 -97.5 30zM64.498 -187.5
c-28.333 11 -50.1689 24.1699 -65.502 39.5029l26 70c16 -17.333 36 -31 60 -41s51 -15 81 -15c39.333 0 73 11 101 33s45.667 52 53 90l6 33v4c0 6.66699 -2.66699 10 -8 10c-2.66699 0 -5.66699 -1 -9 -3l-68 -37c-14 -4 -28.667 -6 -44 -6
c-40.667 0 -75.667 12.167 -105 36.5s-44 68.166 -44 131.499c0 81.333 15.667 153.666 47 216.999c20.667 41.333 49.5 74.166 86.5 98.499s78.5 36.5 124.5 36.5c20.667 0 38.334 -1 53.001 -3l38 -9l7 -1l9 1l57 6l-74 -487c-12 -76 -39.667 -131.833 -83 -167.5
s-97.333 -53.5 -162 -53.5c-29.333 0 -58.166 5.5 -86.499 16.5zM250.995 76.0029c20.667 8.66699 50.334 24.001 89.001 46.001l41 308c-24 6.66699 -47 10 -69 10c-35.333 0 -66.333 -8.83301 -93 -26.5s-47.334 -42.834 -62.001 -75.501
c-11.333 -26 -19.666 -53.667 -24.999 -83s-8 -63.333 -8 -102c0 -34 7.66699 -57.5 23 -70.5s33.666 -19.5 54.999 -19.5c12 0 28.333 4.33301 49 13z" />
    <glyph glyph-name="Idotaccent" unicode="&#x130;" horiz-adv-x="423" 
d="M259 870h80l-14 -100h-80zM26 76h120l77 548h-120l10 76h323l-10 -76h-120l-77 -548h120l-11 -76h-323z" />
    <glyph glyph-name="dotlessi" unicode="&#x131;" horiz-adv-x="290" 
d="M145 430h-70l10 70h150l-70 -500h-80z" />
    <glyph glyph-name="IJ" unicode="&#x132;" horiz-adv-x="827" 
d="M26 76h120l77 548h-120l10 76h323l-10 -76h-120l-77 -548h120l-11 -76h-323zM459.5 -6.5c-18.333 3.66699 -32.8301 8.5 -43.4971 14.5l10 81c25.333 -15.333 56.333 -23 93 -23c73.333 0 115.666 40 126.999 120l61 436h-160l11 78h242l-74 -528
c-8.66699 -60.667 -31.334 -106.5 -68.001 -137.5s-83.334 -46.5 -140.001 -46.5c-20.667 0 -40.167 1.83301 -58.5 5.5z" />
    <glyph glyph-name="ij" unicode="&#x133;" horiz-adv-x="541" 
d="M153 700h80l-14 -100h-80zM115 430h-70l10 70h150l-70 -500h-80zM438 700h80l-14 -100h-80zM208 -153c34.667 9.33301 64 27.333 88 54s39 62 45 106l59 423h-70l10 70h151l-71 -497c-9.33301 -61.333 -29.833 -110 -61.5 -146s-74.167 -62.667 -127.5 -80z" />
    <glyph glyph-name="Eng" unicode="&#x14a;" horiz-adv-x="623" 
d="M596 700l-97.9971 -699.999l-10 -67c-7.33301 -46 -26.333 -82.167 -57 -108.5s-69.334 -39.5 -116.001 -39.5c-22 0 -44.167 5 -66.5 15s-41.5 23.333 -57.5 40l43 59c10.667 -12.667 23.667 -22.667 39 -30s31 -11 47 -11c23.333 0 43.166 7.33301 59.499 22
s26.166 33.667 29.499 57l9 63h-2l-203 519c-2 5.33301 -4.66699 8 -8 8c-2.66699 0 -4.83398 -1.33301 -6.50098 -4s-2.5 -6.33398 -2.5 -11.001l-3 -98l-58 -414h-80l98 700h70l213 -549c2.66699 -4.66699 5.33398 -7 8.00098 -7c2 0 3.83301 1.33301 5.5 4
s2.5 6.66699 2.5 12l2 95l62 445h80z" />
    <glyph glyph-name="eng" unicode="&#x14b;" horiz-adv-x="537" 
d="M442.5 472.5c25 -25 37.501 -58.833 37.501 -101.5c0 -6 -0.666992 -16.333 -2 -31l-46 -340c-8.66699 -60 -27.334 -108 -56.001 -144s-67 -62.333 -115 -79l-23 70c29.333 8.66699 54.166 26 74.499 52s33.5 59.667 39.5 101l46 344c1.33301 12 2 20 2 24
c0 46 -23 69 -69 69c-20.667 0 -40 -3.16699 -58 -9.5s-44 -19.833 -78 -40.5l-55 -387h-80l57 412l-57 28l33 70l101 -49c2.66699 -1.33301 5 -2 7 -2c2.66699 0 5.33398 1.33301 8.00098 4l12 12c20.667 12.667 39.5 21.667 56.5 27s36.167 8 57.5 8
c46.667 0 82.5 -12.5 107.5 -37.5z" />
    <glyph glyph-name="OE" unicode="&#x152;" horiz-adv-x="932" 
d="M599 622l-32 -233h308l-11 -78h-308l-33 -233h325l-11 -78h-403l4 35v1c0 4.66699 -2.33301 7 -7 7c-2.66699 0 -6 -1 -10 -3l-54 -34c-26.667 -12 -56.334 -18 -89.001 -18c-46 0 -85.167 10.333 -117.5 31s-56.5 48.167 -72.5 82.5s-24 71.833 -24 112.5
c0 48 4.66699 101.667 14 161s22 112.333 38 159c16.667 55.333 44.834 98.833 84.501 130.5s91.5 47.5 155.5 47.5c25.333 0 47.333 -2.83301 66 -8.5s33.667 -12.5 45 -20.5l41 -40c2 -2 4.66699 -3 8 -3c4 0 6.66699 2.66699 8 8l8 52h403l-11 -78h-325zM180.5 103.5
c25 -26.333 60.167 -39.5 105.5 -39.5c81.333 0 134.333 41 159 123c13.333 42 24.5 91.167 33.5 147.5s13.5 106.5 13.5 150.5c0 48 -12.5 85.167 -37.5 111.5s-60.5 39.5 -106.5 39.5c-80 0 -132.667 -41 -158 -123c-14 -41.333 -25.333 -90 -34 -146
s-13 -106.667 -13 -152c0 -48 12.5 -85.167 37.5 -111.5z" />
    <glyph glyph-name="oe" unicode="&#x153;" horiz-adv-x="805" 
d="M735.5 463.5c25 -31 37.501 -71.166 37.501 -120.499c0 -24.667 -2.33301 -47.667 -7 -69l-29 -42l-285 1c-2 -14 -3 -30.667 -3 -50c0 -38.667 9.33301 -68.834 28 -90.501s46 -32.5 82 -32.5c20 0 38.5 4.83301 55.5 14.5s35.167 24.834 54.5 45.501l60 -29
c-31.333 -35.333 -61 -61 -89 -77s-57.667 -24 -89 -24c-54.667 0 -97.334 16.667 -128.001 50l-21 42c-2 4.66699 -4.33301 7 -7 7s-5 -2 -7 -6l-30 -46c-33.333 -32 -78.333 -48 -135 -48c-37.333 0 -69 8.5 -95 25.5s-45.5 39.5 -58.5 67.5s-19.5 58.333 -19.5 91
c0 30.667 3 64.667 9 102s14 68.666 24 93.999c17.333 45.333 43.833 80.333 79.5 105s76.834 37 123.501 37c55.333 0 97.666 -17 126.999 -51l19 -44c2.66699 -4.66699 5 -7 7 -7c2.66699 0 5 2 7 6l28 43c17.333 17.333 38.333 30.333 63 39s51 13 79 13
c54.667 0 94.5 -15.5 119.5 -46.5zM306.501 84.001c20.333 16 36.832 39.666 49.499 70.999c8 18 14.667 44 20 78s8 64 8 90c0 33.333 -8.5 61.166 -25.5 83.499s-42.833 33.5 -77.5 33.5c-31.333 0 -57.166 -8 -77.499 -24s-36.833 -39.667 -49.5 -71
c-8 -20 -14.667 -46.167 -20 -78.5s-8 -62.166 -8 -89.499c0 -33.333 8.5 -61.166 25.5 -83.499s42.5 -33.5 76.5 -33.5c32 0 58.167 8 78.5 24zM699 353c0 28 -7.16699 49.501 -21.5 64.501s-35.166 22.5 -62.499 22.5c-32 0 -61.833 -11.833 -89.5 -35.5
s-47.834 -57.834 -60.501 -102.501l228 2c4 18 6 34.333 6 49z" />
    <glyph glyph-name="Scedilla" unicode="&#x15e;" horiz-adv-x="483" 
d="M239.5 617c-23.667 -12 -41.334 -27.6641 -53.001 -46.9971s-17.5 -39.333 -17.5 -60c0 -22.667 7 -42.167 21 -58.5s33.333 -28.833 58 -37.5l35 -12c50 -17.333 87.333 -41.333 112 -72s37 -70 37 -118c0 -36 -9.5 -70.5 -28.5 -103.5s-45.333 -60.167 -79 -81.5
s-71.834 -33.333 -114.501 -36l-19 -42c27.333 -3.33301 48.833 -11.833 64.5 -25.5s23.5 -30.834 23.5 -51.501c0 -38 -22 -67.833 -66 -89.5s-97 -32.5 -159 -32.5l22 62c40.667 0 73.334 5.33301 98.001 16s37 25 37 43c0 10 -7.66699 16.667 -23 20s-41.333 5 -78 5
l36 98c-30 4.66699 -58.5 12.834 -85.5 24.501s-48.167 24.834 -63.5 39.501l30 70c20 -19.333 44.667 -34.333 74 -45s58.666 -16 87.999 -16c31.333 0 59.333 7.16699 84 21.5s43.834 33.166 57.501 56.499s20.5 47.666 20.5 72.999c0 24.667 -7.33301 46.167 -22 64.5
s-35.667 32.166 -63 41.499l-40 14c-41.333 14 -74.666 35.333 -99.999 64s-38 64.667 -38 108c0 33.333 9 65.333 27 96s45 55.667 81 75s80 29 132 29c26 0 53.667 -4.33301 83 -13s57 -21 83 -37l-25 -70c-22.667 15.333 -46.667 26.666 -72 33.999
s-48.666 11 -69.999 11c-34.667 0 -63.834 -6 -87.501 -18z" />
    <glyph glyph-name="scedilla" unicode="&#x15f;" horiz-adv-x="452" 
d="M181.5 421c-17.667 -12 -26.5 -28.333 -26.5 -49c0 -16.667 4.66699 -29.667 14 -39s24.666 -18 45.999 -26l49 -18c41.333 -15.333 72.333 -34.166 93 -56.499s31 -50.833 31 -85.5c0 -30.667 -7.5 -58 -22.5 -82s-36 -42.833 -63 -56.5s-57.5 -20.5 -91.5 -20.5h-4
l-18 -39c27.333 -3.33301 48.833 -11.833 64.5 -25.5s23.5 -30.834 23.5 -51.501c0 -38 -22 -67.833 -66 -89.5s-97 -32.5 -159 -32.5l22 62c40.667 0 73.334 5.33301 98.001 16s37 25 37 43c0 10 -7.66699 16.667 -23 20s-41.333 5 -78 5l36 98
c-24.667 4.66699 -47.167 11.5 -67.5 20.5s-36.5 18.833 -48.5 29.5l26 70c18 -17.333 40.667 -30.666 68 -39.999s56.333 -14 87 -14c31.333 0 56.5 7.16699 75.5 21.5s28.5 33.5 28.5 57.5c0 20.667 -5 37.167 -15 49.5s-26.333 22.5 -49 30.5l-49 18
c-40.667 14.667 -71 32.167 -91 52.5s-30 46.166 -30 77.499c0 42.667 16.167 77.5 48.5 104.5s73.833 40.5 124.5 40.5c30 0 59 -3.83301 87 -11.5s53.333 -18.5 76 -32.5l-25 -64c-41.333 23.333 -87.666 35 -138.999 35c-28.667 0 -51.834 -6 -69.501 -18z" />
    <glyph glyph-name="Scaron" unicode="&#x160;" horiz-adv-x="483" 
d="M190 920h73l31 -67l3 -31c1.33301 -4 3 -6 5 -6c2.66699 0 5 2 7 6l69 98h77l-116 -150h-75zM80.5 10c-36.333 13.333 -64.168 29.3369 -83.501 48.0039l30 70c20 -19.333 44.667 -34.333 74 -45s58.666 -16 87.999 -16c31.333 0 59.333 7.16699 84 21.5
s43.834 33.166 57.501 56.499s20.5 47.666 20.5 72.999c0 24.667 -7.33301 46.167 -22 64.5s-35.667 32.166 -63 41.499l-40 14c-41.333 14 -74.666 35.333 -99.999 64s-38 64.667 -38 108c0 33.333 9 65.333 27 96s45 55.667 81 75s80 29 132 29
c26 0 53.667 -4.33301 83 -13s57 -21 83 -37l-25 -70c-22.667 15.333 -46.667 26.666 -72 33.999s-48.666 11 -69.999 11c-34.667 0 -63.834 -6 -87.501 -18s-41.334 -27.667 -53.001 -47s-17.5 -39.333 -17.5 -60c0 -22.667 7 -42.167 21 -58.5s33.333 -28.833 58 -37.5
l35 -12c50 -17.333 87.333 -41.333 112 -72s37 -70 37 -118c0 -38 -10.333 -74 -31 -108s-49.5 -61.5 -86.5 -82.5s-78.167 -31.5 -123.5 -31.5c-37.333 0 -74.166 6.66699 -110.499 20z" />
    <glyph glyph-name="scaron" unicode="&#x161;" horiz-adv-x="452" 
d="M164 750h73l31 -67l3 -31c1.33301 -4 3 -6 5 -6c2.66699 0 5 2 7 6l69 98h77l-116 -150h-75zM104.5 4c-33 10.667 -58.499 23.999 -76.499 39.999l26 70c18 -17.333 40.667 -30.666 68 -39.999s56.333 -14 87 -14c31.333 0 56.5 7.16699 75.5 21.5s28.5 33.5 28.5 57.5
c0 20.667 -5 37.167 -15 49.5s-26.333 22.5 -49 30.5l-49 18c-40.667 14.667 -71 32.167 -91 52.5s-30 46.166 -30 77.499c0 42.667 16.167 77.5 48.5 104.5s73.833 40.5 124.5 40.5c30 0 59 -3.83301 87 -11.5s53.333 -18.5 76 -32.5l-25 -64
c-41.333 23.333 -87.666 35 -138.999 35c-28.667 0 -51.834 -6 -69.501 -18s-26.5 -28.333 -26.5 -49c0 -16.667 4.66699 -29.667 14 -39s24.666 -18 45.999 -26l49 -18c41.333 -15.333 72.333 -34.166 93 -56.499s31 -50.833 31 -85.5c0 -30.667 -7.5 -58 -22.5 -82
s-36 -42.833 -63 -56.5s-57.5 -20.5 -91.5 -20.5c-38 0 -73.5 5.33301 -106.5 16z" />
    <glyph glyph-name="Tbar" unicode="&#x166;" horiz-adv-x="488" 
d="M337 622l-33 -238h104l-10 -69h-104l-44 -315h-83l44 315h-104l10 69h104l33 238h-172l11 78h428l-11 -78h-173z" />
    <glyph glyph-name="tbar" unicode="&#x167;" horiz-adv-x="330" 
d="M192 430l-20.001 -145.999h138l-10 -69h-138l-15 -109c-0.666992 -2 -1 -5 -1 -9c0 -8.66699 2.5 -15.334 7.5 -20.001s11.833 -7 20.5 -7h91l-10 -70h-87c-31.333 -0 -56.166 8.33301 -74.499 25s-27.5 39 -27.5 67c0 8 0.333008 14 1 18l15 105h-73l10 69h72l21 146
h-87l10 70h74c6.66699 0 12 2.33301 16 7s9 14.5 15 29.5s15 41.167 27 78.5l5 15h48l-18 -130h123l-10 -70h-123z" />
    <glyph glyph-name="Ydieresis" unicode="&#x178;" horiz-adv-x="482" 
d="M202 870h81l-14 -100h-81zM373 870h81l-14 -100h-81zM213 330l-149 370h92l77 -216l15 -77c1.33301 -4 3.33301 -6 6 -6c3.33301 0 6 2 8 6l188 293h96l-253 -370l-47 -330h-80z" />
    <glyph glyph-name="Zcaron" unicode="&#x17d;" horiz-adv-x="507" 
d="M216 920h73l31 -67l3 -31c1.33301 -4 3 -6 5 -6c2.66699 0 5 2 7 6l69 98h77l-116 -150h-75zM17 48l343.999 510l51 60c1.33301 1.33301 2 3.33301 2 6c0 4 -2 6 -6 6h-226l-11 -83h-73l21 153h405l-6 -48l-331 -492l-56 -69c-2.66699 -2.66699 -3.66699 -5.5 -3 -8.5
s2.33398 -4.5 5.00098 -4.5h305l-11 -78h-416z" />
    <glyph glyph-name="zcaron" unicode="&#x17e;" horiz-adv-x="437" 
d="M142 750h73l31 -67l3 -31c1.33301 -4 3 -6 5 -6c2.66699 0 5 2 7 6l69 98h77l-116 -150h-75zM2 48l257 332.999l40 38c2.66699 2.66699 3.66699 5.16699 3 7.5s-2.66699 3.5 -6 3.5h-240l10 70h345l-6 -48l-257 -333l-40 -38c-2 -2 -3 -3.66699 -3 -5
s0.666992 -2.66602 2 -3.99902s3 -2 5 -2h239l-10 -70h-345z" />
    <glyph glyph-name="uni01B7" unicode="&#x1b7;" horiz-adv-x="488" 
d="M481 652l-230.996 -248c63.333 -7.33301 111.5 -25.166 144.5 -53.499s49.5 -67.5 49.5 -117.5c0 -48.667 -10.833 -91 -32.5 -127s-52 -63.667 -91 -83s-84.167 -29 -135.5 -29c-40.667 0 -77.167 6.16699 -109.5 18.5s-62.5 30.833 -90.5 55.5l36 66
c19.333 -19.333 43.666 -34.666 72.999 -45.999s60 -17 92 -17c55.333 0 98.666 14.167 129.999 42.5s47 66.833 47 115.5c-0.666992 33.333 -14.834 59.166 -42.501 77.499s-70.834 27.5 -129.501 27.5h-65l5 46l190 205l51 32c2.66699 2 4 4.33301 4 7
c0 1.33301 -0.666992 2.66602 -2 3.99902s-3 2 -5 2h-281l10 70h389z" />
    <glyph glyph-name="uni01E4" unicode="&#x1e4;" horiz-adv-x="600" 
d="M559 196l-72 0.000976562l-21 -155c-28.667 -18 -57.334 -31.333 -86.001 -40s-62 -13 -100 -13c-44.667 0 -83.667 8.83301 -117 26.5s-59 42 -77 73s-27 66.5 -27 106.5c0 38 4.5 86.667 13.5 146s19.167 112.666 30.5 159.999c20 80.667 52.333 136.167 97 166.5
s103.667 45.5 177 45.5c35.333 0 67.5 -5.5 96.5 -16.5s53.5 -26.5 73.5 -46.5l-33 -68c-20 19.333 -40.667 33 -62 41s-47 12 -77 12c-53.333 0 -96.666 -11.333 -129.999 -34s-56.333 -65.667 -69 -129c-11.333 -56.667 -20.333 -106.667 -27 -150s-10 -81 -10 -113
c0 -44 12 -78.667 36 -104s60 -38 108 -38c20 0 39.667 1.66699 59 5s34 8 44 14l16 111h-81l11 78h81l17 115h83l-16 -115h73z" />
    <glyph glyph-name="uni01E5" unicode="&#x1e5;" horiz-adv-x="524" 
d="M499 -69l-132.002 0.00195312c-20 -42 -47.833 -75 -83.5 -99s-79.834 -36 -132.501 -36c-29.333 0 -58.166 5.5 -86.499 16.5s-50.166 24.167 -65.499 39.5l26 70c16 -17.333 36 -31 60 -41s51 -15 81 -15c51.333 0 91.666 21.667 120.999 65h-119v69h150
c4.66699 18.667 8.33398 34.334 11.001 47.001l6 33v4c0 6.66699 -2.66699 10 -8 10c-2.66699 0 -5.66699 -1 -9 -3l-68 -37c-14 -4 -28.667 -6 -44 -6c-40.667 0 -75.667 12.167 -105 36.5s-44 68.166 -44 131.499c0 29.333 2.5 55.5 7.5 78.5s15.167 49.833 30.5 80.5
c20.667 41.333 49.5 74.166 86.5 98.499s78.5 36.5 124.5 36.5c20.667 0 38.334 -1 53.001 -3l38 -9l7 -1l9 1l57 6l-68 -454c-4 -22.667 -7.33301 -39.334 -10 -50.001h107v-69zM259.998 134.002c20.667 8.66699 50.334 24.0029 89.001 46.0029l32 250
c-24 6.66699 -47 10 -69 10c-35.333 0 -66.333 -8.83301 -93 -26.5s-47.334 -42.834 -62.001 -75.501c-9.33301 -22.667 -15.666 -43.834 -18.999 -63.501s-5 -40.834 -5 -63.501c0 -34 7.66699 -57.5 23 -70.5s33.666 -19.5 54.999 -19.5c12 0 28.333 4.33301 49 13z" />
    <glyph glyph-name="Gcaron" unicode="&#x1e6;" horiz-adv-x="600" 
d="M284 920h73l31 -67l3 -31c1.33301 -4 3 -6 5 -6c2.66699 0 5 2 7 6l69 98h77l-116 -150h-75zM163 14.5c-33.333 17.667 -59 42.001 -77 73.001s-27 66.5 -27 106.5c0 38 4.5 86.667 13.5 146s19.167 112.666 30.5 159.999c20 80.667 52.333 136.167 97 166.5
s103.667 45.5 177 45.5c35.333 0 67.5 -5.5 96.5 -16.5s53.5 -26.5 73.5 -46.5l-33 -68c-20 19.333 -40.667 33 -62 41s-47 12 -77 12c-53.333 0 -96.666 -11.333 -129.999 -34s-56.333 -65.667 -69 -129c-11.333 -56.667 -20.333 -106.667 -27 -150s-10 -81 -10 -113
c0 -44 12 -78.667 36 -104s60 -38 108 -38c20 0 39.667 1.66699 59 5s34 8 44 14l33 226h-81l11 78h238l-11 -78h-74l-36 -270c-28.667 -18 -57.334 -31.333 -86.001 -40s-62 -13 -100 -13c-44.667 0 -83.667 8.83301 -117 26.5z" />
    <glyph glyph-name="gcaron" unicode="&#x1e7;" horiz-adv-x="514" 
d="M198 750h73l31 -67l3 -31c1.33301 -4 3 -6 5 -6c2.66699 0 5 2 7 6l69 98h77l-116 -150h-75zM64.5 -187.5c-28.333 11 -50.1689 24.1699 -65.502 39.5029l26 70c16 -17.333 36 -31 60 -41s51 -15 81 -15c39.333 0 73 11 101 33s45.667 52 53 90l6 33v4
c0 6.66699 -2.66699 10 -8 10c-2.66699 0 -5.66699 -1 -9 -3l-68 -37c-14 -4 -28.667 -6 -44 -6c-40.667 0 -75.667 12.167 -105 36.5s-44 68.166 -44 131.499c0 81.333 15.667 153.666 47 216.999c20.667 41.333 49.5 74.166 86.5 98.499s78.5 36.5 124.5 36.5
c20.667 0 38.334 -1 53.001 -3l38 -9l7 -1l9 1l57 6l-74 -487c-12 -76 -39.667 -131.833 -83 -167.5s-97.333 -53.5 -162 -53.5c-29.333 0 -58.166 5.5 -86.499 16.5zM250.997 76.0029c20.667 8.66699 50.334 24.001 89.001 46.001l41 308c-24 6.66699 -47 10 -69 10
c-35.333 0 -66.333 -8.83301 -93 -26.5s-47.334 -42.834 -62.001 -75.501c-11.333 -26 -19.666 -53.667 -24.999 -83s-8 -63.333 -8 -102c0 -34 7.66699 -57.5 23 -70.5s33.666 -19.5 54.999 -19.5c12 0 28.333 4.33301 49 13z" />
    <glyph glyph-name="uni01E8" unicode="&#x1e8;" horiz-adv-x="538" 
d="M231 920h73l31 -67l3 -31c1.33301 -4 3 -6 5 -6c2.66699 0 5 2 7 6l69 98h77l-116 -150h-75zM153 700h82l-44 -312h72l214 312h93l-237 -345l139 -355h-88l-121 313h-82l-44 -313h-82z" />
    <glyph glyph-name="uni01E9" unicode="&#x1e9;" horiz-adv-x="487" 
d="M220 920h73l31 -67l3 -31c1.33301 -4 3 -6 5 -6c2.66699 0 5 2 7 6l69 98h77l-116 -150h-75zM155 750h82l-62 -441h54l134 191h96l-149 -215l101 -285h-88l-82 239h-76l-33 -239h-82z" />
    <glyph glyph-name="uni01EE" unicode="&#x1ee;" horiz-adv-x="488" 
d="M299 770l-74 150h73l31 -67l3 -31c1.33301 -4 3 -6 5 -6c2.66699 0 5 2 7 6l69 98h77l-116 -150h-75zM98 700h389.004l-6 -48l-231 -248c63.333 -7.33301 111.5 -25.166 144.5 -53.499s49.5 -67.5 49.5 -117.5c0 -48.667 -10.833 -91 -32.5 -127s-52 -63.667 -91 -83
s-84.167 -29 -135.5 -29c-40.667 0 -77.167 6.16699 -109.5 18.5s-62.5 30.833 -90.5 55.5l36 66c19.333 -19.333 43.666 -34.666 72.999 -45.999s60 -17 92 -17c55.333 0 98.666 14.167 129.999 42.5s47 66.833 47 115.5c-0.666992 33.333 -14.834 59.166 -42.501 77.499
s-70.834 27.5 -129.501 27.5h-65l5 46l190 205l51 32c2.66699 2 4 4.33301 4 7c0 1.33301 -0.666992 2.66602 -2 3.99902s-3 2 -5 2h-281z" />
    <glyph glyph-name="uni01EF" unicode="&#x1ef;" horiz-adv-x="478" 
d="M231 600l-74 150h73l31 -67l3 -31c1.33301 -4 3 -6 5 -6c2.66699 0 5 2 7 6l69 98h77l-116 -150h-75zM433 452l-227.999 -246.001c57.333 -5.33301 102.833 -24.333 136.5 -57s50.5 -76 50.5 -130c0 -55.333 -11.5 -103.666 -34.5 -144.999s-55 -73.333 -96 -96
s-88.167 -34 -141.5 -34c-39.333 0 -74.333 6.16699 -105 18.5s-59 30.833 -85 55.5l36 66c18 -19.333 40.833 -34.666 68.5 -45.999s56.5 -17 86.5 -17c38.667 0 72.167 8.33301 100.5 25s50.166 39.667 65.499 69s23 62.666 23 99.999c0 39.333 -13.333 69 -40 89
s-69 30 -127 30h-61l5 46l177 191l52 42c3.33301 2 5 5 5 9c0 5.33301 -3 8 -9 8h-272l10 70h389z" />
    <glyph glyph-name="uni0292" unicode="&#x292;" horiz-adv-x="478" 
d="M433 452l-227.999 -246.001c57.333 -5.33301 102.833 -24.333 136.5 -57s50.5 -76 50.5 -130c0 -55.333 -11.5 -103.666 -34.5 -144.999s-55 -73.333 -96 -96s-88.167 -34 -141.5 -34c-39.333 0 -74.333 6.16699 -105 18.5s-59 30.833 -85 55.5l36 66
c18 -19.333 40.833 -34.666 68.5 -45.999s56.5 -17 86.5 -17c38.667 0 72.167 8.33301 100.5 25s50.166 39.667 65.499 69s23 62.666 23 99.999c0 39.333 -13.333 69 -40 89s-69 30 -127 30h-61l5 46l177 191l52 42c3.33301 2 5 5 5 9c0 5.33301 -3 8 -9 8h-272l10 70h389z
" />
    <glyph glyph-name="uni02B9" unicode="&#x2b9;" horiz-adv-x="135" 
d="M152 750h94l-163 -350h-42z" />
    <glyph glyph-name="uni02BC" unicode="&#x2bc;" horiz-adv-x="283" 
d="M92 517c28.667 10 52.5 26.6699 71.5 50.0029s31.5 51.666 37.5 84.999l-57 -2l14 100h105l-9 -68c-9.33301 -62.667 -28.5 -111.334 -57.5 -146.001s-67.833 -59.334 -116.5 -74.001z" />
    <glyph glyph-name="circumflex" unicode="&#x2c6;" horiz-adv-x="365" 
d="M200 750h81.001l72 -150h-77l-26 67l-2 31c-1.33301 5.33301 -3 8 -5 8c-2.66699 0 -5.33398 -2.33301 -8.00098 -7l-66 -99h-81z" />
    <glyph glyph-name="caron" unicode="&#x2c7;" horiz-adv-x="365" 
d="M121 750h73l31 -67l3 -31c1.33301 -4 3 -6 5 -6c2.66699 0 5 2 7 6l69 98h77l-116 -150h-75z" />
    <glyph glyph-name="uni02C8" unicode="&#x2c8;" horiz-adv-x="134" 
d="M110 750h74l-49 -350h-74z" />
    <glyph glyph-name="breve" unicode="&#x2d8;" horiz-adv-x="428" 
d="M171.5 637c-26.333 20 -41.168 48.667 -44.501 86l61 13c4.66699 -23.333 13.334 -40.833 26.001 -52.5s30.667 -17.5 54 -17.5c48 0 84 24.667 108 74l58 -21c-14 -37.333 -36 -65.333 -66 -84s-63 -28 -99 -28c-38.667 0 -71.167 10 -97.5 30z" />
    <glyph glyph-name="dotaccent" unicode="&#x2d9;" horiz-adv-x="180" 
d="M113 700h80l-14 -100h-80z" />
    <glyph glyph-name="ring" unicode="&#x2da;" horiz-adv-x="442" 
d="M144 592.5c-23.333 14.333 -35.001 37.167 -35.001 68.5c0 8 0.333008 14 1 18c5.33301 34.667 21.5 59.5 48.5 74.5s59.5 22.5 97.5 22.5c36 0 65.667 -7 89 -21s35 -37 35 -69c0 -7.33301 -0.333008 -13 -1 -17c-5.33301 -35.333 -21.333 -60.5 -48 -75.5
s-58.667 -22.5 -96 -22.5s-67.666 7.16699 -90.999 21.5zM294.999 634.001c16 8 25.334 23 28.001 45l1 9c0 14.667 -5.83301 24.5 -17.5 29.5s-28.834 7.5 -51.501 7.5c-26.667 0 -47.5 -4 -62.5 -12s-23.833 -22.667 -26.5 -44l-1 -9c0 -15.333 5.83301 -25.5 17.5 -30.5
s28.167 -7.5 49.5 -7.5c26 0 47 4 63 12z" />
    <glyph glyph-name="tilde" unicode="&#x2dc;" horiz-adv-x="401" 
d="M105 648c25.333 31.333 55.334 47 90.001 47c16.667 0 30.667 -2 42 -6s23 -9.66699 35 -17c10.667 -6 19.167 -10.167 25.5 -12.5s13.5 -3.5 21.5 -3.5c13.333 0 25.666 3.5 36.999 10.5s24 18.167 38 33.5l13 -58c-25.333 -31.333 -55.333 -47 -90 -47
c-16.667 0 -30.667 2 -42 6s-23 9.66699 -35 17c-11.333 6 -19.833 10.167 -25.5 12.5s-12.834 3.5 -21.501 3.5c-13.333 0 -25.666 -3.5 -36.999 -10.5s-24 -18.167 -38 -33.5z" />
    <glyph glyph-name="hungarumlaut" unicode="&#x2dd;" horiz-adv-x="600" 
d="M219 750h87l-121 -150h-87zM392 750h87l-121 -150h-87z" />
    <glyph glyph-name="uni03BC" unicode="&#x3bc;" horiz-adv-x="542" 
d="M120 500h79.999l-47 -361c-0.666992 -3.33301 -1 -8 -1 -14c0 -21.333 6.33301 -37 19 -47s30.334 -15 53.001 -15c12 0 27 3.83301 45 11.5s49.333 24.167 94 49.5l49 376h80l-71 -500h-75l4 25v4c0 6 -2.66699 9 -8 9c-4 0 -7 -0.666992 -9 -2l-73 -40
c-18.667 -4.66699 -35.334 -7 -50.001 -7c-31.333 0 -57.666 6 -78.999 18l-29 -207h-75z" />
    <glyph glyph-name="uni0400" unicode="&#x400;" horiz-adv-x="553" 
d="M259 920h83l79 -150h-83zM153 700h403l-11 -78h-325l-32 -233h308l-11 -78h-308l-33 -233h325l-11 -78h-403z" />
    <glyph glyph-name="uni0401" unicode="&#x401;" horiz-adv-x="553" 
d="M258 870h81l-14 -100h-81zM429 870h81l-14 -100h-81zM153 700h403l-11 -78h-325l-32 -233h308l-11 -78h-308l-33 -233h325l-11 -78h-403z" />
    <glyph glyph-name="uni0402" unicode="&#x402;" horiz-adv-x="662" 
d="M536 401.5c28 -15.667 50.1641 -38.1689 66.4971 -67.502s24.5 -63.333 24.5 -102c0 -44 -9.5 -84.167 -28.5 -120.5s-46.167 -65.166 -81.5 -86.499s-76.333 -32 -123 -32c-26 0 -46.333 3 -61 9l25 64c8 -2.66699 18 -4 30 -4c32 0 59.833 8.16699 83.5 24.5
s41.834 37.5 54.501 63.5s19 52.667 19 80c0 40 -11.5 70 -34.5 90s-53.5 30 -91.5 30c-21.333 0 -43.166 -3 -65.499 -9s-42.166 -13.667 -59.499 -23l-44 -318h-83l87 622h-172l11 78h428l-11 -78h-173l-30 -216v-2c0 -5.33301 1.66699 -8.66602 5 -9.99902s7 -1 11 1
l54 22c8 2.66699 18.167 4.66699 30.5 6s23.5 2 33.5 2c35.333 0 67 -7.83301 95 -23.5z" />
    <glyph glyph-name="uni0403" unicode="&#x403;" horiz-adv-x="432" 
d="M370 950h87l-121 -150h-87zM153 700h332l-11 -78h-249l-87 -622h-83z" />
    <glyph glyph-name="uni0404" unicode="&#x404;" horiz-adv-x="503" 
d="M517 644l-34 -69c-14 19.333 -32.333 34.333 -55 45s-49.334 16 -80.001 16c-80 0 -132.667 -41 -158 -123c-11.333 -34 -21.333 -75.333 -30 -124h256l-11 -78h-256c-4 -34 -6 -66 -6 -96c0 -48 12.5 -85.167 37.5 -111.5s60.167 -39.5 105.5 -39.5
c24 0 47.833 5 71.5 15s44.167 22.667 61.5 38l20 -78c-41.333 -34 -95 -51 -161 -51c-46 0 -85.167 10.333 -117.5 31s-56.5 48.167 -72.5 82.5s-24 71.833 -24 112.5c0 48 4.66699 101.667 14 161s22 112.333 38 159c16.667 55.333 44.834 98.833 84.501 130.5
s91.5 47.5 155.5 47.5c67.333 0 121 -22.667 161 -68z" />
    <glyph glyph-name="uni0405" unicode="&#x405;" horiz-adv-x="483" 
d="M80.5 10c-36.333 13.333 -64.168 29.3369 -83.501 48.0039l30 70c20 -19.333 44.667 -34.333 74 -45s58.666 -16 87.999 -16c31.333 0 59.333 7.16699 84 21.5s43.834 33.166 57.501 56.499s20.5 47.666 20.5 72.999c0 24.667 -7.33301 46.167 -22 64.5
s-35.667 32.166 -63 41.499l-40 14c-41.333 14 -74.666 35.333 -99.999 64s-38 64.667 -38 108c0 33.333 9 65.333 27 96s45 55.667 81 75s80 29 132 29c26 0 53.667 -4.33301 83 -13s57 -21 83 -37l-25 -70c-22.667 15.333 -46.667 26.666 -72 33.999
s-48.666 11 -69.999 11c-34.667 0 -63.834 -6 -87.501 -18s-41.334 -27.667 -53.001 -47s-17.5 -39.333 -17.5 -60c0 -22.667 7 -42.167 21 -58.5s33.333 -28.833 58 -37.5l35 -12c50 -17.333 87.333 -41.333 112 -72s37 -70 37 -118c0 -38 -10.333 -74 -31 -108
s-49.5 -61.5 -86.5 -82.5s-78.167 -31.5 -123.5 -31.5c-37.333 0 -74.166 6.66699 -110.499 20z" />
    <glyph glyph-name="uni0406" unicode="&#x406;" horiz-adv-x="423" 
d="M26 76h120l77 548h-120l10 76h323l-10 -76h-120l-77 -548h120l-11 -76h-323z" />
    <glyph glyph-name="uni0407" unicode="&#x407;" horiz-adv-x="423" 
d="M173 870h81l-14 -100h-81zM344 870h81l-14 -100h-81zM26 76h120l77 548h-120l10 76h323l-10 -76h-120l-77 -548h120l-11 -76h-323z" />
    <glyph glyph-name="uni0408" unicode="&#x408;" horiz-adv-x="447" 
d="M52.5 5c-29.667 11.333 -53.1631 27 -70.4961 47l25 69c15.333 -19.333 35.166 -33.333 59.499 -42s48.5 -13 72.5 -13c73.333 0 115.666 40 126.999 120l61 436h-160l11 78h242l-74 -528c-8.66699 -60.667 -31.334 -106.5 -68.001 -137.5s-83.334 -46.5 -140.001 -46.5
c-27.333 0 -55.833 5.66699 -85.5 17z" />
    <glyph glyph-name="uni0409" unicode="&#x409;" horiz-adv-x="886" 
d="M794.5 356c35.667 -33.333 53.501 -81 53.501 -143c0 -68.667 -20.167 -121.334 -60.5 -158.001s-93.5 -55 -159.5 -55h-233l87 621h-209c-29.333 -204 -55.333 -351.333 -78 -442c-13.333 -52 -35.5 -94.667 -66.5 -128s-69.167 -55.666 -114.5 -66.999l-31 73
c69.333 16 114.666 67 135.999 153c29.333 116 58.333 279.333 87 490h370l-41 -294h96c73.333 0 127.833 -16.667 163.5 -50zM732.501 109.5c25.667 26.333 38.5 59.167 38.5 98.5c0 42.667 -11.5 74.667 -34.5 96s-58.167 32 -105.5 32h-106l-37 -266h143
c42 0 75.833 13.167 101.5 39.5z" />
    <glyph glyph-name="uni040A" unicode="&#x40a;" horiz-adv-x="903" 
d="M811.5 356c35.667 -33.333 53.5 -80.999 53.5 -142.999c0 -68.667 -20.167 -121.334 -60.5 -158.001s-93.5 -55 -159.5 -55h-233l46 327h-274l-46 -327h-83l98 700h83l-41 -295h274l41 295h83l-41 -294h96c73.333 0 127.833 -16.667 163.5 -50zM749.5 109.501
c25.667 26.333 38.5 59.167 38.5 98.5c0 42.667 -11.5 74.667 -34.5 96s-58.167 32 -105.5 32h-106l-37 -266h143c42 0 75.833 13.167 101.5 39.5z" />
    <glyph glyph-name="uni040B" unicode="&#x40b;" horiz-adv-x="700" 
d="M577.5 383.5c34.333 -27.667 51.5 -69.5 51.5 -125.5c0 -12 -1 -24.667 -3 -38l-31 -220h-83l32 230c1.33301 13.333 2 22.333 2 27c0 62 -34.333 93 -103 93c-27.333 0 -54 -2.66699 -80 -8s-48.667 -12.333 -68 -21l-45 -321h-83l87 622h-172l11 78h428l-11 -78h-173
l-30 -216c0 -8 3.33301 -12 10 -12c4 0 7 0.666992 9 2l51 21c19.333 5.33301 45 8 77 8c48 0 89.167 -13.833 123.5 -41.5z" />
    <glyph glyph-name="uni040C" unicode="&#x40c;" horiz-adv-x="538" 
d="M409 920h87l-121 -150h-87zM153 700h82l-44 -312h72l214 312h93l-237 -345l139 -355h-88l-121 313h-82l-44 -313h-82z" />
    <glyph glyph-name="uni040D" unicode="&#x40d;" horiz-adv-x="639" 
d="M274 920h83l79 -150h-83zM153 700h82.999l-65 -466l-21 -69v-3c0 -2.66699 1 -4 3 -4c2.66699 0 5.33398 2 8.00098 6l364 536h87l-98 -700h-83l65 466l19 67l1 4c0 2 -0.666992 3.66699 -2 5s-2.66602 2 -3.99902 2c-4.66699 0 -8.33398 -2.33301 -11.001 -7l-358 -537
h-86z" />
    <glyph glyph-name="uni040E" unicode="&#x40e;" horiz-adv-x="507" 
d="M-58 12l28 66.999c9.33301 -6 18.5 -10.333 27.5 -13s19.167 -4 30.5 -4c24 0 45.333 6.83301 64 20.5s36 32.834 52 57.501l-51 560h81l30 -402l-8 -64v-3c0 -6 2.33301 -9 7 -9c2.66699 0 5.66699 2 9 6l275 472h88l-306 -510
c-46 -76.667 -87.833 -129.5 -125.5 -158.5s-77.167 -43.5 -118.5 -43.5c-33.333 0 -61 8 -83 24zM252.5 806.999c-26.333 20 -41.168 48.667 -44.501 86l61 13c4.66699 -23.333 13.334 -40.833 26.001 -52.5s30.667 -17.5 54 -17.5c48 0 84 24.667 108 74l58 -21
c-14 -37.333 -36 -65.333 -66 -84s-63 -28 -99 -28c-38.667 0 -71.167 10 -97.5 30z" />
    <glyph glyph-name="uni040F" unicode="&#x40f;" horiz-adv-x="620" 
d="M235 0h-180l98 700h83l-87 -624h274l87 624h83l-98 -700h-187l-20 -140h-73z" />
    <glyph glyph-name="uni0410" unicode="&#x410;" horiz-adv-x="566" 
d="M400 187h-250l-79 -187h-86l265 627h-93l10 73h234l110 -700h-84zM389 261l-40.001 273l-2 89c0 2 -0.666992 3.66699 -2 5s-2.66602 2 -3.99902 2c-4 0 -6.33301 -1.66699 -7 -5l-153 -364h208z" />
    <glyph glyph-name="uni0411" unicode="&#x411;" horiz-adv-x="563" 
d="M153 700l372 0.000976562l-11 -78h-294l-30 -216h98c73.333 0 127.833 -16.667 163.5 -50s53.5 -81 53.5 -143c0 -68.667 -20.167 -121.334 -60.5 -158.001s-93.5 -55 -159.5 -55h-230zM288 70.001c42 0 75.833 13.168 101.5 39.501s38.5 59.166 38.5 98.499
c0 42.667 -11.5 74.667 -34.5 96s-58.167 32 -105.5 32h-108l-37 -266h145z" />
    <glyph glyph-name="uni0412" unicode="&#x412;" horiz-adv-x="563" 
d="M153 700h193c58.667 0 104.5 -15.5 137.5 -46.5s49.5 -73.167 49.5 -126.5c0 -44.667 -10.167 -82.5 -30.5 -113.5s-48.5 -53.5 -84.5 -67.5c23.333 -9.33301 43.5 -27 60.5 -53s25.5 -55.333 25.5 -88c0 -64.667 -18.667 -115 -56 -151s-90 -54 -158 -54h-235zM343 386
c36 0 63.667 12.5 83 37.5s29 57.167 29 96.5c0 34 -9.16699 60.833 -27.5 80.5s-44.833 29.5 -79.5 29.5h-127l-34 -244h156zM281 70c96 0 143.999 44.667 143.999 134c0 38 -10.667 66.167 -32 84.5s-50.666 27.5 -87.999 27.5h-128l-34 -246h138z" />
    <glyph glyph-name="uni0413" unicode="&#x413;" horiz-adv-x="432" 
d="M153 700h332l-11 -78h-249l-87 -622h-83z" />
    <glyph glyph-name="uni0414" unicode="&#x414;" horiz-adv-x="627" 
d="M500 76h73.001l-31 -216h-73l27 186v1l-7 -47h-431l-20 -140h-73l31 216l37 1c22 14 41.5 35.5 58.5 64.5s30.5 64.833 40.5 107.5c23.333 98.667 50.666 249.667 81.999 453l376 -2zM420.001 76l76 546l-216 -2c-26 -171.333 -49.333 -299.666 -70 -384.999
c-5.33301 -20.667 -11.333 -40.334 -18 -59.001l-10 -33l-38 -51c-3.33301 -5.33301 -5 -9 -5 -11c0 -3.33301 3 -5 9 -5h272z" />
    <glyph glyph-name="uni0415" unicode="&#x415;" horiz-adv-x="553" 
d="M153 700h403l-11 -78h-325l-32 -233h308l-11 -78h-308l-33 -233h325l-11 -78h-403z" />
    <glyph glyph-name="uni0416" unicode="&#x416;" horiz-adv-x="792" 
d="M227 353l-133 347h88l115 -313h76l44 313h82l-44 -313h74l203 313h87l-227 -344l134 -356h-88l-117 312h-76l-44 -312h-82l44 312h-74l-205 -312h-90z" />
    <glyph glyph-name="uni0417" unicode="&#x417;" horiz-adv-x="518" 
d="M95.5 12.5c-32.333 12.333 -62.5 30.8311 -90.5 55.498l36 66c19.333 -19.333 43.833 -34.666 73.5 -45.999s60.167 -17 91.5 -17c54.667 0 96.667 11.167 126 33.5s44 56.5 44 102.5c0 33.333 -10.667 59.5 -32 78.5s-52.333 28.5 -93 28.5h-114l11 76h109
c47.333 0 84.666 13.167 111.999 39.5s41 60.5 41 102.5c0 30.667 -10 54.5 -30 71.5s-48.333 25.5 -85 25.5c-31.333 0 -61.833 -4.16699 -91.5 -12.5s-54.5 -19.833 -74.5 -34.5l-21 71c32.667 18.667 64.667 32.167 96 40.5s66 12.5 104 12.5
c36.667 0 68.834 -7.5 96.501 -22.5s48.834 -35.5 63.501 -61.5s22 -55 22 -87c0 -42.667 -11.667 -81 -35 -115s-53 -56.333 -89 -67c25.333 -12.667 47.166 -31.167 65.499 -55.5s27.5 -54.166 27.5 -89.499c0 -68 -22.333 -120.667 -67 -158s-107 -56 -187 -56
c-40.667 0 -77.167 6.16699 -109.5 18.5z" />
    <glyph glyph-name="uni0418" unicode="&#x418;" horiz-adv-x="639" 
d="M153 700h82.999l-65 -466l-21 -69v-3c0 -2.66699 1 -4 3 -4c2.66699 0 5.33398 2 8.00098 6l364 536h87l-98 -700h-83l65 466l19 67l1 4c0 2 -0.666992 3.66699 -2 5s-2.66602 2 -3.99902 2c-4.66699 0 -8.33398 -2.33301 -11.001 -7l-358 -537h-86z" />
    <glyph glyph-name="uni0419" unicode="&#x419;" horiz-adv-x="639" 
d="M153 700h82.999l-65 -466l-21 -69v-3c0 -2.66699 1 -4 3 -4c2.66699 0 5.33398 2 8.00098 6l364 536h87l-98 -700h-83l65 466l19 67l1 4c0 2 -0.666992 3.66699 -2 5s-2.66602 2 -3.99902 2c-4.66699 0 -8.33398 -2.33301 -11.001 -7l-358 -537h-86zM298.499 807
c-26.333 20 -41.168 48.667 -44.501 86l61 13c4.66699 -23.333 13.334 -40.833 26.001 -52.5s30.667 -17.5 54 -17.5c48 0 84 24.667 108 74l58 -21c-14 -37.333 -36 -65.333 -66 -84s-63 -28 -99 -28c-38.667 0 -71.167 10 -97.5 30z" />
    <glyph glyph-name="uni041A" unicode="&#x41a;" horiz-adv-x="538" 
d="M153 700h82l-44 -312h72l214 312h93l-237 -345l139 -355h-88l-121 313h-82l-44 -313h-82z" />
    <glyph glyph-name="uni041B" unicode="&#x41b;" horiz-adv-x="600" 
d="M-17 57c69.333 16 114.667 66.999 136 152.999c28.667 114 57.667 277.333 87 490h367l-98 -700h-83l87 622h-206c-29.333 -205.333 -55.333 -353 -78 -443c-13.333 -52 -35.5 -94.667 -66.5 -128s-69.167 -55.666 -114.5 -66.999z" />
    <glyph glyph-name="uni041C" unicode="&#x41c;" horiz-adv-x="674" 
d="M153 700h69.001l120 -312c2 -6 5.66699 -9 11 -9c4.66699 0 9 3 13 9l210 312h71l-98 -700h-80l59 425l25 91c0.666992 1.33301 1 3 1 5c0 4 -1.66699 6 -5 6c-4.66699 0 -8.33398 -2.33301 -11.001 -7l-173 -255h-50l-103 259c-2 4.66699 -4.33301 7 -7 7
c-4 0 -6.66699 -4.66699 -8 -14l-3 -86l-59 -431h-80z" />
    <glyph glyph-name="uni041D" unicode="&#x41d;" horiz-adv-x="620" 
d="M153 700h83l-43 -311h274l43 311h83l-98 -700h-83l44 311h-274l-44 -311h-83z" />
    <glyph glyph-name="uni041E" unicode="&#x41e;" 
d="M474 681c32.667 -20.667 56.999 -48.167 72.999 -82.5s24 -71.833 24 -112.5c0 -46.667 -4.66699 -99.667 -14 -159s-22 -113 -38 -161c-16 -55.333 -44.167 -98.833 -84.5 -130.5s-92.5 -47.5 -156.5 -47.5c-46 0 -85.167 10.333 -117.5 31s-56.5 48.167 -72.5 82.5
s-24 71.833 -24 112.5c0 48 4.66699 101.667 14 161s22 112.333 38 159c16.667 55.333 44.834 98.833 84.501 130.5s91.5 47.5 155.5 47.5c46 0 85.333 -10.333 118 -31zM454.499 596.5c-25 26.333 -60.5 39.5 -106.5 39.5c-80 0 -132.667 -41 -158 -123
c-14 -41.333 -25.333 -90 -34 -146s-13 -106.667 -13 -152c0 -48 12.5 -85.167 37.5 -111.5s60.167 -39.5 105.5 -39.5c81.333 0 134.333 41 159 123c13.333 42 24.5 91.167 33.5 147.5s13.5 106.5 13.5 150.5c0 48 -12.5 85.167 -37.5 111.5z" />
    <glyph glyph-name="uni041F" unicode="&#x41f;" horiz-adv-x="620" 
d="M153 700h440l-98 -700h-83l88 624h-274l-88 -624h-83z" />
    <glyph glyph-name="uni0420" unicode="&#x420;" horiz-adv-x="553" 
d="M153 700l238 -0.000976562c35.333 0 66 -7.5 92 -22.5s45.667 -35.167 59 -60.5s20 -52.666 20 -81.999c0 -44 -9 -82.833 -27 -116.5s-43.667 -60 -77 -79s-72.333 -28.5 -117 -28.5h-163l-43 -311h-80zM337 383.999c48.667 0 85.5 11.667 110.5 35s37.5 62 37.5 116
c0 30 -10.167 53.333 -30.5 70s-46.833 25 -79.5 25h-152l-34 -246h148z" />
    <glyph glyph-name="uni0421" unicode="&#x421;" horiz-adv-x="503" 
d="M278 -12c-46 0 -85.167 10.333 -117.5 31s-56.5 48.167 -72.5 82.5s-24 71.833 -24 112.5c0 48 4.66699 101.667 14 161s22 112.333 38 159c16.667 55.333 44.834 98.833 84.501 130.5s91.5 47.5 155.5 47.5c67.333 0 121 -22.667 161 -68l-34 -69
c-14 19.333 -32.333 34.333 -55 45s-49.334 16 -80.001 16c-80 0 -132.667 -41 -158 -123c-14 -41.333 -25.333 -90 -34 -146s-13 -106.667 -13 -152c0 -48 12.5 -85.167 37.5 -111.5s60.167 -39.5 105.5 -39.5c24 0 47.833 5 71.5 15s44.167 22.667 61.5 38l20 -78
c-41.333 -34 -95 -51 -161 -51z" />
    <glyph glyph-name="uni0422" unicode="&#x422;" horiz-adv-x="488" 
d="M254 622h-172l11 78h428l-11 -78h-173l-87 -622h-83z" />
    <glyph glyph-name="uni0423" unicode="&#x423;" horiz-adv-x="507" 
d="M-58 12l28 66.999c9.33301 -6 18.5 -10.333 27.5 -13s19.167 -4 30.5 -4c24 0 45.333 6.83301 64 20.5s36 32.834 52 57.501l-51 560h81l30 -402l-8 -64v-3c0 -6 2.33301 -9 7 -9c2.66699 0 5.66699 2 9 6l275 472h88l-306 -510
c-46 -76.667 -87.833 -129.5 -125.5 -158.5s-77.167 -43.5 -118.5 -43.5c-33.333 0 -61 8 -83 24z" />
    <glyph glyph-name="uni0424" unicode="&#x424;" horiz-adv-x="713" 
d="M289 68l0.999023 5c0 6 -4.33301 8.66699 -13 8l-65 -4c-51.333 13.333 -89.666 38.166 -114.999 74.499s-38 78.5 -38 126.5c0 24 2.33301 51.833 7 83.5s10 58.834 16 81.501c13.333 42.667 37.333 80.5 72 113.5s78.334 55.833 131.001 68.5l64 -6h2
c4.66699 0 8.66699 1.66699 12 5s5.33301 7.33301 6 12l11 74h83l-11 -78c0 -0.666992 -0.166992 -1.33398 -0.5 -2.00098s-0.166016 -1.66699 0.500977 -3c0 -6 4 -8.66699 12 -8l65 4c50 -12.667 87.667 -36.167 113 -70.5s38.666 -74.166 39.999 -119.499
c1.33301 -20.667 -0.5 -49 -5.5 -85s-10.833 -66.333 -17.5 -91c-14 -42.667 -38.167 -80.5 -72.5 -113.5s-77.5 -55.833 -129.5 -68.5l-65 6h-2c-4 0 -7.83301 -1.66699 -11.5 -5s-5.83398 -7.33301 -6.50098 -12l-11 -74h-83zM360.999 561
c-56 0 -100.667 -12.5 -134 -37.5s-54.666 -56.833 -63.999 -95.5c-8.66699 -29.333 -14.834 -56 -18.501 -80s-5.5 -50 -5.5 -78c0 -88.667 52.667 -133 158 -133zM512.499 174.5c32.333 25 53.833 56.833 64.5 95.5c8.66699 26.667 14.667 52 18 76s6 51.333 8 82
c1.33301 40 -10.667 72.167 -36 96.5s-66.333 36.5 -123 36.5l-64 -424c56 0 100.167 12.5 132.5 37.5z" />
    <glyph glyph-name="uni0425" unicode="&#x425;" horiz-adv-x="522" 
d="M219 347l-134 353h87l72 -207l17 -71c1.33301 -4 3.33301 -6 6 -6c3.33301 0 6 2 8 6l179 278h96l-225 -334l142 -366h-83l-86 227l-14 68c-0.666992 4 -2.66699 6 -6 6c-2 0 -4.66699 -2 -8 -6l-189 -295h-96z" />
    <glyph glyph-name="uni0426" unicode="&#x426;" horiz-adv-x="630" 
d="M504 76h72l-31 -216h-73l20 140h-437l98 700h83l-87 -624h275l87 624h83z" />
    <glyph glyph-name="uni0427" unicode="&#x427;" horiz-adv-x="579" 
d="M412 296v1.99805c0 6.66699 -2.33301 10 -7 10c-2.66699 0 -6 -1 -10 -3l-54 -23c-18 -4.66699 -43.667 -7 -77 -7c-49.333 0 -91 12.833 -125 38.5s-51 63.834 -51 114.501c0 14.667 0.666992 26 2 34l33 238h83l-33 -233c-1.33301 -12 -2 -20.667 -2 -26
c0 -60.667 34.667 -91 104 -91c28.667 0 56 2.83301 82 8.5s47.333 12.834 64 21.501l47 320h84l-98 -700h-84z" />
    <glyph glyph-name="uni0428" unicode="&#x428;" horiz-adv-x="797" 
d="M153 700h83l-87 -624h184l87 624h83l-87 -624h184l87 624h83l-98 -700h-617z" />
    <glyph glyph-name="uni0429" unicode="&#x429;" horiz-adv-x="807" 
d="M681 76h72l-31 -216h-73l20 140h-614l98 700h83l-87 -624h184l87 624h83l-87 -624h185l87 624h83z" />
    <glyph glyph-name="uni042A" unicode="&#x42a;" 
d="M203 630l-120 0.000976562l10 70h203l-41 -294h96c73.333 0 127.833 -16.667 163.5 -50s53.5 -81 53.5 -143c0 -68.667 -20.167 -121.334 -60.5 -158.001s-93.5 -55 -159.5 -55h-233zM351 70.001c42 0 75.833 13.168 101.5 39.501s38.5 59.166 38.5 98.499
c0 42.667 -11.5 74.667 -34.5 96s-58.167 32 -105.5 32h-106l-37 -266h143z" />
    <glyph glyph-name="uni042B" unicode="&#x42b;" horiz-adv-x="779" 
d="M153 700l83 0.000976562l-41 -294h96c73.333 0 127.833 -16.667 163.5 -50s53.5 -81 53.5 -143c0 -68.667 -20.167 -121.334 -60.5 -158.001s-93.5 -55 -159.5 -55h-233zM291 70.001c42 0 75.833 13.168 101.5 39.501s38.5 59.166 38.5 98.499
c0 42.667 -11.5 74.667 -34.5 96s-58.167 32 -105.5 32h-106l-37 -266h143zM669 700.002h83l-98 -700h-83z" />
    <glyph glyph-name="uni042C" unicode="&#x42c;" horiz-adv-x="546" 
d="M153 700l83 0.000976562l-41 -294h96c73.333 0 127.833 -16.667 163.5 -50s53.5 -81 53.5 -143c0 -68.667 -20.167 -121.334 -60.5 -158.001s-93.5 -55 -159.5 -55h-233zM291 70.001c42 0 75.833 13.168 101.5 39.501s38.5 59.166 38.5 98.499
c0 42.667 -11.5 74.667 -34.5 96s-58.167 32 -105.5 32h-106l-37 -266h143z" />
    <glyph glyph-name="uni042D" unicode="&#x42d;" horiz-adv-x="513" 
d="M392.5 682.5c29.667 -19.667 51.999 -45.6699 66.999 -78.0029s22.5 -67.166 22.5 -104.499c0 -32 -4.16699 -75.667 -12.5 -131s-17.5 -105.333 -27.5 -150c-17.333 -81.333 -49 -140.166 -95 -176.499s-106 -54.5 -180 -54.5c-29.333 0 -57.5 5 -84.5 15
s-51.167 25 -72.5 45l39 73c38.667 -36.667 84.334 -55 137.001 -55c47.333 0 86 12.833 116 38.5s50 63.834 60 114.501l17 92h-253l11 78h253c5.33301 42.667 8 79.667 8 111c0 89.333 -43.667 134 -131 134c-52 0 -101.333 -17.333 -148 -52l-13 68
c27.333 20 56.5 35.333 87.5 46s61.833 16 92.5 16c41.333 0 76.833 -9.83301 106.5 -29.5z" />
    <glyph glyph-name="uni042E" unicode="&#x42e;" horiz-adv-x="850" 
d="M716 681c32.667 -20.667 56.998 -48.167 72.998 -82.5s24 -71.833 24 -112.5c0 -46.667 -4.66699 -99.667 -14 -159s-22 -113 -38 -161c-16 -55.333 -44.167 -98.833 -84.5 -130.5s-92.5 -47.5 -156.5 -47.5c-46 0 -85.167 10.333 -117.5 31s-56.5 48.167 -72.5 82.5
s-24 71.833 -24 112.5c0 30.667 2 63 6 97h-130l-44 -311h-83l98 700h83l-43 -311h130c8.66699 54 20.334 102.333 35.001 145c16.667 55.333 44.834 98.833 84.501 130.5s91.5 47.5 155.5 47.5c46 0 85.333 -10.333 118 -31zM720.498 334.5c9 56.333 13.5 106.5 13.5 150.5
c0 48 -12.5 85.167 -37.5 111.5s-60.5 39.5 -106.5 39.5c-80 0 -132.667 -41 -158 -123c-14 -41.333 -25.333 -90 -34 -146s-13 -106.667 -13 -152c0 -48 12.5 -85.167 37.5 -111.5s60.167 -39.5 105.5 -39.5c81.333 0 134.333 41 159 123c13.333 42 24.5 91.167 33.5 147.5
z" />
    <glyph glyph-name="uni042F" unicode="&#x42f;" horiz-adv-x="579" 
d="M149 221l54 62c3.33301 3.33301 5 7 5 11c0 6 -3.66699 10.667 -11 14c-70.667 30 -107 83 -109 159c0 71.333 21.833 128 65.5 170s103.167 63 178.5 63h220l-98 -700h-83l41 291h-130l-174 -291h-94zM422 364l37.001 266.001h-132c-48 0 -86.333 -14.833 -115 -44.5
s-43 -66.834 -43 -111.501c1.33301 -35.333 11.166 -62.5 29.499 -81.5s43.833 -28.5 76.5 -28.5h147z" />
    <glyph glyph-name="uni0430" unicode="&#x430;" horiz-adv-x="542" 
d="M412 88l58.001 -27.999l-33 -70l-106 53c-2.66699 1.33301 -4.66699 2 -6 2c-2.66699 0 -5.33398 -1.33301 -8.00098 -4l-14 -15c-26 -15.333 -45.667 -25.166 -59 -29.499s-27.666 -6.5 -42.999 -6.5c-40.667 0 -76.334 12.5 -107.001 37.5s-46 68.5 -46 130.5
c0 81.333 15.667 153.666 47 216.999c20.667 41.333 49.5 74.166 86.5 98.499s78.5 36.5 124.5 36.5c17.333 0 35 -1 53 -3l38 -9l7 -1l9 1l57 6zM255.001 73.001c14.667 6.66699 42.001 22.334 82.001 47.001l43 310c-26.667 6.66699 -49.334 10 -68.001 10
c-36.667 0 -68.334 -9.33301 -95.001 -28s-46.667 -43.334 -60 -74.001c-11.333 -26 -19.666 -53.667 -24.999 -83s-8 -63.333 -8 -102c0 -32 8.33301 -55 25 -69s37.667 -21 63 -21c14 0 28.333 3.33301 43 10z" />
    <glyph glyph-name="uni0431" unicode="&#x431;" horiz-adv-x="515" 
d="M96 31c-26.667 28.667 -40 71.334 -40 128.001c0 30.667 3.33301 73.5 10 128.5s14.334 103.833 23.001 146.5c14 69.333 34 125 60 167s57.667 73.333 95 94s82.666 34 135.999 40c24.667 2.66699 45.167 6.16699 61.5 10.5s30.833 10.166 43.5 17.499l20 -64
c-28.667 -16 -68 -26.667 -118 -32c-119.333 -14 -191.333 -79 -216 -195v-3c0 -4 1.33301 -6.66699 4 -8s5.33398 -1 8.00098 1l73 41c16 5.33301 32.333 8 49 8c57.333 0 98.333 -17 123 -51s37 -76 37 -126c0 -32.667 -3.5 -67.167 -10.5 -103.5
s-18.167 -70.5 -33.5 -102.5c-20.667 -42.667 -48.334 -76.667 -83.001 -102s-78 -38 -130 -38c-48 0 -85.333 14.333 -112 43zM298.5 83.5c21.667 17 40.167 40.166 55.5 69.499c22.667 44.667 34 102.667 34 174c0 35.333 -7.33301 62.833 -22 82.5s-38.667 29.5 -72 29.5
c-34 0 -62.833 -8.5 -86.5 -25.5s-40.834 -40.833 -51.501 -71.5c-8 -22 -13.667 -47.333 -17 -76s-6.33301 -64 -9 -106c-0.666992 -31.333 6.83301 -56.166 22.5 -74.499s36.834 -27.5 63.501 -27.5c33.333 0 60.833 8.5 82.5 25.5z" />
    <glyph glyph-name="uni0432" unicode="&#x432;" horiz-adv-x="463" 
d="M398 302.5c-16 -21.667 -38.335 -37.832 -67.002 -48.499c22.667 -7.33301 40.334 -19.833 53.001 -37.5s19 -38.834 19 -63.501c0 -50.667 -18.333 -90.334 -55 -119.001s-84.667 -43 -144 -43c-48 0 -86.167 13.5 -114.5 40.5s-42.5 70.5 -42.5 130.5c0 16 1 33 3 51
l10 72c8 62.667 29.333 115.834 64 159.501s85.334 65.5 152.001 65.5c44 0 79.333 -11.667 106 -35s40 -54 40 -92c0 -32 -8 -58.833 -24 -80.5zM314.498 310.002c18.333 17.333 27.501 39.333 27.501 66c0 20.667 -6.33301 36.667 -19 48s-31.334 17 -56.001 17
c-32.667 0 -60.5 -12 -83.5 -36s-38.167 -61.667 -45.5 -113l-1 -8h105c30 0 54.167 8.66699 72.5 26zM293.499 87.002c19.667 18 29.499 42.667 29.499 74c-0.666992 18 -8 32 -22 42s-34 15 -60 15h-113l-2 -17c-1.33301 -14.667 -2 -24.667 -2 -30
c0 -34 7.83301 -61 23.5 -81s38.167 -30 67.5 -30c32.667 0 58.834 9 78.501 27z" />
    <glyph glyph-name="uni0433" unicode="&#x433;" horiz-adv-x="435" 
d="M60.5 26.5c-29 25.667 -43.499 59.501 -43.499 101.501c0 46 15 81.167 45 105.5s72.667 42.5 128 54.5l61 13c27.333 6 47.5 14.667 60.5 26s19.5 28.666 19.5 51.999c0 20 -7.83301 35.167 -23.5 45.5s-38.167 15.5 -67.5 15.5c-51.333 0 -97 -12.667 -137 -38l-21 67
c46.667 28.667 100 43 160 43c51.333 0 91.666 -12.333 120.999 -37s44 -58 44 -100c0 -44.667 -13 -77.667 -39 -99s-63.667 -37 -113 -47l-63 -13c-31.333 -6.66699 -55.666 -17 -72.999 -31s-26 -33.333 -26 -58c0 -22 7.83301 -38.667 23.5 -50s38.5 -17 68.5 -17
c27.333 0 53.333 4.33301 78 13s50.667 22 78 40l22 -70c-27.333 -17.333 -56.333 -30.833 -87 -40.5s-61.334 -14.5 -92.001 -14.5c-53.333 0 -94.5 12.833 -123.5 38.5z" />
    <glyph glyph-name="uni0434" unicode="&#x434;" horiz-adv-x="522" 
d="M228 750c69.333 0 121.832 -12.833 157.499 -38.5s59 -59 70 -100s16.5 -91.5 16.5 -151.5c0 -67.333 -4.16699 -130 -12.5 -188s-19.166 -105 -32.499 -141c-17.333 -45.333 -44 -80.333 -80 -105s-77.333 -37 -124 -37c-37.333 0 -69 8.5 -95 25.5
s-45.5 39.5 -58.5 67.5s-19.5 58.333 -19.5 91c0 30.667 3 64.667 9 102s14 68.666 24 93.999c17.333 45.333 43.833 80.333 79.5 105s76.834 37 123.501 37c10 0 22 -1.66699 36 -5s25.333 -7.66602 34 -12.999l33 -38c2 -2.66699 4.66699 -4 8 -4c6 0 9 4.33301 9 13
c0 73.333 -13.833 128 -41.5 164s-75.834 54 -144.501 54c-7.33301 0 -13 -0.333008 -17 -1l10 69h15zM377.999 233c5.33301 34 8 63.999 8 89.999c0 33.333 -8.83301 61.166 -26.5 83.499s-43.834 33.5 -78.501 33.5c-31.333 0 -57.166 -8 -77.499 -24
s-36.833 -39.667 -49.5 -71c-8 -20 -14.667 -46.167 -20 -78.5s-8 -62.166 -8 -89.499c0 -33.333 8.5 -61.166 25.5 -83.499s42.5 -33.5 76.5 -33.5c32 0 58.167 8 78.5 24s37.5 39.667 51.5 71c8 18 14.667 44 20 78z" />
    <glyph glyph-name="uni0435" unicode="&#x435;" horiz-adv-x="482" 
d="M412 464.5c25.333 -30.333 38.001 -70.167 38.001 -119.5c0 -22.667 -2.66699 -46.667 -8 -72l-28 -40h-287c-1.33301 -14.667 -2 -28.667 -2 -42c-1.33301 -42 7.16699 -74.333 25.5 -97s45.166 -34 80.499 -34c21.333 0 39.5 4.16699 54.5 12.5
s34.833 24.166 59.5 47.499l60 -29c-31.333 -36.667 -61.333 -62.667 -90 -78s-58 -23 -88 -23c-38 0 -70.333 8 -97 24s-46.667 37.5 -60 64.5s-20 56.5 -20 88.5c0 52.667 5.66699 101 17 145c15.333 60.667 43.833 108.834 85.5 144.501s88.167 53.5 139.5 53.5
c54.667 0 94.667 -15.167 120 -45.5zM375.001 350.999c0 29.333 -7.33105 51.5 -21.998 66.5s-35.334 22.5 -62.001 22.5c-32 0 -61.833 -11.667 -89.5 -35s-47.834 -57.333 -60.501 -102h228c4 18 6 34 6 48z" />
    <glyph glyph-name="uni0436" unicode="&#x436;" horiz-adv-x="672" 
d="M589.5 407.5c-15.667 -15 -28.8311 -35.833 -39.498 -62.5c-8 -20 -14.667 -46.167 -20 -78.5s-8 -62.166 -8 -89.499c0 -28 6 -52.333 18 -73s30 -34 54 -40l-10 -71c-43.333 8 -76.5 29 -99.5 63s-34.5 73 -34.5 117c0 8.66699 0.666992 24.334 2 47.001h-80l-31 -220
h-80l31 220h-79c-6.66699 -36 -14.334 -65.667 -23.001 -89c-15.333 -40.667 -38.333 -73 -69 -97s-66.334 -38.333 -107.001 -43l10 72c22 4.66699 40.333 14.667 55 30s28 36 40 62c8 18 14.667 44 20 78s8 64 8 90c0 27.333 -5.66699 51.166 -17 71.499
s-29 34.166 -53 41.499l10 72c44 -8 77.667 -29 101 -63s35 -73.333 35 -118c0 -16 -0.333008 -28.333 -1 -37h80l29 210h80l-29 -210h80c4.66699 26.667 11.667 53 21 79c15.333 40.667 38.333 73 69 97s66 38.333 106 43l-10 -72
c-23.333 -4.66699 -42.833 -14.5 -58.5 -29.5z" />
    <glyph glyph-name="uni0437" unicode="&#x437;" horiz-adv-x="448" 
d="M71.5 6c-28.333 8.66699 -54.501 22.999 -78.501 42.999l33 63c33.333 -31.333 81 -47 143 -47c40 0 71.667 6.83301 95 20.5s35 34.834 35 63.501c0 22 -7.83301 39.667 -23.5 53s-39.5 20 -71.5 20h-78l10 69h83c27.333 0 50.333 7.83301 69 23.5s28 34.834 28 57.501
s-7.33301 39.834 -22 51.501s-38.334 17.5 -71.001 17.5c-24 0 -48.333 -3 -73 -9s-46.667 -14.667 -66 -26l-20 66c26.667 14.667 53.167 25 79.5 31s54.5 9 84.5 9c51.333 0 91.833 -12.333 121.5 -37s44.5 -55.334 44.5 -92.001c0 -31.333 -9 -58 -27 -80
s-40.667 -37.667 -68 -47c24.667 -8 43.834 -21.833 57.501 -41.5s20.5 -42.834 20.5 -69.501c0 -32.667 -9.66699 -60.5 -29 -83.5s-44.333 -40.167 -75 -51.5s-63 -17 -97 -17c-41.333 0 -76.166 4.33301 -104.499 13z" />
    <glyph glyph-name="uni0438" unicode="&#x438;" horiz-adv-x="520" 
d="M86 23.5c-24.667 23 -37 54.168 -37 93.501c0 5.33301 0.666992 14.666 2 27.999l47 355h80l-47 -361c-0.666992 -3.33301 -1 -8 -1 -14c0 -21.333 6.33301 -37 19 -47s30.334 -15 53.001 -15c12 0 27 3.83301 45 11.5s49.333 24.167 94 49.5l49 376h80l-71 -500h-75
l4 25v4c0 6 -2.66699 9 -8 9c-4 0 -7 -0.666992 -9 -2l-73 -40c-18.667 -4.66699 -35.334 -7 -50.001 -7c-43.333 0 -77.333 11.5 -102 34.5z" />
    <glyph glyph-name="uni0439" unicode="&#x439;" horiz-adv-x="520" 
d="M86 23.5c-24.667 23 -37 54.168 -37 93.501c0 5.33301 0.666992 14.666 2 27.999l47 355h80l-47 -361c-0.666992 -3.33301 -1 -8 -1 -14c0 -21.333 6.33301 -37 19 -47s30.334 -15 53.001 -15c12 0 27 3.83301 45 11.5s49.333 24.167 94 49.5l49 376h80l-71 -500h-75
l4 25v4c0 6 -2.66699 9 -8 9c-4 0 -7 -0.666992 -9 -2l-73 -40c-18.667 -4.66699 -35.334 -7 -50.001 -7c-43.333 0 -77.333 11.5 -102 34.5zM222.5 637.001c-26.333 20 -41.168 48.667 -44.501 86l61 13c4.66699 -23.333 13.334 -40.833 26.001 -52.5
s30.667 -17.5 54 -17.5c48 0 84 24.667 108 74l58 -21c-14 -37.333 -36 -65.333 -66 -84s-63 -28 -99 -28c-38.667 0 -71.167 10 -97.5 30z" />
    <glyph glyph-name="uni043A" unicode="&#x43a;" horiz-adv-x="487" 
d="M305 255l116 -255h-88l-102 220h-68l-31 -220h-82l70 500h82l-29 -210h68l156 210h87z" />
    <glyph glyph-name="uni043B" unicode="&#x43b;" horiz-adv-x="520" 
d="M-8 56c22 6.66699 41.499 16.832 58.499 30.499s29.167 30.5 36.5 50.5c12.667 34 25 78.833 37 134.5s25.333 131.834 40 228.501h306l-70 -500h-80l60 430h-150c-17.333 -109.333 -40.666 -214.333 -69.999 -315c-24 -67.333 -73.333 -109.333 -148 -126z" />
    <glyph glyph-name="uni043C" unicode="&#x43c;" horiz-adv-x="664" 
d="M120 500l67 0.000976562l125 -288c3.33301 -6 7 -9 11 -9c4.66699 0 9 3 13 9l209 288h69l-70 -500h-78l38 257l24 82v2c0 1.33301 -0.666992 2.66602 -2 3.99902s-2.66602 2 -3.99902 2c-2.66699 0 -5.33398 -1.66699 -8.00098 -5l-177 -237h-50l-110 242
c-2 4 -4.33301 6 -7 6c-4.66699 0 -7 -2.66699 -7 -8l2 -86l-37 -259h-78z" />
    <glyph glyph-name="uni043D" unicode="&#x43d;" horiz-adv-x="537" 
d="M120 500h80l-29 -210h207l29 210h80l-70 -500h-80l31 220h-207l-31 -220h-80z" />
    <glyph glyph-name="uni043E" unicode="&#x43e;" horiz-adv-x="510" 
d="M128 14.5c-26 17 -45.501 39.5 -58.501 67.5s-19.5 58.333 -19.5 91c0 30.667 3 64.667 9 102s14 68.666 24 93.999c17.333 45.333 43.833 80.333 79.5 105s76.834 37 123.501 37c38 0 70 -8.5 96 -25.5s45.5 -39.5 58.5 -67.5s19.5 -58.333 19.5 -91
c0 -30.667 -3 -64.667 -9 -102s-14 -68.666 -24 -93.999c-17.333 -45.333 -44 -80.333 -80 -105s-77.333 -37 -124 -37c-37.333 0 -69 8.5 -95 25.5zM306.499 84c20.333 16 36.832 39.666 49.499 70.999c8 18 14.667 44 20 78s8 64 8 90c0 33.333 -8.5 61.166 -25.5 83.499
s-42.833 33.5 -77.5 33.5c-31.333 0 -57.166 -8 -77.499 -24s-36.833 -39.667 -49.5 -71c-8 -20 -14.667 -46.167 -20 -78.5s-8 -62.166 -8 -89.499c0 -33.333 8.5 -61.166 25.5 -83.499s42.5 -33.5 76.5 -33.5c32 0 58.167 8 78.5 24z" />
    <glyph glyph-name="uni043F" unicode="&#x43f;" horiz-adv-x="547" 
d="M442.5 472.5c25 -25 37.499 -58.833 37.499 -101.5c0 -6 -0.666992 -16.333 -2 -31l-46 -340h-80l46 344c1.33301 12 2 20 2 24c0 46 -23 69 -69 69c-20.667 0 -40 -3.16699 -58 -9.5s-44 -19.833 -78 -40.5l-55 -387h-80l57 412l-57 28l33 70l101 -49
c2.66699 -1.33301 5 -2 7 -2c2.66699 0 5.33398 1.33301 8.00098 4l12 12c20.667 12.667 39.5 21.667 56.5 27s36.167 8 57.5 8c46.667 0 82.5 -12.5 107.5 -37.5z" />
    <glyph glyph-name="uni0440" unicode="&#x440;" horiz-adv-x="530" 
d="M60 -4l58 415.999l-58 28l33 70l101 -49c2.66699 -1.33301 4.66699 -2 6 -2c3.33301 0 6.33301 1.33301 9 4l13 13c24 13.333 44 22.333 60 27s35 7 57 7c39.333 0 73 -12.333 101 -37s42 -69 42 -133c0 -80 -15.667 -151.667 -47 -215
c-20.667 -41.333 -49.5 -74.166 -86.5 -98.499s-78.5 -36.5 -124.5 -36.5c-17.333 0 -35 1 -53 3l-29 7l-30 -200h-80zM313 87.999c26.667 18.667 46.665 43.333 59.998 74c22 52.667 33 111 33 175c0 66.667 -27 100 -81 100c-18 0 -37 -4 -57 -12s-44.667 -21.333 -74 -40
l-44 -315c26.667 -6.66699 49.334 -10 68.001 -10c36.667 0 68.334 9.33301 95.001 28z" />
    <glyph glyph-name="uni0441" unicode="&#x441;" horiz-adv-x="450" 
d="M130.5 13.5c-26.333 15.667 -46.501 36.665 -60.501 62.998s-21 54.833 -21 85.5c0 56.667 7.33301 111 22 163c15.333 54 42.5 98.333 81.5 133s84.5 52 136.5 52c26.667 0 51.334 -3.83301 74.001 -11.5s45.667 -19.167 69 -34.5l-29 -63
c-20.667 12.667 -39.834 22 -57.501 28s-37.167 9 -58.5 9c-36 0 -66.333 -12.167 -91 -36.5s-42.667 -57.166 -54 -98.499s-17 -80.333 -17 -117c0 -36 8.5 -66 25.5 -90s42.833 -36 77.5 -36c18 0 34.833 3.83301 50.5 11.5s37.5 23.834 65.5 48.501l60 -29
c-33.333 -38.667 -64.5 -65.167 -93.5 -79.5s-58.167 -21.5 -87.5 -21.5c-35.333 0 -66.166 7.83301 -92.499 23.5z" />
    <glyph glyph-name="uni0442" unicode="&#x442;" horiz-adv-x="827" 
d="M725 471.5c24 -25.667 36 -58.5 36 -98.5c0 -5.33301 -0.666992 -14 -2 -26l-47 -347h-80l47 351c0.666992 4.66699 1 11.334 1 20.001c0 44 -22.667 66 -68 66c-20.667 0 -40.5 -3.33301 -59.5 -10s-45.167 -20 -78.5 -40l-52 -387h-80l47 354
c0.666992 4 1 9.66699 1 17c0 21.333 -5.83301 37.666 -17.5 48.999s-27.834 17 -48.501 17s-40.167 -3.16699 -58.5 -9.5s-45.166 -19.5 -80.499 -39.5l-55 -388h-80l57 412l-57 28l33 70l101 -49c2.66699 -1.33301 5 -2 7 -2c2.66699 0 5.33398 1.33301 8.00098 4l12 12
c21.333 12.667 41.166 21.667 59.499 27s37.833 8 58.5 8c26.667 0 50.5 -5.5 71.5 -16.5s37.5 -24.833 49.5 -41.5c2 -3.33301 5 -5 9 -5c3.33301 0 6.33301 1.33301 9 4l12 12c30 18 54.667 30.333 74 37s42.333 10 69 10c44 0 78 -12.833 102 -38.5z" />
    <glyph glyph-name="uni0443" unicode="&#x443;" horiz-adv-x="470" 
d="M15 -155c34.667 14 62.001 30.1689 82.001 48.502s38 44.166 54 77.499l20 41l-115 488h82l64 -269l8 -98c1.33301 -5.33301 3.33301 -8 6 -8c4 0 7 2.66699 9 8l165 367h85l-255 -550c-20 -44 -44.833 -79.833 -74.5 -107.5s-65.834 -48.834 -108.501 -63.501z" />
    <glyph glyph-name="uni0444" unicode="&#x444;" horiz-adv-x="792" 
d="M326 22v4.00195c0 6.66699 -2.66699 10 -8 10c-2.66699 0 -5.66699 -1 -9 -3l-68 -37c-14 -4 -28.667 -6 -44 -6c-44.667 0 -80.667 11.667 -108 35s-41 67.666 -41 132.999c0 81.333 15.667 153.666 47 216.999c20.667 41.333 49.5 74.166 86.5 98.499
s78.5 36.5 124.5 36.5c17.333 0 30.833 -0.666992 40.5 -2s25.167 -4.33301 46.5 -9l28 201h75l-29 -222v-4c0 -6.66699 2.66699 -10 8 -10c2.66699 0 5.66699 1 9 3l68 37c14 4 28.667 6 44 6c45.333 0 81.5 -13.667 108.5 -41s40.5 -68 40.5 -122
c0 -84.667 -15.667 -158.667 -47 -222c-20.667 -41.333 -49.5 -74.166 -86.5 -98.499s-78.5 -36.5 -124.5 -36.5c-16.667 0 -31.167 1 -43.5 3s-26.833 4.66699 -43.5 8l-28 -201h-75zM251 76.002c20.667 8.66699 50.334 24.001 89.001 46.001l41 308
c-24 6.66699 -47 10 -69 10c-35.333 0 -66.333 -8.83301 -93 -26.5s-47.334 -42.834 -62.001 -75.501c-11.333 -26 -19.666 -53.667 -24.999 -83s-8 -63.333 -8 -102c0 -34 7.66699 -57.5 23 -70.5s33.666 -19.5 54.999 -19.5c12 0 28.333 4.33301 49 13zM574 86.5029
c26.667 17.667 47.333 42.832 62 75.499c22 52.667 33 111.334 33 176.001c0 36 -8.5 61.5 -25.5 76.5s-36.167 22.5 -57.5 22.5c-18 0 -37 -4.16699 -57 -12.5s-44.667 -22.5 -74 -42.5l-43 -312c24 -6.66699 47 -10 69 -10c35.333 0 66.333 8.83301 93 26.5z" />
    <glyph glyph-name="uni0445" unicode="&#x445;" horiz-adv-x="472" 
d="M188 250l-122 250h92l57 -131l16 -63c1.33301 -3.33301 3.33301 -5 6 -5c3.33301 0 6 1.66699 8 5l137 194h96l-192 -250l120 -250h-92l-52 124l-19 70c-0.666992 3.33301 -2.66699 5 -6 5s-6.33301 -1.66699 -9 -5l-138 -194h-96z" />
    <glyph glyph-name="uni0446" unicode="&#x446;" horiz-adv-x="537" 
d="M478 70l-28 -199.999h-72l18 130h-72l4 25v4c0 6 -2.66699 9 -8 9c-4 0 -7 -0.666992 -9 -2l-73 -40c-18.667 -4.66699 -35.334 -7 -50.001 -7c-43.333 0 -77.333 11.5 -102 34.5s-37 54.167 -37 93.5c0 5.33301 0.666992 14.666 2 27.999l47 355h80l-47 -361
c-0.666992 -3.33301 -1 -8 -1 -14c0 -21.333 6.33301 -37 19 -47s30.334 -15 53.001 -15c12 0 27 3.83301 45 11.5s49.333 24.167 94 49.5l49 376h80l-61 -430h69z" />
    <glyph glyph-name="uni0447" unicode="&#x447;" horiz-adv-x="512" 
d="M340 201v4.00195c0 4 -1.33301 6 -4 6c-3.33301 0 -7.66602 -1.33301 -12.999 -4l-55 -27c-12.667 -4 -31.334 -6 -56.001 -6c-38.667 0 -71.667 12.833 -99 38.5s-41 60.5 -41 104.5c0 13.333 0.666992 23.666 2 30.999l21 152h80l-22 -157
c-0.666992 -4.66699 -1 -11.334 -1 -20.001c0 -51.333 30.667 -77 92 -77c41.333 0 77 13.667 107 41l31 213h80l-70 -500h-80z" />
    <glyph glyph-name="uni0448" unicode="&#x448;" horiz-adv-x="836" 
d="M786 500l-71.001 -499.999h-75l4 25v4c0 6 -2.66699 9 -8 9c-4 0 -7 -0.666992 -9 -2l-73 -40c-18.667 -4.66699 -35.334 -7 -50.001 -7c-28 0 -52.333 5 -73 15s-36.667 24.333 -48 43c-28.667 -16 -59 -29.667 -91 -41s-59.333 -17 -82 -17
c-43.333 0 -77.333 11.5 -102 34.5s-37 54.167 -37 93.5c0 5.33301 0.666992 14.666 2 27.999l47 355h80l-47 -361c-0.666992 -3.33301 -1 -8 -1 -14c0 -21.333 6.33301 -37 19 -47s30.334 -15 53.001 -15c12.667 0 30.667 4 54 12s52.333 21.333 87 40
c0 5.33301 0.666992 15.333 2 30l47 355h80l-47 -361c-0.666992 -3.33301 -1 -8 -1 -14c0 -21.333 6.33301 -37 19 -47s30.334 -15 53.001 -15c12 0 27 3.83301 45 11.5s49.333 24.167 94 49.5l49 376h80z" />
    <glyph glyph-name="uni0449" unicode="&#x449;" horiz-adv-x="854" 
d="M793 60l-28.001 -199.999h-72l20 140h-73l4 25v4c0 6 -2.66699 9 -8 9c-4 0 -7 -0.666992 -9 -2l-73 -40c-18.667 -4.66699 -35.334 -7 -50.001 -7c-28 0 -52.333 5 -73 15s-36.667 24.333 -48 43c-28.667 -16 -59 -29.667 -91 -41s-59.333 -17 -82 -17
c-43.333 0 -77.333 11.5 -102 34.5s-37 54.167 -37 93.5c0 5.33301 0.666992 14.666 2 27.999l47 355h80l-47 -361c-0.666992 -3.33301 -1 -8 -1 -14c0 -21.333 6.33301 -37 19 -47s30.334 -15 53.001 -15c12.667 0 30.667 4 54 12s52.333 21.333 87 40
c0 5.33301 0.666992 15.333 2 30l47 355h80l-47 -361c-0.666992 -3.33301 -1 -8 -1 -14c0 -21.333 6.33301 -37 19 -47s30.334 -15 53.001 -15c12 0 27 3.83301 45 11.5s49.333 24.167 94 49.5l49 376h80l-62 -440h69z" />
    <glyph glyph-name="uni044A" unicode="&#x44a;" horiz-adv-x="520" 
d="M437 282c28 -24 42 -57.334 42 -100.001c0 -36.667 -10 -69.667 -30 -99s-46.833 -52.166 -80.5 -68.499s-70.167 -24.5 -109.5 -24.5c-52 0 -90.167 11 -114.5 33s-36.5 52 -36.5 90c0 10.667 0.333008 18.667 1 24l41 293h-105l10 70h185l-25 -182h104
c50.667 0 90 -12 118 -36zM362 93.999c24.667 22.667 36.999 51.999 36.999 87.999c-1.33301 20.667 -9.16602 36.834 -23.499 48.501s-34.833 17.5 -61.5 17.5h-109l-17 -121c-4 -44.667 21.667 -67 77 -67c40 0 72.333 11.333 97 34z" />
    <glyph glyph-name="uni044B" unicode="&#x44b;" horiz-adv-x="690" 
d="M120 500l80 -0.000976562l-25 -182h104c50.667 0 90 -12 118 -36s42 -57.333 42 -100c0 -36.667 -10 -69.667 -30 -99s-46.833 -52.166 -80.5 -68.499s-70.167 -24.5 -109.5 -24.5c-52 0 -90.167 11 -114.5 33s-36.5 52 -36.5 90c0 10.667 0.333008 18.667 1 24z
M560 499.999h80l-70 -500h-80zM322 93.999c24.667 22.667 36.999 51.999 36.999 87.999c-1.33301 20.667 -9.16602 36.834 -23.499 48.501s-34.833 17.5 -61.5 17.5h-109l-17 -121c-4 -44.667 21.667 -67 77 -67c40 0 72.333 11.333 97 34z" />
    <glyph glyph-name="uni044C" unicode="&#x44c;" horiz-adv-x="480" 
d="M120 500l80 -0.000976562l-25 -182h104c50.667 0 90 -12 118 -36s42 -57.333 42 -100c0 -36.667 -10 -69.667 -30 -99s-46.833 -52.166 -80.5 -68.499s-70.167 -24.5 -109.5 -24.5c-52 0 -90.167 11 -114.5 33s-36.5 52 -36.5 90c0 10.667 0.333008 18.667 1 24z
M322 93.999c24.667 22.667 36.999 51.999 36.999 87.999c-1.33301 20.667 -9.16602 36.834 -23.499 48.501s-34.833 17.5 -61.5 17.5h-109l-17 -121c-4 -44.667 21.667 -67 77 -67c40 0 72.333 11.333 97 34z" />
    <glyph glyph-name="uni044D" unicode="&#x44d;" horiz-adv-x="461" 
d="M327.5 488.5c27.667 -15.667 48.498 -36.832 62.498 -63.499s21 -56 21 -88c0 -57.333 -8 -118 -24 -182c-14 -50.667 -38.667 -91 -74 -121s-80.333 -45 -135 -45c-30.667 0 -60 4 -88 12s-55 22.667 -81 44l25 70c20 -18.667 42.167 -32.5 66.5 -41.5
s49.833 -13.5 76.5 -13.5c40.667 0 72.334 11 95.001 33s38.334 53.667 47.001 95l7 32h-205l10 70h204c0.666992 6.66699 1 16.667 1 30c0 39.333 -8.66699 69.166 -26 89.499s-45.333 30.5 -84 30.5c-24 0 -46.167 -3.16699 -66.5 -9.5s-42.5 -15.833 -66.5 -28.5l-19 67
c26.667 15.333 51.5 26.333 74.5 33s49.167 10 78.5 10c39.333 0 72.833 -7.83301 100.5 -23.5z" />
    <glyph glyph-name="uni044E" unicode="&#x44e;" horiz-adv-x="721" 
d="M593 485.5c26 -17 45.499 -39.502 58.499 -67.502s19.5 -58.333 19.5 -91c0 -30.667 -3 -64.667 -9 -102s-14 -68.666 -24 -93.999c-17.333 -45.333 -44 -80.333 -80 -105s-77.333 -37 -124 -37c-37.333 0 -69 8.5 -95 25.5s-45.5 39.5 -58.5 67.5s-19.5 58.333 -19.5 91
c0 8.66699 0.666992 24.334 2 47.001h-102l-31 -220h-80l70 500h80l-29 -210h102c4.66699 26.667 11.667 53 21 79c17.333 45.333 43.833 80.333 79.5 105s76.834 37 123.501 37c38 0 70 -8.5 96 -25.5zM586.999 232.998c5.33301 34 7.99902 63.999 7.99902 89.999
c0 33.333 -8.5 61.166 -25.5 83.499s-42.833 33.5 -77.5 33.5c-31.333 0 -57.166 -8 -77.499 -24s-36.833 -39.667 -49.5 -71c-8 -20 -14.667 -46.167 -20 -78.5s-8 -62.166 -8 -89.499c0 -33.333 8.5 -61.166 25.5 -83.499s42.5 -33.5 76.5 -33.5c32 0 58.167 8 78.5 24
s36.833 39.667 49.5 71c8 18 14.667 44 20 78z" />
    <glyph glyph-name="uni044F" unicode="&#x44f;" horiz-adv-x="496" 
d="M117 163l38.001 39.001c2.66699 2.66699 4 5.66699 4 9c0 5.33301 -2 8.33301 -6 9c-29.333 10.667 -52.166 25.667 -68.499 45s-24.5 45.666 -24.5 78.999c0 27.333 7.66699 53 23 77s37.666 43.167 66.999 57.5s63.666 21.5 102.999 21.5h193l-70 -500h-80l28 200h-89
l-150 -200h-91zM333.001 265.001l24 166.999h-110c-36 0 -63 -8.5 -81 -25.5s-27 -38.167 -27 -63.5c0 -27.333 8.5 -47.166 25.5 -59.499s36.167 -18.5 57.5 -18.5h111z" />
    <glyph glyph-name="uni0450" unicode="&#x450;" horiz-adv-x="482" 
d="M266 600l-79 150h83l79 -150h-83zM412 464.5c25.333 -30.333 38.001 -70.167 38.001 -119.5c0 -22.667 -2.66699 -46.667 -8 -72l-28 -40h-287c-1.33301 -14.667 -2 -28.667 -2 -42c-1.33301 -42 7.16699 -74.333 25.5 -97s45.166 -34 80.499 -34
c21.333 0 39.5 4.16699 54.5 12.5s34.833 24.166 59.5 47.499l60 -29c-31.333 -36.667 -61.333 -62.667 -90 -78s-58 -23 -88 -23c-38 0 -70.333 8 -97 24s-46.667 37.5 -60 64.5s-20 56.5 -20 88.5c0 52.667 5.66699 101 17 145c15.333 60.667 43.833 108.834 85.5 144.501
s88.167 53.5 139.5 53.5c54.667 0 94.667 -15.167 120 -45.5zM375.001 350.999c0 29.333 -7.33105 51.5 -21.998 66.5s-35.334 22.5 -62.001 22.5c-32 0 -61.833 -11.667 -89.5 -35s-47.834 -57.333 -60.501 -102h228c4 18 6 34 6 48z" />
    <glyph glyph-name="uni0451" unicode="&#x451;" horiz-adv-x="482" 
d="M253 600h-81l14 100h81zM424 600h-81l14 100h81zM412 464.5c25.333 -30.333 38.001 -70.167 38.001 -119.5c0 -22.667 -2.66699 -46.667 -8 -72l-28 -40h-287c-1.33301 -14.667 -2 -28.667 -2 -42c-1.33301 -42 7.16699 -74.333 25.5 -97s45.166 -34 80.499 -34
c21.333 0 39.5 4.16699 54.5 12.5s34.833 24.166 59.5 47.499l60 -29c-31.333 -36.667 -61.333 -62.667 -90 -78s-58 -23 -88 -23c-38 0 -70.333 8 -97 24s-46.667 37.5 -60 64.5s-20 56.5 -20 88.5c0 52.667 5.66699 101 17 145c15.333 60.667 43.833 108.834 85.5 144.501
s88.167 53.5 139.5 53.5c54.667 0 94.667 -15.167 120 -45.5zM375.001 350.999c0 29.333 -7.33105 51.5 -21.998 66.5s-35.334 22.5 -62.001 22.5c-32 0 -61.833 -11.667 -89.5 -35s-47.834 -57.333 -60.501 -102h228c4 18 6 34 6 48z" />
    <glyph glyph-name="uni0452" unicode="&#x452;" horiz-adv-x="549" 
d="M443.5 472.5c25.667 -25 38.501 -57.832 38.501 -98.499c0 -4.66699 -0.666992 -13 -2 -25l-46 -349c-8.66699 -60.667 -27.334 -108.834 -56.001 -144.501s-67 -61.834 -115 -78.501l-23 70c29.333 8 54.166 25.333 74.499 52s33.5 60.334 39.5 101.001l47 355
c0.666992 4 1 9.33301 1 16c0 22 -6 38.5 -18 49.5s-28.667 16.5 -50 16.5c-20 0 -39.5 -3.16699 -58.5 -9.5s-45.5 -19.833 -79.5 -40.5l-54 -387h-80l83 595h-96l10 69h96l12 86h80l-12 -86h135l-10 -69h-135l-18 -131c28.667 18 52.334 30.167 71.001 36.5s41 9.5 67 9.5
c40 0 72.833 -12.5 98.5 -37.5z" />
    <glyph glyph-name="uni0453" unicode="&#x453;" horiz-adv-x="435" 
d="M341 750h87l-121 -150h-87zM60.5 26.5c-29 25.667 -43.499 59.501 -43.499 101.501c0 46 15 81.167 45 105.5s72.667 42.5 128 54.5l61 13c27.333 6 47.5 14.667 60.5 26s19.5 28.666 19.5 51.999c0 20 -7.83301 35.167 -23.5 45.5s-38.167 15.5 -67.5 15.5
c-51.333 0 -97 -12.667 -137 -38l-21 67c46.667 28.667 100 43 160 43c51.333 0 91.666 -12.333 120.999 -37s44 -58 44 -100c0 -44.667 -13 -77.667 -39 -99s-63.667 -37 -113 -47l-63 -13c-31.333 -6.66699 -55.666 -17 -72.999 -31s-26 -33.333 -26 -58
c0 -22 7.83301 -38.667 23.5 -50s38.5 -17 68.5 -17c27.333 0 53.333 4.33301 78 13s50.667 22 78 40l22 -70c-27.333 -17.333 -56.333 -30.833 -87 -40.5s-61.334 -14.5 -92.001 -14.5c-53.333 0 -94.5 12.833 -123.5 38.5z" />
    <glyph glyph-name="uni0454" unicode="&#x454;" horiz-adv-x="450" 
d="M278.5 71.5c15.667 7.66699 37.499 23.8311 65.499 48.498l60 -29c-33.333 -38.667 -64.5 -65.167 -93.5 -79.5s-58.167 -21.5 -87.5 -21.5c-35.333 0 -66.166 7.83301 -92.499 23.5s-46.5 36.667 -60.5 63s-21 54.833 -21 85.5c0 56.667 7.33301 111 22 163
c15.333 54 42.5 98.333 81.5 133s84.5 52 136.5 52c26.667 0 51.334 -3.83301 74.001 -11.5s45.667 -19.167 69 -34.5l-29 -63c-20.667 12.667 -39.834 22 -57.501 28s-37.167 9 -58.5 9c-36 0 -66.333 -12.167 -91 -36.5s-42.667 -57.166 -54 -98.499l-3 -13h203l-10 -70
h-206c-0.666992 -7.33301 -1 -18.666 -1 -33.999c0 -36 8.5 -66 25.5 -90s42.833 -36 77.5 -36c18 0 34.833 3.83301 50.5 11.5z" />
    <glyph glyph-name="uni0455" unicode="&#x455;" horiz-adv-x="452" 
d="M104.5 4c-33 10.667 -58.499 23.999 -76.499 39.999l26 70c18 -17.333 40.667 -30.666 68 -39.999s56.333 -14 87 -14c31.333 0 56.5 7.16699 75.5 21.5s28.5 33.5 28.5 57.5c0 20.667 -5 37.167 -15 49.5s-26.333 22.5 -49 30.5l-49 18
c-40.667 14.667 -71 32.167 -91 52.5s-30 46.166 -30 77.499c0 42.667 16.167 77.5 48.5 104.5s73.833 40.5 124.5 40.5c30 0 59 -3.83301 87 -11.5s53.333 -18.5 76 -32.5l-25 -64c-41.333 23.333 -87.666 35 -138.999 35c-28.667 0 -51.834 -6 -69.501 -18
s-26.5 -28.333 -26.5 -49c0 -16.667 4.66699 -29.667 14 -39s24.666 -18 45.999 -26l49 -18c41.333 -15.333 72.333 -34.166 93 -56.499s31 -50.833 31 -85.5c0 -30.667 -7.5 -58 -22.5 -82s-36 -42.833 -63 -56.5s-57.5 -20.5 -91.5 -20.5c-38 0 -73.5 5.33301 -106.5 16z
" />
    <glyph glyph-name="uni0456" unicode="&#x456;" horiz-adv-x="255" 
d="M153 700h80l-14 -100h-80zM115 430h-70l10 70h150l-70 -500h-80z" />
    <glyph glyph-name="uni0457" unicode="&#x457;" horiz-adv-x="290" 
d="M86 700h81l-14 -100h-81zM236 700h81l-14 -100h-81zM145 430h-70l10 70h150l-70 -500h-80z" />
    <glyph glyph-name="uni0458" unicode="&#x458;" horiz-adv-x="286" 
d="M183 700h80l-14 -100h-80zM-47 -153c34.667 9.33301 64 27.333 88 54s39 62 45 106l59 423h-70l10 70h151l-71 -497c-9.33301 -61.333 -29.833 -110 -61.5 -146s-74.167 -62.667 -127.5 -80z" />
    <glyph glyph-name="uni0459" unicode="&#x459;" horiz-adv-x="750" 
d="M667 282c28 -24 41.999 -57.3359 41.999 -100.003c0 -36.667 -10 -69.667 -30 -99s-46.833 -52.166 -80.5 -68.499s-70.167 -24.5 -109.5 -24.5c-52 0 -90.167 11 -114.5 33s-36.5 52 -36.5 90c0 10.667 0.333008 18.667 1 24l41 293l-150 -2
c-17.333 -108 -40.666 -212.333 -69.999 -313c-24 -67.333 -73.333 -109.333 -148 -126l-20 67c22 6.66699 41.5 16.834 58.5 30.501s29.167 30.5 36.5 50.5c12.667 34 25 78.833 37 134.5s25.333 131.834 40 228.501h306l-25 -182h104c50.667 0 90 -12 118 -36z
M591.999 93.9971c24.667 22.667 36.999 51.999 36.999 87.999c-1.33301 20.667 -9.16602 36.834 -23.499 48.501s-34.833 17.5 -61.5 17.5h-109l-17 -121c-4 -44.667 21.667 -67 77 -67c40 0 72.333 11.333 97 34z" />
    <glyph glyph-name="uni045A" unicode="&#x45a;" horiz-adv-x="767" 
d="M680 282c28 -24 42 -57.334 42 -100.001c0 -36.667 -10 -69.667 -30 -99s-46.833 -52.166 -80.5 -68.499s-70.167 -24.5 -109.5 -24.5c-52 0 -90.167 11 -114.5 33s-36.5 52 -36.5 90c0 10.667 0.333008 18.667 1 24l15 110h-202l-35 -247h-80l70 500h80l-26 -183h203
l26 183h80l-25 -182h104c50.667 0 90 -12 118 -36zM605 93.999c24.667 22.667 36.999 51.999 36.999 87.999c-1.33301 20.667 -9.16602 36.834 -23.499 48.501s-34.833 17.5 -61.5 17.5h-109l-17 -121c-4 -44.667 21.667 -67 77 -67c40 0 72.333 11.333 97 34z" />
    <glyph glyph-name="uni045B" unicode="&#x45b;" horiz-adv-x="538" 
d="M432.5 472.5c25.667 -25 38.499 -57.833 38.499 -98.5c0 -4.66699 -0.666992 -13 -2 -25l-46 -349h-80l47 355c0.666992 4 1 9.33301 1 16c0 22 -6 38.5 -18 49.5s-28.667 16.5 -50 16.5c-20 0 -39.5 -3.16699 -58.5 -9.5s-45.5 -19.833 -79.5 -40.5l-54 -387h-80l83 595
h-96l10 69h96l12 86h80l-12 -86h135l-10 -69h-135l-18 -131c28.667 18 52.334 30.167 71.001 36.5s41 9.5 67 9.5c40 0 72.833 -12.5 98.5 -37.5z" />
    <glyph glyph-name="uni045C" unicode="&#x45c;" horiz-adv-x="487" 
d="M321 600h-87l121 150h87zM305 255l116 -255h-88l-102 220h-68l-31 -220h-82l70 500h82l-29 -210h68l156 210h87z" />
    <glyph glyph-name="uni045D" unicode="&#x45d;" horiz-adv-x="520" 
d="M198 750h83l79 -150h-83zM86 23.5c-24.667 23 -37 54.168 -37 93.501c0 5.33301 0.666992 14.666 2 27.999l47 355h80l-47 -361c-0.666992 -3.33301 -1 -8 -1 -14c0 -21.333 6.33301 -37 19 -47s30.334 -15 53.001 -15c12 0 27 3.83301 45 11.5s49.333 24.167 94 49.5
l49 376h80l-71 -500h-75l4 25v4c0 6 -2.66699 9 -8 9c-4 0 -7 -0.666992 -9 -2l-73 -40c-18.667 -4.66699 -35.334 -7 -50.001 -7c-43.333 0 -77.333 11.5 -102 34.5z" />
    <glyph glyph-name="uni045E" unicode="&#x45e;" horiz-adv-x="470" 
d="M15 -155c34.667 14 62.001 30.1689 82.001 48.502s38 44.166 54 77.499l20 41l-115 488h82l64 -269l8 -98c1.33301 -5.33301 3.33301 -8 6 -8c4 0 7 2.66699 9 8l165 367h85l-255 -550c-20 -44 -44.833 -79.833 -74.5 -107.5s-65.834 -48.834 -108.501 -63.501z
M192.501 637.002c-26.333 20 -41.168 48.667 -44.501 86l61 13c4.66699 -23.333 13.334 -40.833 26.001 -52.5s30.667 -17.5 54 -17.5c48 0 84 24.667 108 74l58 -21c-14 -37.333 -36 -65.333 -66 -84s-63 -28 -99 -28c-38.667 0 -71.167 10 -97.5 30z" />
    <glyph glyph-name="uni045F" unicode="&#x45f;" horiz-adv-x="542" 
d="M108 23.5c-24.667 23 -37 54.168 -37 93.501c0 5.33301 0.666992 14.666 2 27.999l47 355h80l-47 -361c-0.666992 -3.33301 -1 -8 -1 -14c0 -21.333 6.33301 -37 19 -47s30.334 -15 53.001 -15c12 0 27 3.83301 45 11.5s49.333 24.167 94 49.5l49 376h80l-71 -500h-75
l4 25v4c0 6 -2.66699 9 -8 9c-4 0 -7 -0.666992 -9 -2l-73 -40c-18.667 -4.66699 -35.334 -7 -50.001 -7c-43.333 0 -77.333 11.5 -102 34.5zM224 -31.999h62l-19 -151h-72z" />
    <glyph glyph-name="uni0460" unicode="&#x460;" horiz-adv-x="799" 
d="M760 552l-1 -33.002c-7.33301 -166 -29.5 -296 -66.5 -390s-99.833 -141 -188.5 -141c-61.333 0 -104.333 22.333 -129 67c-34 -44.667 -78.667 -67 -134 -67c-56 0 -97.667 17.833 -125 53.5s-41 93.167 -41 172.5c0 76.667 9.5 161.667 28.5 255
s43.167 170.333 72.5 231h85c-34 -79.333 -60.5 -163.166 -79.5 -251.499s-28.5 -171.5 -28.5 -249.5c0 -50 7 -84.5 21 -103.5s37 -28.5 69 -28.5c36 0 61.833 14.5 77.5 43.5s27.834 73.5 36.501 133.5l25 180h-110l11 76h303l-11 -76h-110l-25 -181
c-5.33301 -35.333 -8 -64.333 -8 -87c0 -29.333 5.5 -51.5 16.5 -66.5s30.167 -22.5 57.5 -22.5c61.333 0 105.166 48.333 131.499 145s39.5 206.334 39.5 329.001c0 55.333 -3.66699 108.333 -11 159h80c9.33301 -48 14 -97.333 14 -148z" />
    <glyph glyph-name="uni0461" unicode="&#x461;" horiz-adv-x="649" 
d="M50 175c0 26 2.66699 59.3301 8 99.9971c5.33301 36.667 16.333 77.834 33 123.501s34.334 79.5 53.001 101.5h85c-19.333 -25.333 -37.833 -61.666 -55.5 -108.999s-29.167 -89.333 -34.5 -126c-6 -44 -9 -79.333 -9 -106c0 -40.667 5.16699 -67.5 15.5 -80.5
s24.166 -19.5 41.499 -19.5c26.667 0 46.667 12.833 60 38.5s23.333 62.834 30 111.501l41 291h83l-42 -298c-4.66699 -28 -7 -50.333 -7 -67c0 -50.667 16 -76 48 -76c16 0 30.667 4.66699 44 14s26.333 30 39 62s23.334 78.667 32.001 140c3.33301 23.333 5 49 5 77
c0 29.333 -2 57.333 -6 84s-10 48 -18 64h77c8.66699 -17.333 15.334 -41 20.001 -71s7 -61.333 7 -94c0 -28 -1.33301 -51.333 -4 -70c-14.667 -103.333 -39.334 -175.333 -74.001 -216s-75.667 -61 -123 -61c-48 0 -82.333 15.667 -103 47
c-28.667 -31.333 -65.334 -47 -110.001 -47c-90.667 0 -136 62.333 -136 187z" />
    <glyph glyph-name="uni0462" unicode="&#x462;" horiz-adv-x="576" 
d="M484.5 356c35.667 -33.333 53.5 -80.999 53.5 -142.999c0 -68.667 -20.167 -121.334 -60.5 -158.001s-93.5 -55 -159.5 -55h-233l74 532h-109l9 69h110l14 99h83l-14 -99h188l-9 -69h-188l-18 -126h96c73.333 0 127.833 -16.667 163.5 -50zM422.5 109.501
c25.667 26.333 38.5 59.167 38.5 98.5c0 42.667 -11.5 74.667 -34.5 96s-58.167 32 -105.5 32h-106l-37 -266h143c42 0 75.833 13.167 101.5 39.5z" />
    <glyph glyph-name="uni0463" unicode="&#x463;" horiz-adv-x="681" 
d="M602.5 282c24.333 -24 36.501 -58 36.501 -102c0 -35.333 -8.83301 -67.5 -26.5 -96.5s-41.834 -51.833 -72.501 -68.5s-64.334 -25 -101.001 -25c-44.667 0 -77.667 11 -99 33s-32 52 -32 90c0 10.667 0.333008 18.667 1 24l31 237c0.666992 3.33301 1 8 1 14
c0 32.667 -15.333 49 -46 49c-16.667 0 -32.167 -3.16699 -46.5 -9.5s-35.5 -19.833 -63.5 -40.5l-55 -387h-80l57 412l-57 28l33 70l101 -49c2.66699 -1.33301 5 -2 7 -2c2.66699 0 5.33398 1.33301 8.00098 4l12 12c16 12.667 30.833 21.667 44.5 27s28.5 8 44.5 8
c40 0 70.5 -10.833 91.5 -32.5s31.5 -49.5 31.5 -83.5c0 -5.33301 -0.666992 -13.333 -2 -24l-6 -52h84c44.667 0 79.167 -12 103.5 -36zM542.001 230c-11.333 12 -27.334 18 -48.001 18h-89l-17 -121c-2.66699 -44.667 16.333 -67 57 -67c34.667 0 62.334 11.5 83.001 34.5
s31 51.833 31 86.5c0 20.667 -5.66699 37 -17 49z" />
    <glyph glyph-name="uni0464" unicode="&#x464;" horiz-adv-x="755" 
d="M769 644l-34.001 -69c-14 19.333 -32.333 34.333 -55 45s-49.334 16 -80.001 16c-80 0 -132.667 -41 -158 -123c-11.333 -34 -21.333 -75.333 -30 -124h256l-11 -78h-256c-4 -34 -6 -66 -6 -96c0 -48 12.5 -85.167 37.5 -111.5s60.167 -39.5 105.5 -39.5
c24 0 47.833 5 71.5 15s44.167 22.667 61.5 38l20 -78c-41.333 -34 -95 -51 -161 -51c-46 0 -85.167 10.333 -117.5 31s-56.5 48.167 -72.5 82.5s-24 71.833 -24 112.5c0 30.667 2 63 6 97h-140l-44 -311h-83l98 700h83l-43 -311h140c8.66699 54 20.334 102.333 35.001 145
c16.667 55.333 44.834 98.833 84.501 130.5s91.5 47.5 155.5 47.5c67.333 0 121 -22.667 161 -68z" />
    <glyph glyph-name="uni0465" unicode="&#x465;" horiz-adv-x="628" 
d="M456.5 71.5c15.667 7.66699 37.499 23.832 65.499 48.499l60 -29c-33.333 -38.667 -64.5 -65.167 -93.5 -79.5s-58.167 -21.5 -87.5 -21.5c-35.333 0 -66.166 7.83301 -92.499 23.5s-46.5 36.667 -60.5 63s-21 54.833 -21 85.5c0 13.333 0.666992 32.666 2 57.999h-68
l-31 -220h-80l70 500h80l-29 -210h69l9 35c15.333 54 42.5 98.333 81.5 133s84.5 52 136.5 52c26.667 0 51.334 -3.83301 74.001 -11.5s45.667 -19.167 69 -34.5l-29 -63c-20.667 12.667 -39.834 22 -57.501 28s-37.167 9 -58.5 9c-36 0 -66.333 -12.167 -91 -36.5
s-42.667 -57.166 -54 -98.499l-3 -13h203l-10 -70h-206c-0.666992 -7.33301 -1 -18.666 -1 -33.999c0 -36 8.5 -66 25.5 -90s42.833 -36 77.5 -36c18 0 34.833 3.83301 50.5 11.5z" />
    <glyph glyph-name="uni0466" unicode="&#x466;" horiz-adv-x="596" 
d="M456 0l-46 293l-74 -70l-32 -223h-80l32 223l-55 70l-131 -293h-86l317 700h119l120 -700h-84zM397 372l-27 174.001l-2 79c0 3.33301 -0.833008 6 -2.5 8s-3.5 3 -5.5 3s-4 -0.833008 -6 -2.5s-3.33301 -3.83398 -4 -6.50098l-115 -258l68 -80z" />
    <glyph glyph-name="uni0467" unicode="&#x467;" horiz-adv-x="508" 
d="M392 0l-53 201l-62 -59l-21 -142h-74l21 142l-46 58l-109 -200h-79l273 500h92l133 -500h-75zM320 272l-25.001 92l-3 58c0 4.66699 -2 7 -6 7c-3.33301 0 -6 -2 -8 -6l-84 -154l43 -59c2.66699 -4 5.33398 -6 8.00098 -6s5.66699 1.66699 9 5z" />
    <glyph glyph-name="uni0468" unicode="&#x468;" horiz-adv-x="857" 
d="M717 0l-46 293l-74 -70l-32 -223h-80l32 223l-55 70l-131 -293h-86l141 311h-204l-44 -311h-83l98 700h83l-43 -311h228l141 311h119l120 -700h-84zM658 372l-27 174.001l-2 79c0 3.33301 -0.833008 6 -2.5 8s-3.5 3 -5.5 3s-4 -0.833008 -6 -2.5
s-3.33301 -3.83398 -4 -6.50098l-115 -258l68 -80z" />
    <glyph glyph-name="uni0469" unicode="&#x469;" horiz-adv-x="710" 
d="M594 0l-53 201l-62 -59l-21 -142h-74l21 142l-46 58l-109 -200h-79l120 220h-130l-31 -220h-80l70 500h80l-29 -210h158l115 210h92l133 -500h-75zM522 272l-25.001 92l-3 58c0 4.66699 -2 7 -6 7c-3.33301 0 -6 -2 -8 -6l-84 -154l43 -59
c2.66699 -4 5.33398 -6 8.00098 -6s5.66699 1.66699 9 5z" />
    <glyph glyph-name="uni046A" unicode="&#x46a;" horiz-adv-x="784" 
d="M73 175c22 56 44.667 97.833 68 125.5s56 49.167 98 64.5l48 7c6 1.33301 9 4.33301 9 9c0 4 -1.33301 7.66699 -4 11l-170 258l6 50h654l-6 -50l-237 -259c-4 -4 -6 -7.66699 -6 -11c0 -4 2.66699 -6.66699 8 -8l32 -6c38 -15.333 65.167 -37.666 81.5 -66.999
s27.5 -72 33.5 -128l20 -171h-84l-16 177c-4 46.667 -18.833 81.167 -44.5 103.5s-65.5 33.5 -119.5 33.5l-46 -314h-82l46 314c-54 0 -97.667 -11.833 -131 -35.5s-58.333 -58.834 -75 -105.501l-66 -173h-86zM436 385l149 179l60 50c4 3.33301 6 6.66602 6 9.99902
c0 4 -2.33301 6 -7 6h-407c-6.66699 0 -10 -2.33301 -10 -7c0 -3.33301 1.66699 -6.66602 5 -9.99902l56 -56l98 -172h50z" />
    <glyph glyph-name="uni046B" unicode="&#x46b;" horiz-adv-x="534" 
d="M5 48c25.333 64.667 48.999 115.169 70.999 151.502s48.667 57.5 80 63.5c7.33301 1.33301 12 3.66602 14 6.99902s2 6.66602 0 9.99902l-83 170l6 50h428l-6 -50l-130 -174c-2.66699 -4 -4 -7 -4 -9c0 -2.66699 2 -5 6 -7c22 -9.33301 39.333 -25.5 52 -48.5
s21.834 -48.667 27.501 -77s11.5 -64.5 17.5 -108.5c1.33301 -6.66699 2.66602 -15.334 3.99902 -26.001h-76c-4.66699 50 -9.5 88.833 -14.5 116.5s-14.167 51.834 -27.5 72.501s-33 31 -59 31l-33 -220h-82l33 220c-26 0 -48.667 -10.333 -68 -31
s-35.666 -45.167 -48.999 -73.5s-29 -66.833 -47 -115.5h-80zM312.999 290.002l62.001 91.001l47 40c2 1.33301 2.66699 3.16602 2 5.49902s-2.33398 3.5 -5.00098 3.5h-249c-3.33301 0 -5.5 -1 -6.5 -3s-0.833008 -4 0.5 -6l42 -47l35 -84h72z" />
    <glyph glyph-name="uni046C" unicode="&#x46c;" horiz-adv-x="1014" 
d="M769 391c-4 -4 -6 -7.66895 -6 -11.002c0 -4 2.66699 -6.66699 8 -8l32 -6c38 -15.333 65.167 -37.666 81.5 -66.999s27.5 -72 33.5 -128l20 -171h-84l-16 177c-4 46.667 -18.833 81.167 -44.5 103.5s-65.5 33.5 -119.5 33.5l-46 -314h-82l46 314
c-54 0 -97.667 -11.833 -131 -35.5s-58.333 -58.834 -75 -105.501l-66 -173h-86l69 175c12.667 32.667 25 59.834 37 81.501s25.667 39.834 41 54.501h-199l-44 -311h-83l98 700h83l-43 -311h331l-2 3l-170 258l6 50h654l-6 -50zM815 563.998l60 50
c4 3.33301 6 6.66602 6 9.99902c0 4 -2.33301 6 -7 6h-407c-6.66699 0 -10 -2.33301 -10 -7c0 -3.33301 1.66699 -6.66602 5 -9.99902l56 -56l98 -172h50z" />
    <glyph glyph-name="uni046D" unicode="&#x46d;" horiz-adv-x="735" 
d="M586 276c-2.66699 -4 -4.00098 -7 -4.00098 -9c0 -2.66699 2 -5 6 -7c22 -9.33301 39.333 -25.5 52 -48.5s21.834 -48.667 27.501 -77s11.5 -64.5 17.5 -108.5c1.33301 -6.66699 2.66602 -15.334 3.99902 -26.001h-76c-4.66699 50 -9.5 88.833 -14.5 116.5
s-14.167 51.834 -27.5 72.501s-33 31 -59 31l-33 -220h-82l33 220c-26 0 -48.667 -10.333 -68 -31s-35.666 -45.167 -48.999 -73.5s-29 -66.833 -47 -115.5h-80l22 54c15.333 39.333 29.333 72.333 42 99s26.667 49 42 67h-131l-31 -220h-80l70 500h80l-29 -210h195l-78 160
l6 50h428l-6 -50zM622.999 421c2 1.33301 2.66797 3.16699 2.00098 5.5s-2.33398 3.5 -5.00098 3.5h-249c-3.33301 0 -5.5 -1 -6.5 -3s-0.833008 -4 0.5 -6l42 -47l35 -84h72l62 91z" />
    <glyph glyph-name="uni046E" unicode="&#x46e;" horiz-adv-x="518" 
d="M221 920h73l31 -67l3 -31c1.33301 -4 3 -6 5 -6c2.66699 0 5 2 7 6l69 98h77l-116 -150h-75zM29.5 -208.5c-21.667 10.333 -39.833 25.333 -54.5 45s-22 43.167 -22 70.5c0 56 18.833 97.5 56.5 124.5s89.167 40.5 154.5 40.5l42 -1c54.667 0 96.667 11.167 126 33.5
s44 56.5 44 102.5c0 33.333 -10.667 59.5 -32 78.5s-52.333 28.5 -93 28.5h-114l11 76h109c47.333 0 84.666 13.167 111.999 39.5s41 60.5 41 102.5c0 30.667 -10 54.5 -30 71.5s-48.333 25.5 -85 25.5c-31.333 0 -61.833 -4.16699 -91.5 -12.5s-54.5 -19.833 -74.5 -34.5
l-21 71c32.667 18.667 64.667 32.167 96 40.5s66 12.5 104 12.5c36.667 0 68.834 -7.5 96.501 -22.5s48.834 -35.5 63.501 -61.5s22 -55 22 -87c0 -42.667 -11.667 -81 -35 -115s-53 -56.333 -89 -67c25.333 -12.667 47.166 -31.167 65.499 -55.5s27.5 -54.166 27.5 -89.499
c0 -68 -22.333 -120.667 -67 -158s-107 -56 -187 -56h-48c-86 0 -129 -25.667 -129 -77c0 -45.333 28.667 -68 86 -68c34 0 70.5 4.5 109.5 13.5s81.167 20.5 126.5 34.5l11 -76c-50.667 -14.667 -96.667 -25.834 -138 -33.501s-85 -11.5 -131 -11.5
c-20 0 -40.833 5.16699 -62.5 15.5z" />
    <glyph glyph-name="uni046F" unicode="&#x46f;" horiz-adv-x="440" 
d="M111 750h73l31 -67l3 -31c1.33301 -4 3 -6 5 -6c2.66699 0 5 2 7 6l69 98h77l-116 -150h-75zM239.5 -47c31.667 8.66699 59.498 20.333 83.498 35l1 -71c-19.333 -12.667 -43.666 -24 -72.999 -34s-61.333 -15 -96 -15c-48.667 0 -89.5 8 -122.5 24
s-49.5 41.667 -49.5 77c0 36.667 11.667 61.834 35 75.501s51.333 20.5 84 20.5h53c44.667 0 79 8.66699 103 26s36 40.666 36 69.999c0 18.667 -7.5 33.5 -22.5 44.5s-36.833 16.5 -65.5 16.5h-107l10 69h103c28 0 50.667 7.16699 68 21.5s27.666 34.166 30.999 59.499l1 9
c0 18.667 -8.33301 33.334 -25 44.001s-40.334 16 -71.001 16c-24 0 -48.333 -3 -73 -9s-46.667 -14.667 -66 -26l-20 66c26.667 14.667 53.167 25 79.5 31s54.5 9 84.5 9c44 0 83.167 -10.5 117.5 -31.5s51.5 -52.833 51.5 -95.5c0 -32.667 -9.33301 -60.334 -28 -83.001
s-42 -38 -70 -46c22 -7.33301 40.667 -19.166 56 -35.499s23 -37.833 23 -64.5c0 -8 -0.333008 -14.333 -1 -19c-7.33301 -50 -30.5 -86.5 -69.5 -109.5s-89.5 -34.5 -151.5 -34.5h-40c-14 0 -25 -1.33301 -33 -4s-13 -9.66699 -15 -21
c-1.33301 -7.33301 5.83398 -13.833 21.501 -19.5s38.834 -8.5 69.501 -8.5c26.667 0 55.834 4.33301 87.501 13z" />
    <glyph glyph-name="uni0470" unicode="&#x470;" horiz-adv-x="723" 
d="M746 700l-39.001 -255.001c-10.667 -72.667 -42 -127 -94 -163s-119.333 -56.667 -202 -62l-33 -220h-82l33 220c-54 2.66699 -97.833 11.5 -131.5 26.5s-59.167 38.833 -76.5 71.5s-26.666 76.334 -27.999 131.001l-9 251h84l5 -257c1.33301 -50 15 -87 41 -111
s66.333 -36 121 -36l59 404h82l-59 -404c56.667 0 104 13 142 39s60.333 63.333 67 112l35 253h85z" />
    <glyph glyph-name="uni0471" unicode="&#x471;" horiz-adv-x="623" 
d="M236 -9c-48 4.66699 -87.8311 23.334 -119.498 56.001s-47.834 88.667 -48.501 168l-3 285h85l1 -286c0 -90 31.667 -139 95 -147l89 633h80l-89 -632c40 4 73.167 19.667 99.5 47s43.166 66.666 50.499 117.999l37 267h85l-43 -285
c-9.33301 -66.667 -35.5 -119 -78.5 -157s-96.5 -60.333 -160.5 -67l-34 -241h-80z" />
    <glyph glyph-name="uni0472" unicode="&#x472;" 
d="M474 681c32.667 -20.667 56.999 -48.167 72.999 -82.5s24 -71.833 24 -112.5c0 -46.667 -4.66699 -99.667 -14 -159s-22 -113 -38 -161c-16 -55.333 -44.167 -98.833 -84.5 -130.5s-92.5 -47.5 -156.5 -47.5c-46 0 -85.167 10.333 -117.5 31s-56.5 48.167 -72.5 82.5
s-24 71.833 -24 112.5c0 48 4.66699 101.667 14 161s22 112.333 38 159c16.667 55.333 44.834 98.833 84.501 130.5s91.5 47.5 155.5 47.5c46 0 85.333 -10.333 118 -31zM161.999 399c14.667 4.66699 32 6.99902 52 6.99902c22 0 40.5 -1.83301 55.5 -5.5
s32.833 -9.16699 53.5 -16.5c14.667 -6 27.167 -10.333 37.5 -13s21.5 -4 33.5 -4c18 0 34 3.33301 48 10s29.333 17.334 46 32.001c2.66699 24 4 49.333 4 76c0 48 -12.5 85.167 -37.5 111.5s-60.5 39.5 -106.5 39.5c-80 0 -132.667 -41 -158 -123
c-12 -36 -21.333 -74 -28 -114zM475.999 314.999c-24.667 -12.667 -52.667 -19.001 -84 -19.001c-22 0 -40.5 1.83301 -55.5 5.5s-32.833 9.16699 -53.5 16.5c-14.667 6 -27.167 10.333 -37.5 13s-21.833 4 -34.5 4c-22.667 0 -43 -5.66699 -61 -17
c-4.66699 -34.667 -7 -69 -7 -103c0 -48 12.5 -85.167 37.5 -111.5s60.167 -39.5 105.5 -39.5c81.333 0 134.333 41 159 123c10 30.667 20.333 73.334 31 128.001z" />
    <glyph glyph-name="uni0473" unicode="&#x473;" horiz-adv-x="510" 
d="M382 485.5c26 -17 45.499 -39.5 58.499 -67.5s19.5 -58.333 19.5 -91c0 -30.667 -3 -64.667 -9 -102s-14 -68.666 -24 -93.999c-17.333 -45.333 -44 -80.333 -80 -105s-77.333 -37 -124 -37c-37.333 0 -69 8.5 -95 25.5s-45.5 39.5 -58.5 67.5s-19.5 58.333 -19.5 91
c0 30.667 3 64.667 9 102s14 68.666 24 93.999c17.333 45.333 43.833 80.333 79.5 105s76.834 37 123.501 37c38 0 70 -8.5 96 -25.5zM203.499 416c-20.333 -16 -36.8369 -39.666 -49.5039 -70.999c-4.66699 -11.333 -10 -29.333 -16 -54
c14.667 9.33301 32.334 14 53.001 14c16 0 29.333 -1.83301 40 -5.5s23.334 -9.16699 38.001 -16.5c10 -6 18.833 -10.333 26.5 -13s15.834 -4 24.501 -4c12 0 22.833 3 32.5 9s20.167 15.667 31.5 29v19c0 33.333 -8.5 61.166 -25.5 83.499s-42.833 33.5 -77.5 33.5
c-31.333 0 -57.166 -8 -77.499 -24zM306.495 84.001c20.333 16 36.8359 39.667 49.5029 71c6.66699 16 12 34.333 16 55c-16 -10 -34 -15 -54 -15c-16 0 -29.333 1.83301 -40 5.5s-23.334 9.16699 -38.001 16.5c-10 6 -18.833 10.333 -26.5 13s-15.834 4 -24.501 4
c-12 0 -22.833 -2.83301 -32.5 -8.5s-19.834 -14.834 -30.501 -27.501v-21c0 -33.333 8.5 -61.166 25.5 -83.499s42.5 -33.5 76.5 -33.5c32 0 58.167 8 78.5 24z" />
    <glyph glyph-name="uni0474" unicode="&#x474;" horiz-adv-x="578" 
d="M83 700l83.999 -0.000976562l62 -531l2 -91c0 -6 2.33301 -9 7 -9c3.33301 0 6 2 8 6l191 489c18.667 46.667 42.167 81.334 70.5 104.001s63.833 34 106.5 34c10.667 0 22.334 -0.666992 35.001 -2l-10 -70c-5.33301 0.666992 -12.333 1 -21 1
c-26 0 -47.5 -7.5 -64.5 -22.5s-32.167 -39.833 -45.5 -74.5l-213 -534h-127z" />
    <glyph glyph-name="uni0475" unicode="&#x475;" horiz-adv-x="491" 
d="M64 500h83l49 -346l2 -80c0 -6 2 -9 6 -9c1.33301 0 2.83301 0.666992 4.5 2s2.83398 3.33301 3.50098 6l111 279c41.333 100 97.333 150 168 150c11.333 0 22.333 -2 33 -6l-12 -70c-6 2 -11.667 3 -17 3c-21.333 0 -39.833 -8.83301 -55.5 -26.5
s-29.834 -41.5 -42.501 -71.5l-144 -331h-113z" />
    <glyph glyph-name="uni0476" unicode="&#x476;" horiz-adv-x="578" 
d="M164 922h83l79 -150h-83zM335 922h83l79 -150h-83zM83 700l83.999 -0.000976562l62 -531l2 -91c0 -6 2.33301 -9 7 -9c3.33301 0 6 2 8 6l191 489c18.667 46.667 42.167 81.334 70.5 104.001s63.833 34 106.5 34c10.667 0 22.334 -0.666992 35.001 -2l-10 -70
c-5.33301 0.666992 -12.333 1 -21 1c-26 0 -47.5 -7.5 -64.5 -22.5s-32.167 -39.833 -45.5 -74.5l-213 -534h-127z" />
    <glyph glyph-name="uni0477" unicode="&#x477;" horiz-adv-x="491" 
d="M111 743h83l79 -150h-83zM266 743h83l79 -150h-83zM64 500h83l49 -346l2 -80c0 -6 2 -9 6 -9c1.33301 0 2.83301 0.666992 4.5 2s2.83398 3.33301 3.50098 6l111 279c41.333 100 97.333 150 168 150c11.333 0 22.333 -2 33 -6l-12 -70c-6 2 -11.667 3 -17 3
c-21.333 0 -39.833 -8.83301 -55.5 -26.5s-29.834 -41.5 -42.501 -71.5l-144 -331h-113z" />
    <glyph glyph-name="uni0478" unicode="&#x478;" horiz-adv-x="1076" 
d="M474 681c32.667 -20.667 56.999 -48.167 72.999 -82.5s24 -71.833 24 -112.5c0 -46.667 -4.66699 -99.667 -14 -159s-22 -113 -38 -161c-16 -55.333 -44.167 -98.833 -84.5 -130.5s-92.5 -47.5 -156.5 -47.5c-46 0 -85.167 10.333 -117.5 31s-56.5 48.167 -72.5 82.5
s-24 71.833 -24 112.5c0 48 4.66699 101.667 14 161s22 112.333 38 159c16.667 55.333 44.834 98.833 84.501 130.5s91.5 47.5 155.5 47.5c46 0 85.333 -10.333 118 -31zM454.499 596.5c-25 26.333 -60.5 39.5 -106.5 39.5c-80 0 -132.667 -41 -158 -123
c-14 -41.333 -25.333 -90 -34 -146s-13 -106.667 -13 -152c0 -48 12.5 -85.167 37.5 -111.5s60.167 -39.5 105.5 -39.5c81.333 0 134.333 41 159 123c13.333 42 24.5 91.167 33.5 147.5s13.5 106.5 13.5 150.5c0 48 -12.5 85.167 -37.5 111.5zM620.999 -155
c34.667 14 62.001 30.1689 82.001 48.502s38 44.166 54 77.499l20 41l-115 488h82l64 -269l8 -98c1.33301 -5.33301 3.33301 -8 6 -8c4 0 7 2.66699 9 8l165 367h85l-255 -550c-20 -44 -44.833 -79.833 -74.5 -107.5s-65.834 -48.834 -108.501 -63.501z" />
    <glyph glyph-name="uni0479" unicode="&#x479;" horiz-adv-x="932" 
d="M128 14.5c-26 17 -45.501 39.5 -58.501 67.5s-19.5 58.333 -19.5 91c0 30.667 3 64.667 9 102s14 68.666 24 93.999c17.333 45.333 43.833 80.333 79.5 105s76.834 37 123.501 37c38 0 70 -8.5 96 -25.5s45.5 -39.5 58.5 -67.5s19.5 -58.333 19.5 -91
c0 -30.667 -3 -64.667 -9 -102s-14 -68.666 -24 -93.999c-17.333 -45.333 -44 -80.333 -80 -105s-77.333 -37 -124 -37c-37.333 0 -69 8.5 -95 25.5zM453.999 -147c34 9.33301 60.999 24.667 80.999 46s38 50.333 54 87l20 41l-113 473h82l76 -315l2 -56
c0 -4.66699 1.33301 -7 4 -7c4 0 7.33301 3.66699 10 11l19 52l75 167c40 100 96 150 168 150c11.333 0 22.333 -2 33 -6l-12 -70c-6 2 -11.667 3 -17 3c-21.333 0 -39.666 -8.66699 -54.999 -26s-29.666 -41.333 -42.999 -72l-178 -381
c-40.667 -86 -101.334 -143 -182.001 -171zM306.498 84.001c20.333 16 36.832 39.666 49.499 70.999c8 18 14.667 44 20 78s8 64 8 90c0 33.333 -8.5 61.166 -25.5 83.499s-42.833 33.5 -77.5 33.5c-31.333 0 -57.166 -8 -77.499 -24s-36.833 -39.667 -49.5 -71
c-8 -20 -14.667 -46.167 -20 -78.5s-8 -62.166 -8 -89.499c0 -33.333 8.5 -61.166 25.5 -83.499s42.5 -33.5 76.5 -33.5c32 0 58.167 8 78.5 24z" />
    <glyph glyph-name="uni0480" unicode="&#x480;" horiz-adv-x="503" 
d="M517 644l-34.002 -69c-14 19.333 -32.333 34.333 -55 45s-49.334 16 -80.001 16c-80 0 -132.667 -41 -158 -123c-14 -41.333 -25.333 -90 -34 -146s-13 -106.667 -13 -152c0 -48 12.5 -85.167 37.5 -111.5s60.167 -39.5 105.5 -39.5c22.667 0 44.334 2 65.001 6
s49.334 10.667 86.001 20l2 -51l-29 -179h-73l22 137c-20.667 -6 -47.667 -9 -81 -9c-46 0 -85.167 10.333 -117.5 31s-56.5 48.167 -72.5 82.5s-24 71.833 -24 112.5c0 48 4.66699 101.667 14 161s22 112.333 38 159c16.667 55.333 44.834 98.833 84.501 130.5
s91.5 47.5 155.5 47.5c67.333 0 121 -22.667 161 -68z" />
    <glyph glyph-name="uni0481" unicode="&#x481;" horiz-adv-x="450" 
d="M153.5 95.5c19 -23.667 47.167 -35.498 84.5 -35.498c29.333 0 54.833 2 76.5 6s51.5 12.333 89.5 25l-34 -232h-72l23 154c-14 -8.66699 -28.5 -14.667 -43.5 -18s-33.167 -5 -54.5 -5c-36 0 -67.167 8.16699 -93.5 24.5s-46.333 38.166 -60 65.499
s-20.5 56.666 -20.5 87.999c0 50.667 7.33301 103 22 157c15.333 54 42.5 98.333 81.5 133s84.5 52 136.5 52c26.667 0 51.334 -3.83301 74.001 -11.5s45.667 -19.167 69 -34.5l-29 -63c-20.667 12.667 -39.834 22 -57.501 28s-37.167 9 -58.5 9
c-36 0 -66.333 -12.167 -91 -36.5s-42.667 -57.166 -54 -98.499s-17 -80.333 -17 -117s9.5 -66.834 28.5 -90.501z" />
    <glyph glyph-name="uni048A" unicode="&#x48a;" horiz-adv-x="634" 
d="M298.5 807c-26.333 20 -41.168 48.667 -44.501 86l61 13c4.66699 -23.333 13.334 -40.833 26.001 -52.5s30.667 -17.5 54 -17.5c48 0 84 24.667 108 74l58 -21c-14 -37.333 -36 -65.333 -66 -84s-63 -28 -99 -28c-38.667 0 -71.167 10 -97.5 30zM524.998 76h54.999
l-2 -19l-124 -197h-81l89 140h-31l65 466l19 67l1 4c0 2 -0.666992 3.66699 -2 5s-2.66602 2 -3.99902 2c-4.66699 0 -8.33398 -2.33301 -11.001 -7l-358 -537h-86l98 700h83l-65 -466l-21 -69v-3c0 -2.66699 1 -4 3 -4c2.66699 0 5.33398 2 8.00098 6l364 536h87z" />
    <glyph glyph-name="uni048B" unicode="&#x48b;" horiz-adv-x="530" 
d="M222.5 637c-26.333 20 -41.168 48.667 -44.501 86l61 13c4.66699 -23.333 13.334 -40.833 26.001 -52.5s30.667 -17.5 54 -17.5c48 0 84 24.667 108 74l58 -21c-14 -37.333 -36 -65.333 -66 -84s-63 -28 -99 -28c-38.667 0 -71.167 10 -97.5 30zM469.998 500
l-61 -429.999h56l-1 -13l-119 -187h-76l83 130h-28l4 25v4c0 6 -2.66699 9 -8 9c-4 0 -7 -0.666992 -9 -2l-73 -40c-18.667 -4.66699 -35.334 -7 -50.001 -7c-43.333 0 -77.333 11.5 -102 34.5s-37 54.167 -37 93.5c0 5.33301 0.666992 14.666 2 27.999l47 355h80l-47 -361
c-0.666992 -3.33301 -1 -8 -1 -14c0 -21.333 6.33301 -37 19 -47s30.334 -15 53.001 -15c12 0 27 3.83301 45 11.5s49.333 24.167 94 49.5l49 376h80z" />
    <glyph glyph-name="uni048C" unicode="&#x48c;" horiz-adv-x="576" 
d="M484.5 356c35.667 -33.333 53.5 -80.999 53.5 -142.999c0 -68.667 -20.167 -121.334 -60.5 -158.001s-93.5 -55 -159.5 -55h-233l74 532h-109l9 69h110l14 99h83l-14 -99h188l-9 -69h-188l-18 -126h96c73.333 0 127.833 -16.667 163.5 -50zM422.5 109.501
c25.667 26.333 38.5 59.167 38.5 98.5c0 42.667 -11.5 74.667 -34.5 96s-58.167 32 -105.5 32h-106l-37 -266h143c42 0 75.833 13.167 101.5 39.5z" />
    <glyph glyph-name="uni048D" unicode="&#x48d;" horiz-adv-x="508" 
d="M425 281.5c28 -24.333 42 -58.168 42 -101.501c0 -55.333 -18.333 -99.166 -55 -131.499s-85 -48.5 -145 -48.5h-189l60 431h-103l10 69h103l35 250h80l-35 -250h178l-10 -69h-177l-16 -113h104c50.667 0 90 -12.167 118 -36.5zM356 100.998
c20.667 20.667 30.999 47 30.999 79c0 21.333 -7.33301 38 -22 50s-35.667 18 -63 18h-109l-25 -178h105c34.667 0 62.334 10.333 83.001 31z" />
    <glyph glyph-name="uni048E" unicode="&#x48e;" horiz-adv-x="553" 
d="M517.5 393.5c-21 -29 -48.499 -50.502 -82.499 -64.502l37 -86l-64 -35l-44 104c-4.66699 -0.666992 -12.334 -1 -23.001 -1h-162l-44 -311h-80l98 700h238c52.667 0 94.167 -14.667 124.5 -44s45.5 -69.666 45.5 -120.999c0 -11.333 -1 -23.666 -3 -36.999
c-6 -40.667 -19.5 -75.5 -40.5 -104.5zM332.001 383.998l-34 76l63 35l21 -47l-1 -40c0 -4.66699 1.66699 -7.66699 5 -9s7 -1 11 1c55.333 28.667 83 72.667 83 132c0 30.667 -9.16699 54.667 -27.5 72s-43.833 26 -76.5 26h-153l-34 -246h143z" />
    <glyph glyph-name="uni048F" unicode="&#x48f;" horiz-adv-x="530" 
d="M361 35l37.001 -89l-63 -35l-39 90c-24 -7.33301 -48 -11 -72 -11c-17.333 0 -35 1 -53 3l-29 7l-30 -200h-80l28 196l58 416l-58 28l33 70l101 -49c2.66699 -1.33301 4.66699 -2 6 -2c3.33301 0 6.33301 1.33301 9 4l13 13c24 13.333 44 22.333 60 27s35 7 57 7
c39.333 0 73 -12.333 101 -37s42 -69 42 -133c0 -80 -15.667 -151.667 -47 -215c-18.667 -37.333 -43.334 -67.333 -74.001 -90zM373.001 162c22 52.667 32.999 111 32.999 175c0 66.667 -27 100 -81 100c-18 0 -37 -4 -57 -12s-44.667 -21.333 -74 -40l-44 -315
c26.667 -6.66699 49.334 -10 68.001 -10s35 2.33301 49 7l-42 96l63 35l23 -54l6 -36c2 -9.33301 6.66699 -11.333 14 -6c17.333 15.333 31.333 35.333 42 60z" />
    <glyph glyph-name="uni0490" unicode="&#x490;" horiz-adv-x="432" 
d="M153 700h259l20 140h73l-31 -218h-249l-87 -622h-83z" />
    <glyph glyph-name="uni0491" unicode="&#x491;" horiz-adv-x="410" 
d="M120 500h223l20 140h72l-30 -210h-215l-60 -430h-80z" />
    <glyph glyph-name="uni0492" unicode="&#x492;" horiz-adv-x="432" 
d="M225 622l-33 -236h133l-10 -69h-133l-44 -317h-83l44 317h-75l10 69h75l44 314h332l-11 -78h-249z" />
    <glyph glyph-name="uni0493" unicode="&#x493;" horiz-adv-x="468" 
d="M128 185c-17.333 -14 -25.999 -33.332 -25.999 -57.999c0 -22 7.83301 -38.667 23.5 -50s38.5 -17 68.5 -17c27.333 0 53.333 4.33301 78 13s50.667 22 78 40l22 -70c-27.333 -17.333 -56.333 -30.833 -87 -40.5s-61.334 -14.5 -92.001 -14.5
c-53.333 0 -94.5 12.833 -123.5 38.5s-43.5 59.5 -43.5 101.5c0 37.333 10.333 68 31 92h-47l10 69h184l56 12c27.333 6 47.5 14.667 60.5 26s19.5 28.666 19.5 51.999c0 20 -7.83301 35.167 -23.5 45.5s-38.167 15.5 -67.5 15.5c-51.333 0 -97 -12.667 -137 -38l-21 67
c46.667 28.667 100 43 160 43c51.333 0 91.666 -12.333 120.999 -37s44 -58 44 -100c0 -35.333 -9 -64 -27 -86h66l-10 -69h-225l-19 -4c-31.333 -6.66699 -55.666 -17 -72.999 -31z" />
    <glyph glyph-name="uni0494" unicode="&#x494;" horiz-adv-x="568" 
d="M225 622l-34.9971 -248v-3c0 -5.33301 2.66699 -8 8 -8l9 2l54 22c9.33301 2.66699 21.166 4.66699 35.499 6s27.166 2 38.499 2c48 0 88.333 -15.5 121 -46.5s49.667 -78.833 51 -143.5c0 -64 -9.66699 -122.833 -29 -176.5s-48 -96.667 -86 -129
s-83.667 -48.5 -137 -48.5c-16.667 0 -34.667 3.66699 -54 11l25 64c8 -2.66699 18.333 -4 31 -4c34.667 0 64.667 13.667 90 41s44.5 62.333 57.5 105s19.5 86.667 19.5 132c-0.666992 80 -36.334 120 -107.001 120c-50 0 -96.333 -10.667 -139 -32l-40 -288h-83l98 700
h406l-11 -78h-323z" />
    <glyph glyph-name="uni0495" unicode="&#x495;" horiz-adv-x="510" 
d="M190 430l-22.998 -164.999v-4c0 -5.33301 2 -8 6 -8s7.33301 0.666992 10 2l58 26c18 2.66699 34.333 4 49 4c26 0 50.833 -6.33301 74.5 -19s43 -32.667 58 -60s22.5 -61.333 22.5 -102c0 -46.667 -8.33301 -89.167 -25 -127.5s-40.834 -68.833 -72.501 -91.5
s-68.5 -34 -110.5 -34c-16.667 0 -34.667 3.66699 -54 11l25 64c8 -2.66699 18.333 -4 31 -4c24 0 45.5 8.33301 64.5 25s33.833 38.834 44.5 66.501s16 57.167 16 88.5c-1.33301 35.333 -10.5 62.166 -27.5 80.499s-38.5 27.5 -64.5 27.5
c-20.667 0 -41.334 -2.83301 -62.001 -8.5s-39 -12.834 -55 -21.501l-25 -180h-80l70 500h335l-10 -70h-255z" />
    <glyph glyph-name="uni0496" unicode="&#x496;" horiz-adv-x="790" 
d="M688 76h78l-31 -216h-73l20 140h-53l-117 312h-76l-44 -312h-82l44 312h-74l-205 -312h-90l233 353l-133 347h88l115 -313h76l44 313h82l-44 -313h74l203 313h87l-227 -344z" />
    <glyph glyph-name="uni0497" unicode="&#x497;" horiz-adv-x="715" 
d="M535.5 111.5c9 -19 22.8359 -32.833 41.5029 -41.5h79l-28 -200h-72l18 125c-40 10 -70.667 31.5 -92 64.5s-32 70.833 -32 113.5c0 8.66699 0.666992 24.334 2 47.001h-80l-31 -220h-80l31 220h-79c-6.66699 -36 -14.334 -65.667 -23.001 -89
c-15.333 -40.667 -38.333 -73 -69 -97s-66.334 -38.333 -107.001 -43l10 72c22 4.66699 40.333 14.667 55 30s28 36 40 62c8 18 14.667 44 20 78s8 64 8 90c0 27.333 -5.66699 51.166 -17 71.499s-29 34.166 -53 41.499l10 72c44 -8 77.667 -29 101 -63s35 -73.333 35 -118
c0 -16 -0.333008 -28.333 -1 -37h80l29 210h80l-29 -210h80c4.66699 26.667 11.667 53 21 79c15.333 40.667 38.333 73 69 97s66 38.333 106 43l-10 -72c-23.333 -4.66699 -42.833 -14.5 -58.5 -29.5s-28.834 -35.833 -39.501 -62.5c-8 -20 -14.667 -46.167 -20 -78.5
s-8 -62.166 -8 -89.499c0 -24.667 4.5 -46.5 13.5 -65.5z" />
    <glyph glyph-name="uni0498" unicode="&#x498;" horiz-adv-x="518" 
d="M431.5 297.5c18.333 -24.333 27.499 -54.166 27.499 -89.499c0 -62.667 -19.333 -112.5 -58 -149.5s-93 -58.167 -163 -63.5l-21 -46c27.333 -3.33301 48.833 -11.833 64.5 -25.5s23.5 -30.834 23.5 -51.501c0 -38 -22 -67.833 -66 -89.5s-97 -32.5 -159 -32.5l22 62
c40.667 0 73.334 5.33301 98.001 16s37 25 37 43c0 10 -7.66699 16.667 -23 20s-41.333 5 -78 5l36 99c-33.333 2.66699 -63.5 10.167 -90.5 22.5s-52.5 29.166 -76.5 50.499l36 66c19.333 -19.333 43.833 -34.666 73.5 -45.999s60.167 -17 91.5 -17
c54.667 0 96.667 11.167 126 33.5s44 56.5 44 102.5c0 33.333 -10.667 59.5 -32 78.5s-52.333 28.5 -93 28.5h-114l11 76h109c47.333 0 84.666 13.167 111.999 39.5s41 60.5 41 102.5c0 30.667 -10 54.5 -30 71.5s-48.333 25.5 -85 25.5
c-31.333 0 -61.833 -4.16699 -91.5 -12.5s-54.5 -19.833 -74.5 -34.5l-21 71c32.667 18.667 64.667 32.167 96 40.5s66 12.5 104 12.5c36.667 0 68.834 -7.5 96.501 -22.5s48.834 -35.5 63.501 -61.5s22 -55 22 -87c0 -42.667 -11.667 -81 -35 -115s-53 -56.333 -89 -67
c25.333 -12.667 47.166 -31.167 65.499 -55.5z" />
    <glyph glyph-name="uni0499" unicode="&#x499;" horiz-adv-x="448" 
d="M356.5 214.5c13.667 -19.667 20.5 -42.834 20.5 -69.501c0 -43.333 -16.333 -78 -49 -104s-72.667 -41.333 -120 -46l-21 -46c27.333 -3.33301 48.833 -11.833 64.5 -25.5s23.5 -30.834 23.5 -51.501c0 -38 -22 -67.833 -66 -89.5s-97 -32.5 -159 -32.5l22 62
c40.667 0 73.334 5.33301 98.001 16s37 25 37 43c0 10 -7.66699 16.667 -23 20s-41.333 5 -78 5l36 98c-31.333 2 -58.833 7.33301 -82.5 16s-45.834 21.667 -66.501 39l33 63c33.333 -31.333 81 -47 143 -47c40 0 71.667 6.83301 95 20.5s35 34.834 35 63.501
c0 22 -7.83301 39.667 -23.5 53s-39.5 20 -71.5 20h-78l10 69h83c27.333 0 50.333 7.83301 69 23.5s28 34.834 28 57.501s-7.33301 39.834 -22 51.501s-38.334 17.5 -71.001 17.5c-24 0 -48.333 -3 -73 -9s-46.667 -14.667 -66 -26l-20 66c26.667 14.667 53.167 25 79.5 31
s54.5 9 84.5 9c51.333 0 91.833 -12.333 121.5 -37s44.5 -55.334 44.5 -92.001c0 -31.333 -9 -58 -27 -80s-40.667 -37.667 -68 -47c24.667 -8 43.834 -21.833 57.501 -41.5z" />
    <glyph glyph-name="uni049A" unicode="&#x49a;" horiz-adv-x="552" 
d="M442 76h86l-31 -216h-73l20 140h-60l-121 313h-82l-44 -313h-82l98 700h82l-44 -312h72l214 312h93l-237 -345z" />
    <glyph glyph-name="uni049B" unicode="&#x49b;" horiz-adv-x="507" 
d="M389 70h83l-28 -200h-72l18 130h-57l-102 220h-68l-31 -220h-82l70 500h82l-29 -210h68l156 210h87l-179 -245z" />
    <glyph glyph-name="uni049C" unicode="&#x49c;" horiz-adv-x="640" 
d="M482 0l-148.999 310c-2 4.66699 -5 7 -9 7c-2.66699 0 -4.83398 -1.16699 -6.50098 -3.5s-2.5 -5.5 -2.5 -9.5l-1 -78l-12 -76h-74l23 163h-70l-44 -313h-82l98 700h82l-44 -312h70l25 172h74l-13 -90l-20 -66c-0.666992 -1.33301 -1 -3 -1 -5
c0 -5.33301 2.33301 -8 7 -8c4 0 7 1.66699 9 5l234 304h96l-280 -349c-2 -2.66699 -3 -6 -3 -10c0 -5.33301 2 -10 6 -14l44 -42l135 -285h-92z" />
    <glyph glyph-name="uni049D" unicode="&#x49d;" horiz-adv-x="553" 
d="M120 500h82l-30 -212h60l19 132h71l-11 -78l-18 -40c-1.33301 -4 -2 -6.33301 -2 -7c0 -4.66699 2.33301 -7 7 -7s8.66699 2.66699 12 8l153 204h94l-134 -171l-60 -64c-8 -8 -10.333 -15.333 -7 -22l42 -58l89 -185h-90l-96 210c-3.33301 4.66699 -6.33301 7 -9 7
c-4.66699 0 -7 -3.66699 -7 -11v-47l-9 -69h-71l17 123h-60l-30 -213h-82z" />
    <glyph glyph-name="uni049E" unicode="&#x49e;" horiz-adv-x="561" 
d="M356 355l139 -355h-88l-121 313h-82l-44 -313h-82l77 553h-102l9 66h103l11 81h82l-11 -81h106l-9 -66h-107l-23 -165h72l214 312h93z" />
    <glyph glyph-name="uni049F" unicode="&#x49f;" horiz-adv-x="467" 
d="M300 285l101 -285h-88l-82 239h-76l-33 -239h-82l83 595h-85l10 69h85l12 86h82l-12 -86h144l-10 -69h-144l-40 -286h54l134 191h96z" />
    <glyph glyph-name="uni04A0" unicode="&#x4a0;" horiz-adv-x="652" 
d="M447 355l139 -355h-88l-121 313h-82l-44 -313h-82l88 630h-174l10 70h256l-44 -312h72l214 312h93z" />
    <glyph glyph-name="uni04A1" unicode="&#x4a1;" horiz-adv-x="645" 
d="M463 255l116 -255h-88l-102 220h-68l-31 -220h-82l60 430h-213l10 70h295l-29 -210h68l156 210h87z" />
    <glyph glyph-name="uni04A2" unicode="&#x4a2;" horiz-adv-x="631" 
d="M506 76h71l-31 -216h-73l20 140h-81l44 311h-274l-44 -311h-83l98 700h83l-43 -311h274l43 311h83z" />
    <glyph glyph-name="uni04A3" unicode="&#x4a3;" horiz-adv-x="539" 
d="M427 70h60l-28 -200h-72l18 130h-68l31 220h-207l-31 -220h-80l70 500h80l-29 -210h207l29 210h80z" />
    <glyph glyph-name="uni04A4" unicode="&#x4a4;" horiz-adv-x="773" 
d="M801 622h-219l-87 -622h-83l44 311h-274l-44 -311h-83l98 700h83l-43 -311h274l43 311h302z" />
    <glyph glyph-name="uni04A5" unicode="&#x4a5;" horiz-adv-x="680" 
d="M675 430h-198l-60 -430h-80l31 220h-207l-31 -220h-80l70 500h80l-29 -210h207l29 210h278z" />
    <glyph glyph-name="uni04A6" unicode="&#x4a6;" horiz-adv-x="911" 
d="M814.5 348.5c33 -31 49.5029 -78.833 49.5029 -143.5c0 -64 -9.66699 -122.833 -29 -176.5s-48 -96.667 -86 -129s-83.667 -48.5 -137 -48.5c-16.667 0 -34.667 3.66699 -54 11l25 64c8 -2.66699 18.333 -4 31 -4c34 0 63.667 13.167 89 39.5s44.666 60.5 57.999 102.5
s20 85.333 20 130c0 84 -35.667 126 -107 126c-50 0 -96.333 -10.667 -139 -32l-40 -288h-83l88 624h-274l-88 -624h-83l98 700h440l-46 -330c0 -4.66699 2.66699 -7 8 -7l9 2l54 22c9.33301 2.66699 21.166 4.66699 35.499 6s27.166 2 38.499 2
c48.667 0 89.5 -15.5 122.5 -46.5zM547.003 374v-2v2z" />
    <glyph glyph-name="uni04A7" unicode="&#x4a7;" horiz-adv-x="774" 
d="M656.5 263c23.667 -14 42.832 -35.835 57.499 -65.502s22 -67.167 22 -112.5c0 -42.667 -8.83301 -82 -26.5 -118s-42.334 -64.5 -74.001 -85.5s-67.5 -31.5 -107.5 -31.5c-16.667 0 -34.667 3.66699 -54 11l25 64c8 -2.66699 18.333 -4 31 -4c23.333 0 44.5 8 63.5 24
s33.833 36.833 44.5 62.5s16 51.834 16 78.501c0 40.667 -8.33301 71.334 -25 92.001s-38.667 31 -66 31c-36 0 -71.333 -8 -106 -24l-25 -185h-80l46 344c1.33301 12 2 20 2 24c0 46 -23 69 -69 69c-20.667 0 -40 -3.16699 -58 -9.5s-44 -19.833 -78 -40.5l-55 -387h-80
l57 412l-57 28l33 70l101 -49c2.66699 -1.33301 5 -2 7 -2c2.66699 0 5.33398 1.33301 8.00098 4l12 12c20.667 12.667 39.5 21.667 56.5 27s36.167 8 57.5 8c46.667 0 82.5 -12.5 107.5 -37.5s37.5 -58.833 37.5 -101.5c0 -6 -0.666992 -16.333 -2 -31l-12 -89l8 3l58 26
c18 2.66699 34.333 4 49 4c26.667 0 51.834 -7 75.501 -21z" />
    <glyph glyph-name="uni04A8" unicode="&#x4a8;" horiz-adv-x="671" 
d="M573 224.5c-26 -62.333 -60.666 -113.5 -103.999 -153.5c18 -5.33301 36 -8 54 -8c18.667 0 39 3.66699 61 11l-6 -75c-20 -6.66699 -41.667 -10 -65 -10c-45.333 0 -85 10 -119 30c-42.667 -20.667 -87.334 -31 -134.001 -31c-63.333 0 -112.333 16.333 -147 49
s-52.334 81.334 -53.001 146.001c0 45.333 3.33301 91.666 10 138.999s16 103.666 28 168.999c17.333 73.333 49.5 128.5 96.5 165.5s107.167 55.5 180.5 55.5l-7 -78c-51.333 0 -93.666 -13.833 -126.999 -41.5s-55.333 -68.167 -66 -121.5
c-23.333 -115.333 -35 -210 -35 -284c3.33301 -80.667 44 -121 122 -121c24 0 47 4 69 12c-38.667 54.667 -58 129.334 -58 224.001c0 198.667 67 298 201 298c49.333 0 86.333 -14.667 111 -44s35.667 -71.333 33 -126c-4 -74.667 -19 -143.167 -45 -205.5zM403.001 119
c41.333 33.333 74.166 78.499 98.499 135.499s36.5 114.833 36.5 173.5c0 28.667 -5.16699 51.834 -15.5 69.501s-27.166 26.5 -50.499 26.5c-79.333 0 -119 -74 -119 -222c0 -80 16.667 -141 50 -183z" />
    <glyph glyph-name="uni04A9" unicode="&#x4a9;" horiz-adv-x="595" 
d="M434 54c24 0 49.3311 4 75.998 12l-5 -67c-29.333 -8 -56.666 -12 -81.999 -12c-38.667 0 -71.667 7.66699 -99 23c-32.667 -14 -66.334 -21 -101.001 -21c-37.333 0 -69 8.5 -95 25.5s-45.5 39.5 -58.5 67.5s-19.5 58.333 -19.5 91c0 30.667 3 64.667 9 102
s14 68.666 24 93.999c17.333 45.333 44.166 80.333 80.499 105s78.833 37 127.5 37l-10 -71c-31.333 0 -57.166 -7.83301 -77.499 -23.5s-36.833 -39.5 -49.5 -71.5c-8 -20 -14.667 -46.167 -20 -78.5s-8 -62.166 -8 -89.499c0 -34 8.16699 -62.333 24.5 -85
s40.833 -34 73.5 -34c15.333 0 29.333 1.33301 42 4c-27.333 38 -41 86 -41 144c0 42 7.16699 80.5 21.5 115.5s35 62.667 62 83s58.5 30.5 94.5 30.5c38.667 0 70.834 -12.667 96.501 -38s38.5 -60.333 38.5 -105s-12.167 -87.667 -36.5 -129s-56.166 -77 -95.499 -107
c12 -1.33301 21.333 -2 28 -2zM339.998 91c35.333 21.333 64 50.001 86 86.001s33 74 33 114c0 20 -5.16699 36.333 -15.5 49s-24.5 19 -42.5 19c-32 0 -56.167 -15.167 -72.5 -45.5s-24.5 -66.833 -24.5 -109.5c0 -48.667 12 -86.334 36 -113.001z" />
    <glyph glyph-name="uni04AA" unicode="&#x4aa;" horiz-adv-x="503" 
d="M517 644l-34.002 -68.999c-14 19.333 -32.333 34.333 -55 45s-49.334 16 -80.001 16c-80 0 -132.667 -41 -158 -123c-14 -41.333 -25.333 -90 -34 -146s-13 -106.667 -13 -152c0 -48 12.5 -85.167 37.5 -111.5s60.167 -39.5 105.5 -39.5c24 0 47.833 5 71.5 15
s44.167 22.667 61.5 38l20 -78c-33.333 -26.667 -73.333 -43 -120 -49l-19 -41c27.333 -3.33301 48.833 -11.833 64.5 -25.5s23.5 -30.834 23.5 -51.501c0 -38 -22 -67.833 -66 -89.5s-97 -32.5 -159 -32.5l22 62c40.667 0 73.334 5.33301 98.001 16s37 25 37 43
c0 10 -7.66699 16.667 -23 20s-41.333 5 -78 5l34 93c-40.667 4 -75.167 16.667 -103.5 38s-49.666 48.333 -63.999 81s-21.5 68 -21.5 106c0 48 4.66699 101.667 14 161s22 112.333 38 159c16.667 55.333 44.834 98.833 84.501 130.5s91.5 47.5 155.5 47.5
c67.333 0 121 -22.667 161 -68z" />
    </font>
</defs>
</svg>
